<?xml version="1.0" standalone="no"?>
<!DOCTYPE svg PUBLIC "-//W3C//DTD SVG 1.1//EN" "http://www.w3.org/Graphics/SVG/1.1/DTD/svg11.dtd" >
<svg xmlns="http://www.w3.org/2000/svg">
<defs>
<font id="MyriadPro-Regular" horiz-adv-x="614" >
  <font-face 
    font-family="Myriad Pro"
    font-weight="400"
    font-stretch="normal"
    units-per-em="2048"
    panose-1="2 11 5 3 3 4 3 2 2 4"
    ascent="1536"
    descent="-512"
    x-height="991"
    cap-height="1380"
    bbox="-322 -512 2306 1950"
    underline-thickness="102"
    underline-position="-102"
    unicode-range="U+0020-U+FB04"
  />
<missing-glyph horiz-adv-x="1024" 
d="M0 0v1434h1024v-1434h-1024zM512 809l348 522h-696zM573 717l349 -522v1044zM164 102h696l-348 523zM102 1239v-1044l349 522z" />
    <glyph glyph-name="uniE003" unicode="ffj" horiz-adv-x="1656" 
d="M1444 1413l-53 -135q-84 53 -203 53q-246 0 -246 -291v-49h578v-903q0 -287 -119 -407q-55 -55 -141 -84t-166 -29l-21 141q137 10 197 76q39 45 54 123t15 250v696h-397v-854h-178v854h-418v-854h-178v854h-137v137h137v35q0 211 119 328q92 96 254 96q88 0 174 -43
l-51 -133q-57 35 -123 35q-78 0 -129 -52q-66 -72 -66 -229v-37h418v56q0 199 113.5 314.5t318.5 115.5q152 -1 248 -64z" />
    <glyph glyph-name="uniE004" unicode="fj" horiz-adv-x="1069" 
d="M346 0h-178v854h-137v137h137v56q0 199 113.5 314.5t318.5 115.5q70 0 141.5 -18.5t110.5 -47.5l-51 -137q-84 57 -209 57q-246 0 -246 -291v-49h576v-903q0 -287 -119 -407q-55 -55 -141.5 -84t-165.5 -29l-19 141q137 10 195 76q39 45 54 123t15 250v696h-395v-854z
" />
    <glyph glyph-name="uniFB00" unicode="ff" horiz-adv-x="1193" 
d="M942 0h-178v854h-418v-854h-178v854h-137v137h137v31q0 225 111 338q92 92 249 92q76 0 142 -35l-37 -135q-49 27 -107 27q-180 0 -180 -277v-41h418v47q0 238 115 346q94 92 239 93q88 0 154 -29l-23 -139q-53 23 -116 22q-190 0 -191 -287v-53h238v-137h-238v-854z" />
    <glyph glyph-name="uniFB03" unicode="ffi" horiz-adv-x="1669" 
d="M1444 1413l-53 -135q-84 53 -203 53q-246 0 -246 -291v-49h578v-991h-181v854h-397v-854h-178v854h-418v-854h-178v854h-137v137h137v35q0 211 119 328q92 96 254 96q88 0 174 -43l-51 -133q-57 35 -123 35q-78 0 -129 -52q-66 -72 -66 -229v-37h418v56
q0 199 113.5 314.5t318.5 115.5q152 -1 248 -64z" />
    <glyph glyph-name="uniFB04" unicode="ffl" horiz-adv-x="1669" 
d="M715 1413l-47 -135q-55 31 -123 31q-84 0 -131 -52q-68 -70 -68 -227v-39h418v43q0 223 141 342q117 100 318 101q176 0 297 -66v-1411h-181v1311q-49 27 -147 26q-131 0 -190.5 -81.5t-59.5 -213.5v-51h234v-137h-232v-854h-180v854h-418v-854h-178v854h-137v137h137v23
q0 223 115 338q102 98 266 98q86 0 166 -37z" />
    <glyph glyph-name="f_i" unicode="fi" horiz-adv-x="1071" 
d="M346 0h-178v854h-137v137h137v56q0 199 113.5 314.5t318.5 115.5q70 0 141.5 -18.5t110.5 -47.5l-51 -137q-84 57 -209 57q-246 0 -246 -291v-49h576v-991h-181v854h-395v-854z" />
    <glyph glyph-name="f_l" unicode="fl" horiz-adv-x="1071" 
d="M346 0h-178v854h-137v137h137v43q0 221 139 342q119 100 320 101q176 0 297 -66v-1411h-181v1311q-49 27 -147 26q-131 0 -190.5 -81.5t-59.5 -213.5v-51h232v-137h-232v-854z" />
    <glyph glyph-name=".notdef" horiz-adv-x="1024" 
d="M0 0v1434h1024v-1434h-1024zM512 809l348 522h-696zM573 717l349 -522v1044zM164 102h696l-348 523zM102 1239v-1044l349 522z" />
    <glyph glyph-name=".null" horiz-adv-x="0" 
 />
    <glyph glyph-name="nonmarkingreturn" horiz-adv-x="682" 
 />
    <glyph glyph-name="space" unicode=" " horiz-adv-x="434" 
 />
    <glyph glyph-name="exclam" unicode="!" horiz-adv-x="471" 
d="M305 395h-139l-29 985h197zM233 -23q-51 0 -84.5 37t-33.5 90q0 55 34.5 91t88 36t86 -35.5t32.5 -91t-34 -91.5t-89 -36z" />
    <glyph glyph-name="quotedbl" unicode="&#x22;" horiz-adv-x="690" 
d="M104 1417h179l-35 -491h-111zM410 1417h178l-35 -491h-109z" />
    <glyph glyph-name="numbersign" unicode="#" horiz-adv-x="1017" 
d="M385 522h213l39 297h-213zM315 0h-122l53 401h-170v121h188l39 297h-178v121h194l54 391h121l-54 -391h215l52 391h120l-51 -391h168v-121h-186l-37 -297h176v-121h-195l-53 -401h-123l54 401h-213z" />
    <glyph glyph-name="dollar" unicode="$" horiz-adv-x="1050" 
d="M575 -174h-129v205q-190 4 -311 90l49 137q133 -88 293 -88q109 0 176.5 56.5t67.5 144.5q0 82 -56.5 139t-175.5 104q-170 66 -253.5 148t-83.5 209t83.5 217t223.5 112v205h129v-198q150 -4 266 -72l-51 -135q-125 72 -258 71q-109 0 -163 -53t-54 -125q0 -76 56 -125
t198 -108q164 -68 240.5 -154t76.5 -219q0 -129 -86 -226.5t-238 -121.5v-213z" />
    <glyph glyph-name="percent" unicode="%" horiz-adv-x="1622" 
d="M385 1354q139 0 222 -104.5t83 -291.5q0 -201 -90 -310t-227 -109q-133 0 -221.5 104.5t-90.5 294.5q0 195 92.5 305.5t231.5 110.5zM375 1245q-80 0 -126 -85t-46 -214q-4 -131 44 -215t130 -84q86 0 129 82t43 219q0 133 -42 215t-132 82zM473 -25h-115l785 1381h114z
M1253.5 803q139.5 0 222.5 -104.5t83 -292.5q0 -201 -90.5 -310.5t-227.5 -109.5q-133 0 -221 104.5t-90 296.5q0 195 92 305.5t231.5 110.5zM1243 694q-80 0 -126 -85t-46 -216q-4 -131 44 -215t130 -84q86 0 129 82t43 221q0 133 -42 215t-132 82z" />
    <glyph glyph-name="ampersand" unicode="&#x26;" horiz-adv-x="1239" 
d="M1233 0h-213l-129 133q-170 -156 -404 -156q-195 0 -309.5 113t-114.5 275q0 256 271 403v6q-115 143 -115 289q0 137 93.5 239.5t256.5 102.5q131 0 218 -80t87 -213q0 -111 -70.5 -200t-232.5 -169v-8l336 -383q92 141 133 404h164q-59 -344 -198 -510zM520 113
q168 0 283 125l-389 436q-178 -115 -178 -283q0 -119 79.5 -198.5t204.5 -79.5zM555 1282q-80 0 -126 -58.5t-46 -142.5q0 -115 104 -250q117 68 173.5 128.5t56.5 144.5q0 72 -41 125t-121 53z" />
    <glyph glyph-name="quotesingle" unicode="'" horiz-adv-x="385" 
d="M104 1417h179l-35 -491h-111z" />
    <glyph glyph-name="parenleft" unicode="(" horiz-adv-x="581" 
d="M399 1421h140q-256 -348 -256 -839q0 -463 256 -830h-140q-268 354 -268 832q2 483 268 837z" />
    <glyph glyph-name="parenright" unicode=")" horiz-adv-x="581" 
d="M180 -248h-139q256 362 256 835.5t-256 833.5h139q268 -350 269 -833q-3 -482 -269 -836z" />
    <glyph glyph-name="asterisk" unicode="*" horiz-adv-x="849" 
d="M551 1405l123 -72l-195 -256v-4l309 41v-139l-309 39v-6l197 -246l-129 -74l-125 287h-4l-131 -289l-117 74l195 250v6l-304 -41v139l301 -39v4l-192 252l125 72l127 -287h4z" />
    <glyph glyph-name="plus" unicode="+" horiz-adv-x="1220" 
d="M545 1090h131v-482h463v-123h-463v-485h-131v485h-463v123h463v482z" />
    <glyph glyph-name="comma" unicode="," horiz-adv-x="423" 
d="M160 -240l-127 -14q82 225 123 492l200 20q-37 -131 -95 -278.5t-101 -219.5z" />
    <glyph glyph-name="hyphen" unicode="-" horiz-adv-x="628" 
d="M61 618h506v-131h-506v131z" />
    <glyph glyph-name="period" unicode="." horiz-adv-x="423" 
d="M225 -23q-51 0 -85 37t-34 92.5t35 92.5t88.5 37t87 -36t33.5 -94q0 -55 -35 -92t-90 -37z" />
    <glyph glyph-name="slash" unicode="/" horiz-adv-x="702" 
d="M135 -80h-137l569 1485h142z" />
    <glyph glyph-name="zero" unicode="0" horiz-adv-x="1050" 
d="M539 1354q209 0 324.5 -178.5t115.5 -495.5q0 -338 -121 -520.5t-342 -182.5q-199 0 -319.5 180.5t-122.5 504.5q0 328 128 510t337 182zM526 1214q-121 0 -195.5 -145t-74.5 -410q0 -256 72.5 -399t197.5 -143q133 0 202 146.5t69 408.5q0 256 -67 399t-204 143z" />
    <glyph glyph-name="one" unicode="1" horiz-adv-x="1050" 
d="M483 0v1163h-4l-231 -125l-35 138l291 155h153v-1331h-174z" />
    <glyph glyph-name="two" unicode="2" horiz-adv-x="1050" 
d="M942 0h-850v111l141 137q279 264 387.5 409.5t108.5 286.5q0 115 -61.5 187.5t-200.5 72.5q-147 0 -283 -112l-57 127q160 135 375 135q201 0 304 -115t103 -272q0 -170 -108.5 -327t-349.5 -388l-105 -98v-4h596v-150z" />
    <glyph glyph-name="three" unicode="3" horiz-adv-x="1050" 
d="M86 68l49 137q137 -82 295 -82t230.5 79t70.5 179q-2 131 -101.5 198.5t-242.5 67.5h-100v135h100q113 0 205 58.5t92 167.5q0 86 -58.5 143t-174.5 57q-143 0 -267 -88l-49 131q143 102 350 103q184 0 282.5 -92.5t98.5 -225.5q0 -106 -63.5 -189t-181.5 -126v-4
q129 -25 211.5 -115t85.5 -225q0 -168 -129.5 -284t-356.5 -116q-209 1 -346 91z" />
    <glyph glyph-name="four" unicode="4" horiz-adv-x="1050" 
d="M819 0h-170v365h-618v116l594 850h194v-827h187v-139h-187v-365zM213 504h436v444q0 104 6 209h-6q-53 -100 -110 -196l-326 -453v-4z" />
    <glyph glyph-name="five" unicode="5" horiz-adv-x="1050" 
d="M887 1331v-151h-508l-51 -342q45 6 108 6q172 0 287 -72q84 -47 137 -134t53 -206q0 -197 -140 -326t-355 -129q-201 0 -332 82l45 138q125 -74 287 -74q131 0 223 80t90 209q0 135 -95 214t-286 79q-88 0 -186 -13l86 639h637z" />
    <glyph glyph-name="six" unicode="6" horiz-adv-x="1050" 
d="M852 1352v-148q-53 2 -135 -10q-203 -33 -320.5 -163t-142.5 -308h4q115 156 324 156q178 0 289.5 -119t111.5 -311.5t-122 -332t-322 -139.5q-213 0 -341 155t-128 413q0 379 225 600q168 166 426 196q65 11 131 11zM543 117q115 0 186.5 88t71.5 231q0 141 -75 223
t-200 82q-82 0 -152.5 -45t-107.5 -118q-18 -37 -18 -78q2 -170 79 -276.5t216 -106.5z" />
    <glyph glyph-name="seven" unicode="7" horiz-adv-x="1050" 
d="M117 1331h839v-119l-579 -1212h-187l578 1178v4h-651v149z" />
    <glyph glyph-name="eight" unicode="8" horiz-adv-x="1050" 
d="M340 694l-2 6q-106 49 -159.5 129t-53.5 170q0 156 117.5 255.5t296.5 99.5q184 0 286.5 -96.5t102.5 -231.5q0 -209 -221 -311v-6q268 -106 268 -344q0 -172 -129 -280t-324 -108q-203 0 -324.5 103.5t-121.5 255.5q0 245 264 358zM526 109q121 0 194 66.5t73 170.5
q0 115 -75 182.5t-218 108.5q-115 -33 -177.5 -106.5t-62.5 -170.5q-4 -104 69.5 -177.5t196.5 -73.5zM528 1225q-109 0 -170 -61.5t-61 -151.5q-2 -94 64.5 -153.5t189.5 -92.5q92 31 147.5 93.5t55.5 148.5q0 90 -56.5 153.5t-169.5 63.5z" />
    <glyph glyph-name="nine" unicode="9" horiz-adv-x="1050" 
d="M197 -20v147q41 -4 145 6q170 23 279 129q141 127 176 352h-6q-115 -141 -316 -141q-174 0 -282.5 117t-108.5 291q0 195 128 334t327 139q203 0 321.5 -152.5t118.5 -410.5q0 -401 -229 -623q-156 -152 -388 -178q-87 -14 -165 -10zM522 1217q-115 0 -187.5 -91.5
t-72.5 -234.5q0 -125 69.5 -204t186.5 -79q88 0 156.5 38t105.5 102q16 29 17 67q0 180 -69 291t-206 111z" />
    <glyph glyph-name="colon" unicode=":" horiz-adv-x="423" 
d="M227 700q-51 0 -84.5 37t-33.5 90q0 57 33.5 93t86.5 36q55 0 88 -35.5t33 -93.5q0 -55 -34 -91t-89 -36zM227 -23q-51 0 -84.5 37t-33.5 90q0 57 33.5 93t86.5 36q55 0 88 -35.5t33 -93.5q0 -55 -34 -91t-89 -36z" />
    <glyph glyph-name="semicolon" unicode=";" horiz-adv-x="423" 
d="M160 -238l-125 -14q84 229 123 492l198 20q-37 -131 -95 -277.5t-101 -220.5zM242 700q-51 0 -85 37t-34 90q0 57 33.5 93t87.5 36q55 0 88 -35.5t33 -93.5q0 -55 -34 -91t-89 -36z" />
    <glyph glyph-name="less" unicode="&#x3c;" horiz-adv-x="1220" 
d="M135 489v111l950 490v-142l-800 -401v-4l800 -402v-141z" />
    <glyph glyph-name="equal" unicode="=" horiz-adv-x="1220" 
d="M1139 690h-1057v123h1057v-123zM1139 289h-1057v123h1057v-123z" />
    <glyph glyph-name="greater" unicode="&#x3e;" horiz-adv-x="1220" 
d="M1085 604v-117l-950 -487v141l807 402v4l-807 401v142z" />
    <glyph glyph-name="question" unicode="?" horiz-adv-x="831" 
d="M451 393h-162l-4 53q-20 178 127 355q143 168 143 280q0 80 -50 127t-145 49q-123 0 -206 -63l-50 129q117 82 293 82q166 0 254 -87t88 -214q0 -94 -43 -172t-133 -184q-125 -150 -117 -304zM365 -23q-51 0 -85 37t-34 90q0 57 33.5 93t87.5 36q55 0 87.5 -35.5
t32.5 -93.5q0 -55 -33.5 -91t-88.5 -36z" />
    <glyph glyph-name="at" unicode="@" horiz-adv-x="1509" 
d="M918 522l43 230q-41 16 -103 16q-135 0 -230.5 -109.5t-95.5 -259.5q0 -70 35 -112.5t101 -42.5q84 0 158 88t92 190zM1040 -45l33 -88q-156 -82 -364 -82q-260 0 -440.5 176t-180.5 465q0 328 208 558t540 230q264 0 429 -166.5t165 -426.5q0 -221 -106.5 -354.5
t-256.5 -133.5q-68 0 -112 45t-42 135h-6q-106 -180 -289 -180q-92 0 -156.5 70.5t-64.5 187.5q0 197 138.5 341.5t347.5 144.5q125 0 219 -43l-70 -371q-45 -225 62 -230q84 -4 152.5 100.5t68.5 272.5q0 229 -131 371.5t-365 142.5q-258 0 -436 -189.5t-178 -492.5
q0 -252 147.5 -403.5t378.5 -151.5q182 0 309 72z" />
    <glyph glyph-name="A" unicode="A" horiz-adv-x="1253" 
d="M868 434h-489l-143 -434h-185l471 1380h213l471 -1380h-190zM416 573h418l-138 398q-29 84 -71 252h-4q-47 -184 -70 -250z" />
    <glyph glyph-name="B" unicode="B" horiz-adv-x="1110" 
d="M156 4v1356q129 31 325 31q256 0 377 -101q117 -86 117 -243q0 -100 -62.5 -182.5t-171.5 -121.5v-6q115 -27 200 -114.5t85 -229.5q0 -168 -119 -276q-137 -129 -475 -129q-157 0 -276 16zM334 1241v-446h162q137 0 217 65.5t80 167.5q0 225 -301 225q-101 0 -158 -12z
M334 662v-527q49 -8 149 -8q154 0 254.5 64.5t100.5 203.5q0 133 -100.5 200t-256.5 67h-147z" />
    <glyph glyph-name="C" unicode="C" horiz-adv-x="1187" 
d="M1083 186l35 -143q-127 -66 -364 -66q-301 0 -490.5 184.5t-189.5 516.5q0 326 199.5 525.5t521.5 199.5q209 0 327 -62l-45 -145q-115 57 -276 57q-246 0 -392.5 -150.5t-146.5 -418.5q0 -256 140.5 -405.5t388.5 -149.5q173 0 292 57z" />
    <glyph glyph-name="D" unicode="D" horiz-adv-x="1363" 
d="M156 4v1356q180 31 379 31q371 0 559 -172q197 -178 196 -496q0 -338 -198 -537q-203 -199 -613 -198q-180 0 -323 16zM334 1231v-1092q59 -8 180 -8q285 0 436.5 152.5t151.5 433.5q2 250 -140.5 391t-418.5 141q-125 0 -209 -18z" />
    <glyph glyph-name="E" unicode="E" horiz-adv-x="1007" 
d="M868 795v-148h-534v-497h598v-150h-778v1380h747v-149h-567v-436h534z" />
    <glyph glyph-name="F" unicode="F" horiz-adv-x="997" 
d="M154 0v1380h743v-149h-563v-459h520v-147h-520v-625h-180z" />
    <glyph glyph-name="G" unicode="G" horiz-adv-x="1323" 
d="M1208 725v-664q-197 -76 -426 -75q-326 0 -516 182q-193 186 -192 514q0 313 202.5 513t544.5 200q215 0 346 -64l-45 -145q-125 59 -305 59q-254 0 -404.5 -148.5t-150.5 -406.5q0 -260 144.5 -408.5t388.5 -148.5q164 0 237 37v412h-278v143h454z" />
    <glyph glyph-name="H" unicode="H" horiz-adv-x="1335" 
d="M154 1380h180v-577h667v577h181v-1380h-181v647h-667v-647h-180v1380z" />
    <glyph glyph-name="I" unicode="I" horiz-adv-x="489" 
d="M154 1380h180v-1380h-180v1380z" />
    <glyph glyph-name="J" unicode="J" horiz-adv-x="757" 
d="M436 471v909h180v-923q0 -479 -417 -480q-115 0 -191 33l25 146q68 -27 151 -27q127 0 189.5 74.5t62.5 267.5z" />
    <glyph glyph-name="K" unicode="K" horiz-adv-x="1110" 
d="M156 0v1380h178v-665h6q47 68 109 147l421 518h222l-500 -585l538 -795h-210l-453 678l-133 -152v-526h-178z" />
    <glyph glyph-name="L" unicode="L" horiz-adv-x="966" 
d="M154 0v1380h180v-1230h590v-150h-770z" />
    <glyph glyph-name="M" unicode="M" horiz-adv-x="1646" 
d="M1352 0l-33 606q-23 424 -23 596h-4q-94 -303 -174 -524l-244 -670h-135l-225 658q-104 315 -158 536h-4q-6 -264 -26 -610l-37 -592h-170l96 1380h227l236 -667q82 -246 139 -465h4q49 188 148 465l245 667h228l86 -1380h-176z" />
    <glyph glyph-name="N" unicode="N" horiz-adv-x="1347" 
d="M324 0h-168v1380h196l441 -698q160 -258 245 -449l6 3q-20 231 -20 567v577h168v-1380h-180l-439 700q-172 272 -256 461l-6 -2q12 -209 13 -569v-590z" />
    <glyph glyph-name="O" unicode="O" horiz-adv-x="1411" 
d="M713 1405q283 0 452.5 -194.5t169.5 -505.5q0 -342 -182 -535t-459 -193q-274 0 -447 195t-173 508q0 326 179 525.5t460 199.5zM707 1260q-211 0 -328 -167t-117 -409q0 -233 120 -397t323 -164q205 0 323.5 164t118.5 409q0 227 -115.5 395.5t-324.5 168.5z" />
    <glyph glyph-name="P" unicode="P" horiz-adv-x="1089" 
d="M156 0v1364q160 27 342 27q260 0 387 -115q121 -106 121 -289q0 -184 -107 -295q-145 -152 -422 -151q-94 0 -143 12v-553h-178zM334 1235v-537q55 -14 147 -14q162 0 254 77t92 216q0 135 -87 203.5t-238 68.5q-115 0 -168 -14z" />
    <glyph glyph-name="Q" unicode="Q" horiz-adv-x="1411" 
d="M1346 -53l-52 -150q-281 74 -528 160q-61 20 -84 20q-260 10 -434 194.5t-174 506.5q0 328 179 527.5t462 199.5q281 0 450.5 -194.5t169.5 -503.5q0 -258 -106.5 -429.5t-286.5 -234.5v-8q222 -55 404 -88zM705 123q205 0 323.5 164t118.5 409q0 227 -114.5 395.5
t-321.5 168.5q-143 0 -248 -83t-153 -212t-48 -283q0 -233 120 -396t323 -163z" />
    <glyph glyph-name="R" unicode="R" horiz-adv-x="1101" 
d="M156 0v1362q158 29 342 29q274 0 399 -113q109 -98 109 -264q0 -129 -72 -220.5t-186 -129.5v-7q150 -53 200 -278q76 -319 107 -379h-185q-33 57 -90 330q-31 143 -94 203.5t-184 64.5h-168v-598h-178zM334 1237v-504h182q141 0 226 72t85 190q0 129 -85 192.5
t-232 63.5q-123 0 -176 -14z" />
    <glyph glyph-name="S" unicode="S" horiz-adv-x="1009" 
d="M86 68l47 149q141 -90 318 -90q135 0 211.5 64.5t76.5 170.5q0 94 -60.5 157t-199.5 116q-365 133 -364 393q0 164 123.5 269.5t322.5 105.5q188 0 303 -68l-49 -145q-106 66 -260 65q-129 0 -194.5 -62.5t-65.5 -143.5q0 -94 62.5 -151.5t211.5 -115.5
q180 -70 265.5 -164t85.5 -241q0 -170 -124 -285t-358 -115q-98 0 -196.5 26t-155.5 65z" />
    <glyph glyph-name="T" unicode="T" horiz-adv-x="1017" 
d="M418 0v1229h-420v151h1022v-151h-422v-1229h-180z" />
    <glyph glyph-name="U" unicode="U" horiz-adv-x="1325" 
d="M154 1380h180v-819q0 -221 88 -329.5t233 -108.5q158 0 247 108.5t89 329.5v819h180v-807q0 -303 -142 -449.5t-380 -146.5q-227 0 -361 142.5t-134 447.5v813z" />
    <glyph glyph-name="V" unicode="V" horiz-adv-x="1142" 
d="M655 0h-196l-453 1380h195l215 -680q106 -348 147 -516h4q53 215 158 514l233 682h191z" />
    <glyph glyph-name="W" unicode="W" horiz-adv-x="1732" 
d="M567 0h-186l-350 1380h188l164 -698q63 -268 102 -477h4q23 139 113 479l184 696h187l168 -700q74 -307 96 -473h4q27 143 111 477l182 696h182l-391 -1380h-186l-174 719q-66 272 -91 450h-4q-31 -186 -106 -450z" />
    <glyph glyph-name="X" unicode="X" horiz-adv-x="1169" 
d="M1118 0h-207l-178 305q-90 145 -158 273h-4q-47 -96 -149 -275l-166 -303h-205l422 698l-405 682h206l183 -323q86 -150 127 -234h6q49 102 125 234l186 323h207l-420 -671z" />
    <glyph glyph-name="Y" unicode="Y" horiz-adv-x="1107" 
d="M643 0h-180v586l-438 794h204l195 -381q113 -231 137 -284h4q25 57 140 284l198 381h201l-461 -792v-588z" />
    <glyph glyph-name="Z" unicode="Z" horiz-adv-x="1132" 
d="M61 0v104l764 1121v6h-698v149h932v-108l-762 -1116v-6h772v-150h-1008z" />
    <glyph glyph-name="bracketleft" unicode="[" horiz-adv-x="581" 
d="M541 -229h-375v1634h375v-113h-234v-1409h234v-112z" />
    <glyph glyph-name="backslash" unicode="\" horiz-adv-x="698" 
d="M700 -80h-139l-557 1485h139z" />
    <glyph glyph-name="bracketright" unicode="]" horiz-adv-x="581" 
d="M41 1405h375v-1634h-375v112h233v1409h-233v113z" />
    <glyph glyph-name="asciicircum" unicode="^" horiz-adv-x="1220" 
d="M1098 387h-144l-342 795h-4l-342 -795h-141l422 944h129z" />
    <glyph glyph-name="underscore" unicode="_" horiz-adv-x="1024" 
d="M0 -154h1024v-102h-1024v102z" />
    <glyph glyph-name="grave" unicode="`" 
d="M45 1419h197l180 -293h-127z" />
    <glyph glyph-name="a" unicode="a" horiz-adv-x="987" 
d="M846 608v-370q0 -143 14 -238h-162l-14 125h-6q-45 -63 -124 -105.5t-179 -42.5q-143 0 -223 84t-80 201q0 180 154.5 275.5t441.5 93.5v20q0 37 -7.5 71t-29 73t-69.5 61.5t-120 22.5q-152 0 -260 -74l-41 121q137 86 328 86q207 0 292 -115t85 -289zM672 334v172
q-420 8 -420 -223q0 -84 48 -128t120 -44q92 0 155.5 48t88.5 117q8 27 8 58z" />
    <glyph glyph-name="b" unicode="b" horiz-adv-x="1165" 
d="M150 256v1198h178v-623h4q104 180 338 181q186 0 303 -140.5t117 -363.5q0 -250 -133.5 -390.5t-313.5 -140.5q-225 0 -334 185h-4l-10 -162h-154q9 135 9 256zM328 573v-176q0 -39 8 -65q25 -94 98.5 -152.5t171.5 -58.5q141 0 221 104.5t80 276.5q0 158 -78.5 263
t-218.5 105q-92 0 -168.5 -60t-103.5 -161q-10 -37 -10 -76z" />
    <glyph glyph-name="c" unicode="c" horiz-adv-x="917" 
d="M825 170l31 -135q-121 -57 -285 -58q-223 0 -358 139.5t-135 366.5q0 231 146.5 380t385.5 149q152 0 250 -54l-41 -137q-90 47 -209 47q-164 0 -257 -107.5t-93 -266.5q0 -170 97.5 -270.5t246.5 -100.5q115 0 221 47z" />
    <glyph glyph-name="d" unicode="d" horiz-adv-x="1155" 
d="M825 1454h179v-1198q0 -121 8 -256h-160l-8 172h-6q-41 -86 -129 -140.5t-205 -54.5q-182 0 -304 140.5t-122 363.5q-2 240 128 385.5t316 145.5q109 0 185.5 -43t113.5 -107h4v592zM825 416v172q0 45 -8 76q-20 88 -91 147t-169 59q-137 0 -217 -107.5t-80 -273.5
q0 -158 77 -262t216 -104q92 0 166 58.5t98 156.5q8 33 8 78z" />
    <glyph glyph-name="e" unicode="e" horiz-adv-x="1026" 
d="M946 463h-696q2 -174 97 -259t243 -85q158 0 274 51l33 -129q-141 -63 -332 -64q-225 0 -356 137.5t-131 364.5q0 229 127 381t338 152q115 0 199.5 -46t127.5 -120t62.5 -148.5t19.5 -150.5q0 -53 -6 -84zM252 592h526q2 109 -56 200t-194 91q-125 0 -194.5 -89
t-81.5 -202z" />
    <glyph glyph-name="f" unicode="f" horiz-adv-x="598" 
d="M346 0h-178v854h-137v137h137v47q0 233 115 346q94 92 241 93q84 0 154 -29l-25 -139q-49 23 -114 22q-193 0 -193 -287v-53h240v-137h-240v-854z" />
    <glyph glyph-name="g" unicode="g" horiz-adv-x="1144" 
d="M997 721v-576q0 -322 -141 -454q-133 -119 -362 -119q-207 0 -330 82l45 139q121 -80 291 -80q147 0 233 84t86 264v109h-4q-43 -74 -124 -120t-191 -46q-182 0 -302 138.5t-120 344.5q0 240 133 382.5t315 142.5q215 0 310 -170h4l6 149h160q-9 -92 -9 -270zM817 422
v178q0 51 -10 80q-27 84 -91.5 138t-160.5 54q-131 0 -213 -102t-82 -272q0 -154 77 -255.5t216 -101.5q86 0 154.5 49.5t95.5 135.5q14 43 14 96z" />
    <glyph glyph-name="h" unicode="h" horiz-adv-x="1136" 
d="M150 0v1454h180v-620h4q47 84 129 129q86 49 184 49q43 0 87 -11.5t92 -40t84 -74.5t59.5 -122t23.5 -174v-590h-180v569q0 131 -55.5 212t-173.5 81q-84 0 -149.5 -51t-92.5 -127q-12 -33 -12 -86v-598h-180z" />
    <glyph glyph-name="i" unicode="i" horiz-adv-x="479" 
d="M330 0h-180v991h180v-991zM239.5 1382q49.5 0 80 -31.5t30.5 -80.5q0 -47 -30.5 -79t-83.5 -32q-49 0 -79 32t-30 79t31.5 79.5t81 32.5z" />
    <glyph glyph-name="j" unicode="j" horiz-adv-x="497" 
d="M-74 -432l-20 141q137 10 196 78q39 43 54.5 121t15.5 250v833h180v-903q0 -287 -119 -407q-55 -55 -141 -84t-166 -29zM262 1382q49 0 80 -32.5t31 -79.5t-31 -79t-84 -32q-47 0 -77.5 33t-30.5 78q0 47 31.5 79.5t80.5 32.5z" />
    <glyph glyph-name="k" unicode="k" horiz-adv-x="960" 
d="M328 1454v-917h4q41 57 86 112l293 342h215l-381 -407l436 -584h-221l-340 475l-92 -102v-373h-178v1454h178z" />
    <glyph glyph-name="l" unicode="l" horiz-adv-x="483" 
d="M150 0v1454h180v-1454h-180z" />
    <glyph glyph-name="m" unicode="m" horiz-adv-x="1708" 
d="M150 0v723q0 104 -9 268h158l8 -162h6q106 182 314 183q98 0 171.5 -54.5t106.5 -144.5h4q39 74 113 129q92 70 217 70q55 0 108.5 -19.5t104.5 -64.5t83 -134t32 -212v-582h-176v559q0 145 -54.5 225t-160.5 80q-74 0 -131.5 -46t-83.5 -116q-14 -47 -15 -90v-612h-176
v594q0 123 -53 196.5t-154 73.5q-78 0 -139.5 -53t-83.5 -127q-14 -35 -14 -88v-596h-176z" />
    <glyph glyph-name="n" unicode="n" horiz-adv-x="1136" 
d="M150 0v723q0 160 -9 268h160l10 -164h4q41 78 127 131.5t201 53.5q57 0 113.5 -19.5t112 -63.5t90 -131t34.5 -208v-590h-180v571q0 131 -55.5 212t-173.5 81q-84 0 -149.5 -53t-92.5 -131q-12 -33 -12 -84v-596h-180z" />
    <glyph glyph-name="o" unicode="o" horiz-adv-x="1124" 
d="M569 1012q213 0 345.5 -141.5t132.5 -366.5q0 -256 -147.5 -391.5t-346.5 -135.5q-205 0 -340 140.5t-135 369.5q0 240 140 382.5t351 142.5zM565.5 877q-147.5 0 -225.5 -114t-78 -269q0 -164 84 -272.5t215 -108.5q129 0 215 109.5t86 275.5q0 145 -74.5 262t-222 117z
" />
    <glyph glyph-name="p" unicode="p" horiz-adv-x="1165" 
d="M150 -406v1074q0 135 -9 323h160l10 -170h4q113 190 353 191q182 0 302 -139.5t120 -362.5q0 -254 -132.5 -393.5t-320.5 -139.5q-98 0 -179 41t-126 115h-4v-539h-178zM328 575v-172q0 -43 8 -73q25 -94 99.5 -152.5t170.5 -58.5q141 0 221 104.5t80 278.5
q0 156 -78.5 261t-216.5 105q-94 0 -170.5 -60t-101.5 -161q-12 -45 -12 -72z" />
    <glyph glyph-name="q" unicode="q" horiz-adv-x="1153" 
d="M825 -406v558h-4q-100 -174 -323 -175q-178 0 -299 139.5t-121 360.5q0 260 136 397.5t312 137.5q109 0 188 -47t117 -123h5l6 149h170q-8 -164 -8 -272v-1125h-179zM825 403v187q0 43 -8 74q-23 88 -92.5 146t-165.5 58q-137 0 -218 -105.5t-81 -273.5q0 -158 76 -263
t217 -105q88 0 157.5 51t100.5 143q14 47 14 88z" />
    <glyph glyph-name="r" unicode="r" horiz-adv-x="669" 
d="M150 0v682q0 186 -9 309h158l8 -196h6q33 98 109 157.5t168 59.5q16 0 49 -4v-170q-18 4 -61 4q-94 0 -159 -63.5t-83 -166.5q-6 -37 -6 -84v-528h-180z" />
    <glyph glyph-name="s" unicode="s" horiz-adv-x="811" 
d="M82 47l43 135q117 -70 240 -69q92 0 141 41t49 106q0 63 -41 103t-141 77q-264 96 -264 281q0 123 94 207t248 84q147 0 241 -62l-43 -131q-94 59 -203 60q-78 0 -120.5 -39t-42.5 -97q0 -59 42 -94t144 -76q131 -49 195.5 -119.5t64.5 -177.5q0 -135 -98.5 -217
t-270.5 -82q-159 0 -278 70z" />
    <glyph glyph-name="t" unicode="t" horiz-adv-x="677" 
d="M190 1176l177 53v-238h258v-137h-258v-535q0 -193 135 -192q63 0 104 12l8 -137q-70 -25 -159 -25q-125 0 -195 76q-70 78 -70 260v541h-153v137h153v185z" />
    <glyph glyph-name="u" unicode="u" horiz-adv-x="1128" 
d="M979 991v-719q0 -168 8 -272h-160l-10 162h-4q-41 -74 -125 -129.5t-203 -55.5q-63 0 -119.5 20.5t-108.5 67t-83 135.5t-31 212v579h181v-547q0 -317 221 -317q84 0 147.5 49t89.5 117q16 39 17 92v606h180z" />
    <glyph glyph-name="v" unicode="v" horiz-adv-x="985" 
d="M27 991h192l195 -555q53 -150 80 -256h6q25 88 84 256l192 555h189l-390 -991h-172z" />
    <glyph glyph-name="w" unicode="w" horiz-adv-x="1507" 
d="M37 991h184l133 -504q59 -246 72 -315h6q23 100 88 313l162 506h152l153 -495q55 -180 88 -324h6q20 123 76 322l141 497h179l-320 -991h-164l-151 473q-59 186 -88 326h-4q-29 -141 -91 -328l-159 -471h-164z" />
    <glyph glyph-name="x" unicode="x" horiz-adv-x="948" 
d="M33 991h200l142 -213q49 -70 102 -160h4q37 66 101 162l137 211h196l-337 -479l346 -512h-203l-148 223q-41 61 -106 172h-4q-45 -80 -105 -172l-143 -223h-199l353 506z" />
    <glyph glyph-name="y" unicode="y" horiz-adv-x="964" 
d="M18 991h197l215 -585q37 -96 66 -203h4q2 6 25.5 85t37.5 122l197 581h190l-270 -706q-100 -262 -175 -401.5t-165 -219.5q-113 -94 -221 -115l-45 150q86 27 157 88q92 72 152 201q14 33 14 43q0 16 -14 47z" />
    <glyph glyph-name="z" unicode="z" horiz-adv-x="876" 
d="M37 0v104l446 584l131 156v4h-536v143h753v-112l-442 -576q-88 -113 -127 -156v-4h578v-143h-803z" />
    <glyph glyph-name="braceleft" unicode="{" horiz-adv-x="581" 
d="M57 539v104q96 0 130 42t36 110q0 59 -16 170q-16 119 -17 172q0 135 81 201.5t218 66.5h41v-113h-34q-164 -2 -164 -176q0 -31 14 -145q16 -102 16 -156q2 -180 -149 -221v-4q150 -39 149 -223q0 -55 -16 -158q-14 -115 -14 -148q0 -176 164 -178h34v-112h-43
q-297 0 -297 280q0 68 19 168q14 133 14 166q0 154 -166 154z" />
    <glyph glyph-name="bar" unicode="|" horiz-adv-x="489" 
d="M176 1536h137v-2048h-137v2048z" />
    <glyph glyph-name="braceright" unicode="}" horiz-adv-x="581" 
d="M524 643v-104q-162 0 -166 -154q0 -51 17 -166q16 -111 16 -168q0 -281 -297 -280h-43v112h35q164 2 164 178q0 33 -14 148q-16 102 -17 158q-2 182 150 223v4q-150 39 -150 221q0 53 17 156q14 115 14 145q0 174 -164 176h-35v113h41q137 0 218 -66.5t81 -201.5
q0 -53 -16 -172q-16 -111 -17 -170q0 -68 34 -110t132 -42z" />
    <glyph glyph-name="asciitilde" unicode="~" horiz-adv-x="1220" 
d="M223 430h-123q-4 147 64.5 228t179.5 81q61 0 119.5 -19.5t171.5 -72.5q180 -86 254 -86q106 0 110 172h121q6 -160 -60.5 -234.5t-172.5 -74.5q-102 0 -297 90l-40 19.5t-39 19.5t-33.5 16.5t-36 14.5t-32 10t-34 8t-31.5 2q-119 0 -121 -174z" />
    <glyph glyph-name="uni00A0" unicode="&#xa0;" horiz-adv-x="434" 
 />
    <glyph glyph-name="exclamdown" unicode="&#xa1;" horiz-adv-x="471" 
d="M334 -399h-197l29 977h139zM237.5 999q53.5 0 86 -35.5t32.5 -93.5q0 -53 -33.5 -89t-87 -36t-87 36t-33.5 89q0 57 34.5 93t88 36z" />
    <glyph glyph-name="cent" unicode="&#xa2;" horiz-adv-x="1050" 
d="M678 -29h-129v207q-180 20 -295 144q-117 127 -117 346q0 199 112.5 337t299.5 169v204h129v-200q127 -2 223 -52l-41 -137q-90 51 -215 51q-147 0 -237.5 -105.5t-90.5 -260.5q0 -164 91.5 -261.5t230.5 -97.5q131 0 233 52l31 -131q-88 -51 -225 -60v-205z" />
    <glyph glyph-name="sterling" unicode="&#xa3;" horiz-adv-x="1050" 
d="M965 0h-850v102q104 53 168.5 149.5t64.5 209.5q0 76 -10 143h-211v129h190q-23 135 -22 221q0 180 110.5 290t282.5 110q141 0 223 -51l-39 -136q-74 41 -184 41q-115 0 -169 -69.5t-54 -186.5q0 -98 22 -219h295v-129h-278q12 -150 -8 -229q-33 -129 -142 -221v-4h611
v-150z" />
    <glyph glyph-name="currency" unicode="&#xa4;" horiz-adv-x="1050" 
d="M526 1094q143 0 236 -82l145 153l92 -94l-161 -145q72 -96 71 -242q0 -156 -71 -250l153 -151l-90 -90l-141 155q-92 -86 -240 -86q-145 0 -233 82l-137 -151l-89 90l148 143q-76 102 -76 248q0 150 80 252l-156 145l93 94l139 -155q98 84 237 84zM520 965
q-109 0 -175 -83t-66 -206q0 -137 74.5 -211t166.5 -74q98 0 171 73t73 218q0 115 -64.5 199t-179.5 84z" />
    <glyph glyph-name="yen" unicode="&#xa5;" horiz-adv-x="1050" 
d="M598 0h-170v360h-317v101h317v149h-317v101h268l-346 620h192l213 -422q49 -104 82 -186h6q33 92 82 190l221 418h189l-367 -620h267v-101h-320v-149h320v-101h-320v-360z" />
    <glyph glyph-name="brokenbar" unicode="&#xa6;" horiz-adv-x="489" 
d="M176 356h137v-716h-137v716zM176 1380h137v-716h-137v716z" />
    <glyph glyph-name="section" unicode="&#xa7;" horiz-adv-x="1062" 
d="M268 717q0 -57 49.5 -103.5t165.5 -89.5q180 -63 234 -98q78 57 78 158q0 127 -183 190q-18 8 -61 23.5l-70.5 26t-61.5 25.5t-59 30q-92 -66 -92 -162zM856 1331l-45 -117q-102 66 -244 66q-92 0 -152.5 -42t-60.5 -110q0 -74 59.5 -112.5t196.5 -83.5q164 -53 248 -124
t84 -198q0 -147 -131 -248q78 -74 78 -182q0 -150 -115 -228.5t-274 -78.5q-205 0 -322 86l49 117q115 -82 273 -82q100 0 163.5 44t63.5 122q0 72 -53 118t-197 97q-180 61 -268 130.5t-88 190.5q0 141 151 242q-33 23 -54 71t-21 99q0 133 107.5 212t269 79t282.5 -68z
" />
    <glyph glyph-name="dieresis" unicode="&#xa8;" 
d="M115 1167q-43 0 -72 31t-29 74t30 73.5t75 30.5q41 0 69.5 -29.5t28.5 -74.5q0 -43 -28.5 -74t-73.5 -31zM496 1167q-43 0 -72 31t-29 74t30 73.5t73 30.5t71.5 -29.5t28.5 -74.5q0 -43 -28.5 -74t-73.5 -31z" />
    <glyph glyph-name="copyright" unicode="&#xa9;" horiz-adv-x="1386" 
d="M698 1327q258 0 436.5 -184.5t178.5 -446.5q0 -264 -179.5 -449.5t-437.5 -185.5q-260 0 -441 185.5t-181 449.5q0 262 181 446.5t443 184.5zM694 1243q-219 0 -368.5 -159.5t-149.5 -393.5q0 -229 149.5 -387t370.5 -158q217 -2 365.5 158t148.5 393q0 229 -149.5 388
t-366.5 159zM971 1010l-25 -80q-88 47 -198 47q-139 0 -213 -79t-74 -208q0 -125 75.5 -207t213.5 -82q125 0 206 54l25 -78q-96 -63 -252 -64q-174 0 -274.5 105.5t-100.5 265.5q0 170 115 275.5t276 105.5q74 0 137.5 -17.5t88.5 -37.5z" />
    <glyph glyph-name="ordfeminine" unicode="&#xaa;" horiz-adv-x="708" 
d="M623 545h-121l-10 86h-5q-80 -96 -208 -96q-98 0 -154.5 56t-56.5 140q0 111 108.5 173.5t302.5 58.5v20q0 16 -5 34.5t-19.5 41t-48 37t-80.5 14.5q-102 0 -174 -53l-33 86q94 68 233 67q260 0 260 -286v-219q1 -78 11 -160zM481 762v112q-279 8 -278 -135
q0 -49 33.5 -77.5t85.5 -28.5q94 0 139 76q20 26 20 53z" />
    <glyph glyph-name="guillemotleft" unicode="&#xab;" horiz-adv-x="858" 
d="M475 893l-272 -377l274 -377h-147l-271 377l271 377h145zM811 893l-272 -377l272 -377h-145l-271 377l271 377h145z" />
    <glyph glyph-name="logicalnot" unicode="&#xac;" horiz-adv-x="1220" 
d="M82 817h1057v-569h-131v446h-926v123z" />
    <glyph glyph-name="uni00AD" unicode="&#xad;" horiz-adv-x="595" 
d="M61 618h506v-131h-506v131z" />
    <glyph glyph-name="registered" unicode="&#xae;" horiz-adv-x="858" 
d="M377 1022v-133h-78v336q78 10 129 10q78 0 115 -27q35 -25 35 -71q0 -57 -70 -80v-4q43 -14 59 -82q10 -55 25 -82h-82q-8 10 -27 82q-8 51 -69 51h-37zM379 1174v-97h37q78 0 78 49q0 51 -72 52q-27 0 -43 -4zM432 1399q143 0 242.5 -97.5t99.5 -238.5t-100.5 -239.5
t-243.5 -98.5q-145 0 -245.5 98.5t-100.5 239.5t101.5 238.5t246.5 97.5zM428 1331q-109 0 -183.5 -78.5t-74.5 -189.5q0 -113 76 -190.5t186 -77.5q109 -2 182.5 76.5t73.5 189.5q0 113 -74.5 191.5t-185.5 78.5z" />
    <glyph glyph-name="macron" unicode="&#xaf;" 
d="M78 1317h461v-117h-461v117z" />
    <glyph glyph-name="degree" unicode="&#xb0;" horiz-adv-x="651" 
d="M334 1405q121 0 194.5 -79t73.5 -187q0 -121 -82 -198t-192 -77q-117 0 -193 77t-76 187q0 117 79 197t196 80zM328 1309q-74 0 -116 -54.5t-42 -126t45 -119.5t114.5 -48t116 50t46.5 126q0 66 -41 119t-123 53z" />
    <glyph glyph-name="plusminus" unicode="&#xb1;" horiz-adv-x="1220" 
d="M545 1169h131v-397h463v-123h-463v-409h-131v409h-463v123h463v397zM82 123h1057v-123h-1057v123z" />
    <glyph glyph-name="uni00B2" unicode="&#xb2;" horiz-adv-x="636" 
d="M25 907v76l129 119q139 127 198.5 204.5t59.5 151.5q0 61 -40 101t-116 40q-86 0 -172 -63l-43 94q102 84 252 84q133 0 201.5 -68.5t68.5 -160.5q0 -104 -65.5 -192.5t-206.5 -211.5l-62 -57v-4h349v-113h-553z" />
    <glyph glyph-name="uni00B3" unicode="&#xb3;" horiz-adv-x="624" 
d="M92 1554l-35 99q98 63 236 63q125 0 187.5 -55t62.5 -137q0 -63 -42 -111.5t-116 -75.5v-4q84 -12 137 -66.5t53 -131.5q0 -98 -87 -169t-236 -71q-147 0 -236 57l37 103q86 -53 191 -54q88 0 135 42t45 96q0 74 -63.5 109.5t-153.5 35.5h-55v94h57q70 0 128 33t58 96
q0 43 -31.5 73t-97.5 30q-94 -1 -174 -56z" />
    <glyph glyph-name="acute" unicode="&#xb4;" 
d="M387 1419h197l-250 -293h-127z" />
    <glyph glyph-name="uni00B5" unicode="&#xb5;" horiz-adv-x="1132" 
d="M825 154h-6q-37 -70 -110.5 -121t-173.5 -51q-156 0 -218 108v-121q0 -274 23 -375h-162q-29 86 -28 367v1030h180v-585q0 -125 55 -203t168 -78q84 0 146.5 49t88.5 117q16 43 17 94v606h180v-719q0 -84 20.5 -118.5t73.5 -36.5l-14 -131q-31 -8 -64 -9q-153 1 -176 177
z" />
    <glyph glyph-name="paragraph" unicode="&#xb6;" horiz-adv-x="1048" 
d="M600 -100h-127v643h-14q-139 0 -263 103.5t-126 285.5q0 86 25.5 161.5t86 143.5t176 107.5t275.5 39.5q158 0 239 -16v-1468h-127v1362h-145v-1362z" />
    <glyph glyph-name="periodcentered" unicode="&#xb7;" horiz-adv-x="423" 
d="M209 410q-51 0 -85 36.5t-34 90.5q0 57 35 93t88 36t87 -36t34 -93q0 -55 -35 -91t-90 -36z" />
    <glyph glyph-name="cedilla" unicode="&#xb8;" 
d="M276 6h113l-67 -108q59 -6 101 -45t42 -97q0 -86 -60.5 -126t-154.5 -40q-80 0 -139 35l30 88q53 -29 111 -28q39 0 64.5 15t23.5 48q0 72 -160 86z" />
    <glyph glyph-name="uni00B9" unicode="&#xb9;" horiz-adv-x="499" 
d="M362 907h-143v672h-4l-147 -72l-23 107l193 92h124v-799z" />
    <glyph glyph-name="ordmasculine" unicode="&#xba;" horiz-adv-x="727" 
d="M369 1210q145 0 233 -93t88 -240q-2 -166 -99 -254t-229 -88q-139 0 -232 92t-93 239q0 156 96.5 250t235.5 94zM360 1108q-90 0 -138 -72.5t-48 -167.5q0 -98 56.5 -164.5t134.5 -66.5q82 0 135 65.5t53 169.5q0 90 -49.5 163t-143.5 73z" />
    <glyph glyph-name="guillemotright" unicode="&#xbb;" horiz-adv-x="858" 
d="M322 516l-273 377h144l272 -377l-272 -377h-144zM655 516l-274 377h145l273 -377l-273 -377h-143z" />
    <glyph glyph-name="onequarter" unicode="&#xbc;" horiz-adv-x="1554" 
d="M406 545h-144v674h-4l-147 -72l-23 106l193 90h125v-798zM399 -23h-116l778 1377h115zM1358 0h-135v211h-410v80l395 518h150v-498h123v-100h-123v-211zM1223 311v242q0 18 6 129h-4q-12 -18 -34 -56t-34 -57l-196 -256l2 -2h260z" />
    <glyph glyph-name="onehalf" unicode="&#xbd;" horiz-adv-x="1554" 
d="M377 545h-144v674h-4l-147 -72l-23 106l193 90h125v-798zM358 -23h-114l776 1377h115zM901 0v76l129 119q141 131 199.5 206.5t58.5 149.5q0 63 -40 103t-115 40q-86 0 -172 -63l-43 94q102 84 251 84q133 0 202 -68.5t69 -160.5q0 -106 -64.5 -192.5t-208.5 -213.5
l-61 -57v-4h348v-113h-553z" />
    <glyph glyph-name="threequarters" unicode="&#xbe;" horiz-adv-x="1554" 
d="M135 1192l-35 96q94 66 234 66q125 0 188.5 -55.5t63.5 -137.5q0 -63 -41 -111.5t-115 -72.5v-4q84 -12 137.5 -66.5t53.5 -132.5q0 -100 -87.5 -169.5t-236.5 -69.5q-147 0 -236 57l37 102q78 -53 191 -53q88 0 135 42t45 95q0 74 -63.5 110t-153.5 34h-55v94h55
q70 0 128 32.5t58 96.5q0 43 -32.5 72.5t-98.5 29.5q-92 0 -172 -55zM475 -23h-117l779 1377h114zM1380 0h-135v211h-409v80l395 518h149v-498h123v-100h-123v-211zM1245 311v242q0 18 6 129h-4q-59 -102 -67 -113l-199 -256l2 -2h262z" />
    <glyph glyph-name="questiondown" unicode="&#xbf;" horiz-adv-x="831" 
d="M487 999q53 0 86 -35.5t33 -93.5q0 -55 -32.5 -91t-88.5 -36q-53 0 -86.5 36t-33.5 91q0 57 33.5 93t88.5 36zM403 586h158l6 -54q20 -176 -127 -356q-143 -168 -143 -280q0 -80 50 -128.5t145 -48.5q119 0 208 64l48 -129q-121 -82 -293 -82q-166 0 -254 87t-88 214
q0 94 44 172t134 184q127 152 115 303z" />
    <glyph glyph-name="Agrave" unicode="&#xc0;" horiz-adv-x="1253" 
d="M868 434h-489l-143 -434h-185l471 1380h213l471 -1380h-190zM416 573h418l-138 398q-29 84 -71 252h-4q-47 -184 -70 -250zM330 1694h217l190 -238h-145z" />
    <glyph glyph-name="Aacute" unicode="&#xc1;" horiz-adv-x="1253" 
d="M868 434h-489l-143 -434h-185l471 1380h213l471 -1380h-190zM416 573h418l-138 398q-29 84 -71 252h-4q-47 -184 -70 -250zM713 1694h217l-262 -240h-146z" />
    <glyph glyph-name="Acircumflex" unicode="&#xc2;" horiz-adv-x="1253" 
d="M868 434h-489l-143 -434h-185l471 1380h213l471 -1380h-190zM416 573h418l-138 398q-29 84 -71 252h-4q-47 -184 -70 -250zM565 1688h137l216 -234h-152l-129 141h-4l-131 -141h-146z" />
    <glyph glyph-name="Atilde" unicode="&#xc3;" horiz-adv-x="1253" 
d="M868 434h-489l-143 -434h-185l471 1380h213l471 -1380h-190zM416 573h418l-138 398q-29 84 -71 252h-4q-47 -184 -70 -250zM475 1464h-96q-2 94 36 151.5t103 57.5q45 0 123 -41q66 -37 98 -37q25 0 38.5 16.5t17.5 63.5h94q4 -199 -137 -198q-51 0 -125 39
q-78 39 -99 38q-43 0 -53 -90z" />
    <glyph glyph-name="Adieresis" unicode="&#xc4;" horiz-adv-x="1253" 
d="M868 434h-489l-143 -434h-185l471 1380h213l471 -1380h-190zM416 573h418l-138 398q-29 84 -71 252h-4q-47 -184 -70 -250zM442 1473q-43 0 -70.5 30.5t-27.5 73.5t28.5 72.5t71.5 29.5t71 -29.5t28 -72.5q0 -45 -28 -74.5t-73 -29.5zM823 1473q-43 0 -70.5 30.5
t-27.5 73.5t29.5 72.5t72.5 29.5t71 -29.5t28 -72.5q0 -45 -28 -74.5t-75 -29.5z" />
    <glyph glyph-name="Aring" unicode="&#xc5;" horiz-adv-x="1253" 
d="M868 434h-489l-143 -434h-185l471 1380h213l471 -1380h-190zM416 573h418l-138 398q-29 84 -71 252h-4q-47 -184 -70 -250zM633 1798q90 0 145.5 -53t55.5 -133q0 -78 -57.5 -129t-145.5 -51q-90 0 -147.5 52t-57.5 128q0 80 56.5 133t150.5 53zM627 1724
q-45 0 -71 -32.5t-26 -79.5q0 -41 28 -73t71 -32t70.5 31t27.5 78q0 45 -27.5 76.5t-72.5 31.5z" />
    <glyph glyph-name="AE" unicode="&#xc6;" horiz-adv-x="1613" 
d="M182 0h-184l631 1380h864l-2 -149h-586l53 -440h515v-148h-492l61 -493h506l-2 -150h-657l-62 485h-424zM463 631h344l-45 397q-20 164 -25 223h-8q-20 -57 -88 -217z" />
    <glyph glyph-name="Ccedilla" unicode="&#xc7;" horiz-adv-x="1198" 
d="M1085 186l35 -141q-117 -63 -358 -65l-51 -82q61 -12 102 -52.5t41 -99.5q0 -84 -60.5 -125t-150.5 -41q-82 0 -145 35l28 92q47 -29 113 -29q88 0 88 64q0 68 -160 88l86 156q-262 31 -420.5 210t-158.5 482q0 326 199.5 525.5t523.5 199.5q213 0 325 -62l-43 -145
q-119 57 -278 57q-246 0 -392.5 -150.5t-146.5 -418.5q0 -258 140.5 -406.5t390.5 -148.5q171 0 292 57z" />
    <glyph glyph-name="Egrave" unicode="&#xc8;" horiz-adv-x="1007" 
d="M868 795v-148h-534v-497h598v-150h-778v1380h747v-149h-567v-436h534zM244 1694h217l190 -238h-145z" />
    <glyph glyph-name="Eacute" unicode="&#xc9;" horiz-adv-x="1007" 
d="M868 795v-148h-534v-497h598v-150h-778v1380h747v-149h-567v-436h534zM618 1694h218l-263 -240h-145z" />
    <glyph glyph-name="Ecircumflex" unicode="&#xca;" horiz-adv-x="1007" 
d="M868 795v-148h-534v-497h598v-150h-778v1380h747v-149h-567v-436h534zM457 1688h137l215 -234h-152l-129 141h-4l-131 -141h-145z" />
    <glyph glyph-name="Edieresis" unicode="&#xcb;" horiz-adv-x="1007" 
d="M870 795v-148h-536v-497h600v-150h-780v1380h747v-149h-567v-436h536zM332 1477q-43 0 -71 30.5t-28 73.5t29 72.5t72 29.5t70.5 -29.5t27.5 -72.5q0 -45 -27.5 -74.5t-72.5 -29.5zM711 1477q-43 0 -71 30.5t-28 73.5t30 72.5t73 29.5t70.5 -29.5t27.5 -72.5
q0 -45 -27.5 -74.5t-74.5 -29.5z" />
    <glyph glyph-name="Igrave" unicode="&#xcc;" horiz-adv-x="489" 
d="M154 1380h180v-1380h-180v1380zM-51 1694h217l190 -238h-145z" />
    <glyph glyph-name="Iacute" unicode="&#xcd;" horiz-adv-x="489" 
d="M154 1380h180v-1380h-180v1380zM328 1694h217l-262 -240h-146z" />
    <glyph glyph-name="Icircumflex" unicode="&#xce;" horiz-adv-x="489" 
d="M154 1380h180v-1380h-180v1380zM174 1688h137l215 -234h-151l-129 141h-4l-131 -141h-146z" />
    <glyph glyph-name="Idieresis" unicode="&#xcf;" horiz-adv-x="489" 
d="M154 1380h180v-1380h-180v1380zM55 1477q-43 0 -70.5 30.5t-27.5 73.5t28.5 72.5t71.5 29.5t71 -29.5t28 -72.5q0 -45 -28 -74.5t-73 -29.5zM434 1477q-43 0 -70.5 30.5t-27.5 73.5t29.5 72.5t72.5 29.5t71 -29.5t28 -72.5q0 -45 -28 -74.5t-75 -29.5z" />
    <glyph glyph-name="Eth" unicode="&#xd0;" horiz-adv-x="1374" 
d="M-2 629v143h168v594q180 31 379 31q375 0 557 -172q197 -174 196 -502q0 -336 -198 -539q-203 -199 -611 -198q-166 0 -323 14v629h-168zM713 772v-143h-369v-492q59 -8 178 -8q287 0 437.5 152.5t150.5 439.5q2 254 -139.5 394t-417.5 140q-125 0 -209 -18v-465h369z
" />
    <glyph glyph-name="Ntilde" unicode="&#xd1;" horiz-adv-x="1347" 
d="M324 0h-168v1380h196l441 -698q160 -258 245 -449l6 3q-20 231 -20 567v577h168v-1380h-180l-439 700q-172 272 -256 461l-6 -2q12 -209 13 -569v-590zM526 1464h-96q-2 94 36 151.5t103 57.5q43 0 121 -41q66 -37 98 -37q25 0 38.5 16.5t17.5 63.5h94q4 -199 -137 -198
q-47 0 -125 39q-74 39 -96 38q-44 0 -54 -90z" />
    <glyph glyph-name="Ograve" unicode="&#xd2;" horiz-adv-x="1411" 
d="M713 1405q283 0 452.5 -194.5t169.5 -505.5q0 -342 -182 -535t-459 -193q-274 0 -447 195t-173 508q0 326 179 525.5t460 199.5zM707 1260q-211 0 -328 -167t-117 -409q0 -233 120 -397t323 -164q205 0 323.5 164t118.5 409q0 227 -115.5 395.5t-324.5 168.5zM408 1698
h217l190 -238h-145z" />
    <glyph glyph-name="Oacute" unicode="&#xd3;" horiz-adv-x="1411" 
d="M713 1405q283 0 452.5 -194.5t169.5 -505.5q0 -342 -182 -535t-459 -193q-274 0 -447 195t-173 508q0 326 179 525.5t460 199.5zM707 1260q-211 0 -328 -167t-117 -409q0 -233 120 -397t323 -164q205 0 323.5 164t118.5 409q0 227 -115.5 395.5t-324.5 168.5zM786 1698
h218l-263 -240h-145z" />
    <glyph glyph-name="Ocircumflex" unicode="&#xd4;" horiz-adv-x="1411" 
d="M713 1405q283 0 452.5 -194.5t169.5 -505.5q0 -342 -182 -535t-459 -193q-274 0 -447 195t-173 508q0 326 179 525.5t460 199.5zM707 1260q-211 0 -328 -167t-117 -409q0 -233 120 -397t323 -164q205 0 323.5 164t118.5 409q0 227 -115.5 395.5t-324.5 168.5zM633 1694
h137l215 -234h-151l-129 142h-5l-131 -142h-145z" />
    <glyph glyph-name="Otilde" unicode="&#xd5;" horiz-adv-x="1411" 
d="M713 1405q283 0 452.5 -194.5t169.5 -505.5q0 -342 -182 -535t-459 -193q-274 0 -447 195t-173 508q0 326 179 525.5t460 199.5zM707 1260q-211 0 -328 -167t-117 -409q0 -233 120 -397t323 -164q205 0 323.5 164t118.5 409q0 227 -115.5 395.5t-324.5 168.5zM547 1470
h-96q-2 92 35.5 149.5t103.5 57.5q43 0 121 -41q66 -37 98 -37q25 0 38 16.5t17 63.5h94q4 -199 -137 -198q-47 0 -125 39q-74 39 -96 39q-43 -1 -53 -89z" />
    <glyph glyph-name="Odieresis" unicode="&#xd6;" horiz-adv-x="1411" 
d="M713 1405q283 0 452.5 -194.5t169.5 -505.5q0 -342 -182 -535t-459 -193q-274 0 -447 195t-173 508q0 326 179 525.5t460 199.5zM707 1260q-211 0 -328 -167t-117 -409q0 -233 120 -397t323 -164q205 0 323.5 164t118.5 409q0 227 -115.5 395.5t-324.5 168.5zM514 1477
q-43 0 -70.5 30.5t-27.5 73.5t28.5 72.5t71.5 29.5t70.5 -29.5t27.5 -72.5q0 -45 -27.5 -74.5t-72.5 -29.5zM893 1477q-43 0 -70.5 30.5t-27.5 73.5t29.5 72.5t72.5 29.5t70.5 -29.5t27.5 -72.5q0 -45 -27.5 -74.5t-74.5 -29.5z" />
    <glyph glyph-name="multiply" unicode="&#xd7;" horiz-adv-x="1220" 
d="M82 987l90 90l438 -448l439 448l90 -90l-441 -448l441 -449l-90 -90l-439 449l-438 -449l-90 90l438 449z" />
    <glyph glyph-name="Oslash" unicode="&#xd8;" horiz-adv-x="1411" 
d="M229 -88l-100 82l127 178q-182 199 -182 512q0 324 180 522.5t457 198.5q197 0 344 -111l121 166l108 -74l-127 -176q178 -195 178 -508q0 -344 -182 -534.5t-446 -190.5q-197 0 -349 111zM360 324l607 841q-113 96 -260 97q-213 0 -332 -168t-119 -402q0 -197 100 -370z
M1051 1057l-605 -838q104 -98 259 -98q207 0 327.5 166t120.5 409q0 201 -96 361h-6z" />
    <glyph glyph-name="Ugrave" unicode="&#xd9;" horiz-adv-x="1325" 
d="M154 1380h180v-819q0 -221 88 -329.5t233 -108.5q158 0 247 108.5t89 329.5v819h180v-807q0 -303 -142 -449.5t-380 -146.5q-227 0 -361 142.5t-134 447.5v813zM375 1694h217l190 -238h-145z" />
    <glyph glyph-name="Uacute" unicode="&#xda;" horiz-adv-x="1325" 
d="M154 1380h180v-819q0 -221 88 -329.5t233 -108.5q158 0 247 108.5t89 329.5v819h180v-807q0 -303 -142 -449.5t-380 -146.5q-227 0 -361 142.5t-134 447.5v813zM752 1694h217l-262 -240h-146z" />
    <glyph glyph-name="Ucircumflex" unicode="&#xdb;" horiz-adv-x="1325" 
d="M154 1380h180v-819q0 -221 88 -329.5t233 -108.5q158 0 247 108.5t89 329.5v819h180v-807q0 -303 -142 -449.5t-380 -146.5q-227 0 -361 142.5t-134 447.5v813zM604 1688h137l215 -234h-151l-129 141h-4l-131 -141h-146z" />
    <glyph glyph-name="Udieresis" unicode="&#xdc;" horiz-adv-x="1325" 
d="M154 1380h180v-819q0 -221 88 -329.5t233 -108.5q158 0 247 108.5t89 329.5v819h180v-807q0 -303 -142 -449.5t-380 -146.5q-227 0 -361 142.5t-134 447.5v813zM475 1477q-43 0 -70.5 30.5t-27.5 73.5t28.5 72.5t71.5 29.5t70.5 -29.5t27.5 -72.5q0 -45 -27.5 -74.5
t-72.5 -29.5zM856 1477q-43 0 -70.5 30.5t-27.5 73.5t29.5 72.5t72.5 29.5t70.5 -29.5t27.5 -72.5q0 -45 -27.5 -74.5t-74.5 -29.5z" />
    <glyph glyph-name="Yacute" unicode="&#xdd;" horiz-adv-x="1107" 
d="M643 0h-180v586l-438 794h204l195 -381q113 -231 137 -284h4q25 57 140 284l198 381h201l-461 -792v-588zM655 1683h217l-262 -239h-145z" />
    <glyph glyph-name="Thorn" unicode="&#xde;" horiz-adv-x="1087" 
d="M156 0v1380h176v-268q78 14 196 14q240 0 365 -112q113 -102 113 -266q0 -213 -142.5 -326t-376.5 -113q-84 0 -155 10v-319h-176zM332 969v-504q57 -12 153 -12q164 0 253 73.5t89 200.5q0 129 -85 193.5t-230 64.5q-114 0 -180 -16z" />
    <glyph glyph-name="germandbls" unicode="&#xdf;" horiz-adv-x="1122" 
d="M330 0h-180v926q0 315 147 446q113 104 299 105q154 0 259.5 -92.5t105.5 -254.5q0 -98 -50 -167q-145 -61 -145 -166q0 -33 14.5 -65t32.5 -52.5t57 -61.5q53 -53 82 -86.5t56.5 -96t27.5 -132.5q0 -145 -99 -235.5t-267 -90.5q-133 0 -217 43l32 138q82 -41 172 -41
q94 0 147.5 49t53.5 123q0 106 -110 211q-80 76 -120 135t-40 137q0 164 184 252q16 39 16 88q0 104 -58 163.5t-155 59.5q-123 0 -184 -94t-61 -307v-934z" />
    <glyph glyph-name="agrave" unicode="&#xe0;" horiz-adv-x="987" 
d="M846 608v-370q0 -143 14 -238h-162l-14 125h-6q-45 -63 -124 -105.5t-179 -42.5q-143 0 -223 84t-80 201q0 180 154.5 275.5t441.5 93.5v20q0 37 -7.5 71t-29 73t-69.5 61.5t-120 22.5q-152 0 -260 -74l-41 121q137 86 328 86q207 0 292 -115t85 -289zM672 334v172
q-420 8 -420 -223q0 -84 48 -128t120 -44q92 0 155.5 48t88.5 117q8 27 8 58zM195 1419h196l180 -293h-127z" />
    <glyph glyph-name="aacute" unicode="&#xe1;" horiz-adv-x="987" 
d="M846 608v-370q0 -143 14 -238h-162l-14 125h-6q-45 -63 -124 -105.5t-179 -42.5q-143 0 -223 84t-80 201q0 180 154.5 275.5t441.5 93.5v20q0 37 -7.5 71t-29 73t-69.5 61.5t-120 22.5q-152 0 -260 -74l-41 121q137 86 328 86q207 0 292 -115t85 -289zM672 334v172
q-420 8 -420 -223q0 -84 48 -128t120 -44q92 0 155.5 48t88.5 117q8 27 8 58zM563 1419h199l-250 -293h-127z" />
    <glyph glyph-name="acircumflex" unicode="&#xe2;" horiz-adv-x="987" 
d="M846 608v-370q0 -143 14 -238h-162l-14 125h-6q-45 -63 -124 -105.5t-179 -42.5q-143 0 -223 84t-80 201q0 180 154.5 275.5t441.5 93.5v20q0 37 -7.5 71t-29 73t-69.5 61.5t-120 22.5q-152 0 -260 -74l-41 121q137 86 328 86q207 0 292 -115t85 -289zM672 334v172
q-420 8 -420 -223q0 -84 48 -128t120 -44q92 0 155.5 48t88.5 117q8 27 8 58zM420 1419h125l196 -293h-137l-119 193h-4l-119 -193h-135z" />
    <glyph glyph-name="atilde" unicode="&#xe3;" horiz-adv-x="987" 
d="M846 608v-370q0 -143 14 -238h-162l-14 125h-6q-45 -63 -124 -105.5t-179 -42.5q-143 0 -223 84t-80 201q0 180 154.5 275.5t441.5 93.5v20q0 37 -7.5 71t-29 73t-69.5 61.5t-120 22.5q-152 0 -260 -74l-41 121q137 86 328 86q207 0 292 -115t85 -289zM672 334v172
q-420 8 -420 -223q0 -84 48 -128t120 -44q92 0 155.5 48t88.5 117q8 27 8 58zM334 1161h-98q-2 98 34.5 155.5t104.5 57.5q41 0 127 -45q61 -35 86 -35q51 0 57 86h96q4 -207 -139 -206q-45 0 -127 43q-61 37 -88 36q-47 0 -53 -92z" />
    <glyph glyph-name="adieresis" unicode="&#xe4;" horiz-adv-x="987" 
d="M846 608v-370q0 -143 14 -238h-162l-14 125h-6q-45 -63 -124 -105.5t-179 -42.5q-143 0 -223 84t-80 201q0 180 154.5 275.5t441.5 93.5v20q0 37 -7.5 71t-29 73t-69.5 61.5t-120 22.5q-152 0 -260 -74l-41 121q137 86 328 86q207 0 292 -115t85 -289zM672 334v172
q-420 8 -420 -223q0 -84 48 -128t120 -44q92 0 155.5 48t88.5 117q8 27 8 58zM303 1167q-43 0 -71.5 31t-28.5 74t29.5 73.5t74.5 30.5q41 0 70 -29.5t29 -74.5q0 -43 -29 -74t-74 -31zM682 1167q-43 0 -71.5 31t-28.5 74t29.5 73.5t72.5 30.5t71.5 -29.5t28.5 -74.5
q0 -43 -28.5 -74t-73.5 -31z" />
    <glyph glyph-name="aring" unicode="&#xe5;" horiz-adv-x="987" 
d="M846 608v-370q0 -143 14 -238h-162l-14 125h-6q-45 -63 -124 -105.5t-179 -42.5q-143 0 -223 84t-80 201q0 180 154.5 275.5t441.5 93.5v20q0 37 -7.5 71t-29 73t-69.5 61.5t-120 22.5q-152 0 -260 -74l-41 121q137 86 328 86q207 0 292 -115t85 -289zM672 334v172
q-420 8 -420 -223q0 -84 48 -128t120 -44q92 0 155.5 48t88.5 117q8 27 8 58zM492 1100q-90 0 -148.5 53t-58.5 133q0 82 57 137.5t152 55.5q90 0 146 -54.5t56 -138.5q0 -80 -58 -133t-146 -53zM492 1176q47 0 75.5 32.5t28.5 79.5q0 49 -29.5 82t-77 33t-74 -34t-26.5 -83
q0 -43 29 -76.5t74 -33.5z" />
    <glyph glyph-name="ae" unicode="&#xe6;" horiz-adv-x="1583" 
d="M1503 477h-665q-4 -172 84 -266t233 -94q152 0 270 55l33 -127q-129 -68 -325 -68q-131 0 -232.5 57.5t-144.5 162.5h-6q-47 -102 -143.5 -161t-223.5 -59q-147 0 -228 83t-81 200q0 174 155.5 268.5t440.5 89.5v41q0 25 -8.5 57t-30 70.5t-71.5 65.5t-120 27
q-147 0 -254 -74l-43 117q139 90 310 90q252 0 319 -209h4q49 98 139.5 153.5t206.5 55.5q106 0 187.5 -47t121 -121t59 -145.5t19.5 -141.5q0 -53 -6 -80zM674 352v146q-422 8 -422 -224q0 -76 49 -119.5t123 -43.5q92 -2 154.5 47t85.5 123q10 36 10 71zM838 606h499
q2 57 -17.5 117.5t-75.5 111t-140 50.5q-123 0 -191.5 -88.5t-74.5 -190.5z" />
    <glyph glyph-name="ccedilla" unicode="&#xe7;" horiz-adv-x="915" 
d="M825 172l31 -135q-111 -55 -258 -57l-51 -82q61 -12 102 -51.5t41 -98.5q0 -86 -60.5 -128t-152.5 -42q-84 0 -143 35l31 92q47 -29 112 -29q88 0 88 66q-2 70 -159 86l86 158q-188 23 -301 159t-113 340q0 229 146.5 378t385.5 149q152 0 250 -54l-41 -137
q-90 47 -209 47q-164 0 -257 -106.5t-93 -267.5q0 -168 97.5 -268.5t246.5 -100.5q119 0 221 47z" />
    <glyph glyph-name="egrave" unicode="&#xe8;" horiz-adv-x="1026" 
d="M946 463h-696q2 -174 97 -259t243 -85q158 0 274 51l33 -129q-141 -63 -332 -64q-225 0 -356 137.5t-131 364.5q0 229 127 381t338 152q115 0 199.5 -46t127.5 -120t62.5 -148.5t19.5 -150.5q0 -53 -6 -84zM252 592h526q2 109 -56 200t-194 91q-125 0 -194.5 -89
t-81.5 -202zM276 1419h197l180 -293h-127z" />
    <glyph glyph-name="eacute" unicode="&#xe9;" horiz-adv-x="1026" 
d="M946 463h-696q2 -174 97 -259t243 -85q158 0 274 51l33 -129q-141 -63 -332 -64q-225 0 -356 137.5t-131 364.5q0 229 127 381t338 152q115 0 199.5 -46t127.5 -120t62.5 -148.5t19.5 -150.5q0 -53 -6 -84zM252 592h526q2 109 -56 200t-194 91q-125 0 -194.5 -89
t-81.5 -202zM623 1419h196l-250 -293h-127z" />
    <glyph glyph-name="ecircumflex" unicode="&#xea;" horiz-adv-x="1026" 
d="M946 463h-696q2 -174 97 -259t243 -85q158 0 274 51l33 -129q-141 -63 -332 -64q-225 0 -356 137.5t-131 364.5q0 229 127 381t338 152q115 0 199.5 -46t127.5 -120t62.5 -148.5t19.5 -150.5q0 -53 -6 -84zM252 592h526q2 109 -56 200t-194 91q-125 0 -194.5 -89
t-81.5 -202zM473 1419h125l197 -293h-138l-118 193h-4l-119 -193h-135z" />
    <glyph glyph-name="edieresis" unicode="&#xeb;" horiz-adv-x="1026" 
d="M946 463h-696q2 -174 97 -259t243 -85q158 0 274 51l33 -129q-141 -63 -332 -64q-225 0 -356 137.5t-131 364.5q0 229 127 381t338 152q115 0 199.5 -46t127.5 -120t62.5 -148.5t19.5 -150.5q0 -53 -6 -84zM252 592h526q2 109 -56 200t-194 91q-125 0 -194.5 -89
t-81.5 -202zM358 1167q-43 0 -71.5 31t-28.5 74t29.5 73.5t74.5 30.5q41 0 70 -29.5t29 -74.5q0 -43 -29 -74t-74 -31zM737 1167q-43 0 -71.5 31t-28.5 74t29.5 73.5t72.5 30.5t72 -29.5t29 -74.5q0 -43 -29 -74t-74 -31z" />
    <glyph glyph-name="igrave" unicode="&#xec;" horiz-adv-x="479" 
d="M330 0h-180v991h180v-991zM-55 1419h196l181 -293h-127z" />
    <glyph glyph-name="iacute" unicode="&#xed;" horiz-adv-x="479" 
d="M330 0h-180v991h180v-991zM319 1419h197l-250 -293h-127z" />
    <glyph glyph-name="icircumflex" unicode="&#xee;" horiz-adv-x="479" 
d="M330 0h-180v991h180v-991zM176 1419h125l197 -293h-138l-118 193h-4l-119 -193h-135z" />
    <glyph glyph-name="idieresis" unicode="&#xef;" horiz-adv-x="479" 
d="M330 0h-180v991h180v-991zM49 1167q-43 0 -71.5 31t-28.5 74t29.5 73.5t74.5 30.5q41 0 70 -29.5t29 -74.5q0 -43 -29 -74t-74 -31zM428 1167q-43 0 -71.5 31t-28.5 74t29.5 73.5t72.5 30.5t71.5 -29.5t28.5 -74.5q0 -43 -28.5 -74t-73.5 -31z" />
    <glyph glyph-name="eth" unicode="&#xf0;" horiz-adv-x="1107" 
d="M549 113q133 0 213 107.5t80 277.5q0 188 -70 274q-84 96 -217 96q-145 0 -219 -118.5t-74 -264.5q0 -158 82 -265t205 -107zM238 1038l-39 88l237 113q-84 63 -213 123l80 113q150 -66 287 -166l260 125l45 -91l-217 -102q170 -139 260 -326q88 -176 88 -399
q0 -137 -41 -243.5t-110.5 -169t-152.5 -94.5t-175 -32q-205 0 -337 138.5t-132 368t135 367.5t322 140q135 0 231 -88l4 6q-92 150 -242 265z" />
    <glyph glyph-name="ntilde" unicode="&#xf1;" horiz-adv-x="1136" 
d="M150 0v723q0 160 -9 268h160l10 -164h4q41 78 127 131.5t201 53.5q57 0 113.5 -19.5t112 -63.5t90 -131t34.5 -208v-590h-180v571q0 131 -55.5 212t-173.5 81q-84 0 -149.5 -53t-92.5 -131q-12 -33 -12 -84v-596h-180zM416 1161h-99q-2 98 35 155.5t105 57.5
q41 0 127 -45q61 -35 86 -35q49 0 55 86h96q4 -207 -139 -206q-47 0 -125 43q-68 37 -88 36q-47 0 -53 -92z" />
    <glyph glyph-name="ograve" unicode="&#xf2;" horiz-adv-x="1124" 
d="M569 1012q213 0 345.5 -141.5t132.5 -366.5q0 -256 -147.5 -391.5t-346.5 -135.5q-205 0 -340 140.5t-135 369.5q0 240 140 382.5t351 142.5zM565.5 877q-147.5 0 -225.5 -114t-78 -269q0 -164 84 -272.5t215 -108.5q129 0 215 109.5t86 275.5q0 145 -74.5 262t-222 117z
M297 1419h197l180 -293h-127z" />
    <glyph glyph-name="oacute" unicode="&#xf3;" horiz-adv-x="1124" 
d="M569 1012q213 0 345.5 -141.5t132.5 -366.5q0 -256 -147.5 -391.5t-346.5 -135.5q-205 0 -340 140.5t-135 369.5q0 240 140 382.5t351 142.5zM565.5 877q-147.5 0 -225.5 -114t-78 -269q0 -164 84 -272.5t215 -108.5q129 0 215 109.5t86 275.5q0 145 -74.5 262t-222 117z
M633 1419h198l-249 -293h-127z" />
    <glyph glyph-name="ocircumflex" unicode="&#xf4;" horiz-adv-x="1124" 
d="M569 1012q213 0 345.5 -141.5t132.5 -366.5q0 -256 -147.5 -391.5t-346.5 -135.5q-205 0 -340 140.5t-135 369.5q0 240 140 382.5t351 142.5zM565.5 877q-147.5 0 -225.5 -114t-78 -269q0 -164 84 -272.5t215 -108.5q129 0 215 109.5t86 275.5q0 145 -74.5 262t-222 117z
M498 1419h125l196 -293h-137l-121 193h-4l-117 -193h-135z" />
    <glyph glyph-name="otilde" unicode="&#xf5;" horiz-adv-x="1124" 
d="M569 1012q213 0 345.5 -141.5t132.5 -366.5q0 -256 -147.5 -391.5t-346.5 -135.5q-205 0 -340 140.5t-135 369.5q0 240 140 382.5t351 142.5zM565.5 877q-147.5 0 -225.5 -114t-78 -269q0 -164 84 -272.5t215 -108.5q129 0 215 109.5t86 275.5q0 145 -74.5 262t-222 117z
M408 1161h-99q-2 98 35 155.5t105 57.5q39 0 129 -45q61 -35 86 -35q49 0 55 86h96q4 -207 -139 -206q-45 0 -127 43q-61 37 -88 36q-47 0 -53 -92z" />
    <glyph glyph-name="odieresis" unicode="&#xf6;" horiz-adv-x="1124" 
d="M569 1012q213 0 345.5 -141.5t132.5 -366.5q0 -256 -147.5 -391.5t-346.5 -135.5q-205 0 -340 140.5t-135 369.5q0 240 140 382.5t351 142.5zM565.5 877q-147.5 0 -225.5 -114t-78 -269q0 -164 84 -272.5t215 -108.5q129 0 215 109.5t86 275.5q0 145 -74.5 262t-222 117z
M371 1167q-43 0 -72 31t-29 74t30 73.5t75 30.5q41 0 69.5 -29.5t28.5 -74.5q0 -43 -28.5 -74t-73.5 -31zM750 1167q-43 0 -72 31t-29 74t30 73.5t73 30.5t71.5 -29.5t28.5 -74.5q0 -43 -28.5 -74t-73.5 -31z" />
    <glyph glyph-name="divide" unicode="&#xf7;" horiz-adv-x="1220" 
d="M608 793q-47 0 -76.5 31.5t-29.5 80.5q0 51 30.5 83t77.5 32q49 0 79 -32t30 -83q0 -49 -31 -80.5t-80 -31.5zM1139 485h-1057v123h1057v-123zM608 74q-47 0 -76.5 31.5t-29.5 80.5q0 51 30.5 83t77.5 32q49 0 79 -31.5t30 -83.5q0 -49 -31 -80.5t-80 -31.5z" />
    <glyph glyph-name="oslash" unicode="&#xf8;" horiz-adv-x="1124" 
d="M567 1012q141 0 250 -70l86 123l80 -55l-88 -129q152 -145 152 -379q0 -254 -145.5 -389.5t-338.5 -135.5q-145 0 -252 70l-90 -125l-76 62l86 122q-154 147 -153 383q0 240 139 381.5t350 141.5zM330 244l405 573q-70 59 -174 60q-152 0 -229.5 -116t-77.5 -267
q0 -147 72 -248zM797 739l-406 -569q70 -57 166 -57q139 0 226 107.5t87 275.5q0 139 -69 243h-4z" />
    <glyph glyph-name="ugrave" unicode="&#xf9;" horiz-adv-x="1128" 
d="M979 991v-719q0 -168 8 -272h-160l-10 162h-4q-41 -74 -125 -129.5t-203 -55.5q-63 0 -119.5 20.5t-108.5 67t-83 135.5t-31 212v579h181v-547q0 -317 221 -317q84 0 147.5 49t89.5 117q16 39 17 92v606h180zM287 1419h196l181 -293h-127z" />
    <glyph glyph-name="uacute" unicode="&#xfa;" horiz-adv-x="1128" 
d="M979 991v-719q0 -168 8 -272h-160l-10 162h-4q-41 -74 -125 -129.5t-203 -55.5q-63 0 -119.5 20.5t-108.5 67t-83 135.5t-31 212v579h181v-547q0 -317 221 -317q84 0 147.5 49t89.5 117q16 39 17 92v606h180zM657 1419h197l-250 -293h-127z" />
    <glyph glyph-name="ucircumflex" unicode="&#xfb;" horiz-adv-x="1128" 
d="M979 991v-719q0 -168 8 -272h-160l-10 162h-4q-41 -74 -125 -129.5t-203 -55.5q-63 0 -119.5 20.5t-108.5 67t-83 135.5t-31 212v579h181v-547q0 -317 221 -317q84 0 147.5 49t89.5 117q16 39 17 92v606h180zM500 1419h125l196 -293h-137l-119 193h-4l-119 -193h-135z
" />
    <glyph glyph-name="udieresis" unicode="&#xfc;" horiz-adv-x="1128" 
d="M979 991v-719q0 -168 8 -272h-160l-10 162h-4q-41 -74 -125 -129.5t-203 -55.5q-63 0 -119.5 20.5t-108.5 67t-83 135.5t-31 212v579h181v-547q0 -317 221 -317q84 0 147.5 49t89.5 117q16 39 17 92v606h180zM379 1167q-43 0 -71.5 31t-28.5 74t29.5 73.5t74.5 30.5
q41 0 69.5 -29.5t28.5 -74.5q0 -43 -28.5 -74t-73.5 -31zM758 1167q-43 0 -72 31t-29 74t30 73.5t73 30.5t71.5 -29.5t28.5 -74.5q0 -43 -28.5 -74t-73.5 -31z" />
    <glyph glyph-name="yacute" unicode="&#xfd;" horiz-adv-x="964" 
d="M18 991h197l215 -585q37 -96 66 -203h4q2 6 25.5 85t37.5 122l197 581h190l-270 -706q-100 -262 -175 -401.5t-165 -219.5q-113 -94 -221 -115l-45 150q86 27 157 88q92 72 152 201q14 33 14 43q0 16 -14 47zM584 1419h198l-250 -293h-126z" />
    <glyph glyph-name="thorn" unicode="&#xfe;" horiz-adv-x="1165" 
d="M150 1370h178v-536h4q111 178 338 178q178 2 299 -138.5t121 -365.5q0 -256 -134.5 -393.5t-318.5 -137.5q-205 0 -305 156h-4v-539h-178v1776zM328 573v-182q0 -53 18 -90q31 -84 102.5 -133t161.5 -49q135 0 216 104.5t81 280.5q0 154 -78.5 259t-214.5 105
q-88 0 -161.5 -53t-104.5 -141q-20 -58 -20 -101z" />
    <glyph glyph-name="ydieresis" unicode="&#xff;" horiz-adv-x="964" 
d="M18 991h197l215 -585q37 -96 66 -203h4q2 6 25.5 85t37.5 122l197 581h190l-270 -706q-100 -262 -175 -401.5t-165 -219.5q-113 -94 -221 -115l-45 150q86 27 157 88q92 72 152 201q14 33 14 43q0 16 -14 47zM315 1167q-43 0 -71.5 31t-28.5 74t29.5 73.5t74.5 30.5
q41 0 70 -29.5t29 -74.5q0 -43 -29 -74t-74 -31zM694 1167q-43 0 -71.5 31t-28.5 74t29.5 73.5t72.5 30.5t72 -29.5t29 -74.5q0 -43 -29 -74t-74 -31z" />
    <glyph glyph-name="Amacron" unicode="&#x100;" horiz-adv-x="1253" 
d="M868 434h-489l-143 -434h-185l471 1380h213l471 -1380h-190zM416 573h418l-138 398q-29 84 -71 252h-4q-47 -184 -70 -250zM379 1614h491v-113h-491v113z" />
    <glyph glyph-name="amacron" unicode="&#x101;" horiz-adv-x="987" 
d="M846 608v-370q0 -143 14 -238h-162l-14 125h-6q-45 -63 -124 -105.5t-179 -42.5q-143 0 -223 84t-80 201q0 180 154.5 275.5t441.5 93.5v20q0 37 -7.5 71t-29 73t-69.5 61.5t-120 22.5q-152 0 -260 -74l-41 121q137 86 328 86q207 0 292 -115t85 -289zM672 334v172
q-420 8 -420 -223q0 -84 48 -128t120 -44q92 0 155.5 48t88.5 117q8 27 8 58zM264 1317h461v-117h-461v117z" />
    <glyph glyph-name="Abreve" unicode="&#x102;" horiz-adv-x="1253" 
d="M868 434h-489l-143 -434h-185l471 1380h213l471 -1380h-190zM416 573h418l-138 398q-29 84 -71 252h-4q-47 -184 -70 -250zM371 1673h106q23 -100 148 -100q131 0 149 100h105q-4 -96 -67.5 -156.5t-188.5 -60.5t-186.5 59.5t-65.5 157.5z" />
    <glyph glyph-name="abreve" unicode="&#x103;" horiz-adv-x="987" 
d="M846 608v-370q0 -143 14 -238h-162l-14 125h-6q-45 -63 -124 -105.5t-179 -42.5q-143 0 -223 84t-80 201q0 180 154.5 275.5t441.5 93.5v20q0 37 -7.5 71t-29 73t-69.5 61.5t-120 22.5q-152 0 -260 -74l-41 121q137 86 328 86q207 0 292 -115t85 -289zM672 334v172
q-420 8 -420 -223q0 -84 48 -128t120 -44q92 0 155.5 48t88.5 117q8 27 8 58zM240 1397h106q10 -63 48 -102.5t98 -39.5q70 0 106.5 41t42.5 101h107q0 -115 -70 -185.5t-184 -70.5q-127 0 -190.5 75t-63.5 181z" />
    <glyph glyph-name="Aogonek" unicode="&#x104;" horiz-adv-x="1253" 
d="M735 1380l473 -1380l-75 -4q-109 -109 -109 -191q0 -49 29.5 -77.5t74.5 -28.5q51 0 93 20l28 -92q-66 -49 -164 -49q-88 0 -140 46t-52 132q0 111 121 252l-146 426h-489l-141 -434h-187l471 1380h213zM416 573h418l-138 398q-29 84 -71 252h-4q-47 -184 -70 -250z" />
    <glyph glyph-name="aogonek" unicode="&#x105;" horiz-adv-x="987" 
d="M846 608v-370q0 -150 16 -238h-51q-80 -106 -80 -197q0 -102 98 -102q49 0 95 20l28 -94q-70 -49 -170 -49q-80 0 -131 46t-51 128q0 109 98 254l-14 119h-6q-45 -63 -124 -105.5t-179 -42.5q-143 0 -223 84t-80 201q0 180 154.5 275.5t441.5 93.5v20q0 37 -7.5 71
t-29 73t-69.5 61.5t-120 22.5q-152 0 -260 -74l-41 121q137 86 328 86q207 0 292 -115t85 -289zM672 334v172q-420 8 -420 -223q0 -84 48 -128t120 -44q92 0 155.5 48t88.5 117q8 25 8 58z" />
    <glyph glyph-name="Cacute" unicode="&#x106;" horiz-adv-x="1187" 
d="M1083 186l35 -143q-127 -66 -364 -66q-301 0 -490.5 184.5t-189.5 516.5q0 326 199.5 525.5t521.5 199.5q209 0 327 -62l-45 -145q-115 57 -276 57q-246 0 -392.5 -150.5t-146.5 -418.5q0 -256 140.5 -405.5t388.5 -149.5q173 0 292 57zM819 1698h217l-262 -240h-145z
" />
    <glyph glyph-name="cacute" unicode="&#x107;" horiz-adv-x="917" 
d="M825 170l31 -135q-121 -57 -285 -58q-223 0 -358 139.5t-135 366.5q0 231 146.5 380t385.5 149q152 0 250 -54l-41 -137q-90 47 -209 47q-164 0 -257 -107.5t-93 -266.5q0 -170 97.5 -270.5t246.5 -100.5q115 0 221 47zM618 1419h197l-250 -293h-127z" />
    <glyph glyph-name="Ccircumflex" unicode="&#x108;" horiz-adv-x="1187" 
d="M1083 186l35 -143q-127 -66 -364 -66q-301 0 -490.5 184.5t-189.5 516.5q0 326 199.5 525.5t521.5 199.5q209 0 327 -62l-45 -145q-115 57 -276 57q-246 0 -392.5 -150.5t-146.5 -418.5q0 -256 140.5 -405.5t388.5 -149.5q173 0 292 57zM643 1696h137l215 -234h-151
l-129 142h-4l-131 -142h-146z" />
    <glyph glyph-name="ccircumflex" unicode="&#x109;" horiz-adv-x="917" 
d="M825 170l31 -135q-121 -57 -285 -58q-223 0 -358 139.5t-135 366.5q0 231 146.5 380t385.5 149q152 0 250 -54l-41 -137q-90 47 -209 47q-164 0 -257 -107.5t-93 -266.5q0 -170 97.5 -270.5t246.5 -100.5q115 0 221 47zM469 1419h125l197 -293h-138l-121 193h-4
l-116 -193h-136z" />
    <glyph glyph-name="Cdotaccent" unicode="&#x10a;" horiz-adv-x="1187" 
d="M1083 186l35 -143q-127 -66 -364 -66q-301 0 -490.5 184.5t-189.5 516.5q0 326 199.5 525.5t521.5 199.5q209 0 327 -62l-45 -145q-115 57 -276 57q-246 0 -392.5 -150.5t-146.5 -418.5q0 -256 140.5 -405.5t388.5 -149.5q173 0 292 57zM713 1473q-43 0 -72 30.5
t-29 73.5q0 41 30 71.5t73 30.5q41 0 69.5 -30.5t28.5 -71.5q0 -43 -28.5 -73.5t-71.5 -30.5z" />
    <glyph glyph-name="cdotaccent" unicode="&#x10b;" horiz-adv-x="917" 
d="M825 170l31 -135q-121 -57 -285 -58q-223 0 -358 139.5t-135 366.5q0 231 146.5 380t385.5 149q152 0 250 -54l-41 -137q-90 47 -209 47q-164 0 -257 -107.5t-93 -266.5q0 -170 97.5 -270.5t246.5 -100.5q115 0 221 47zM541 1167q-43 0 -73 31t-30 74q0 45 31 75.5
t74 30.5t71.5 -30.5t28.5 -75.5q0 -43 -28.5 -74t-73.5 -31z" />
    <glyph glyph-name="Ccaron" unicode="&#x10c;" horiz-adv-x="1187" 
d="M1083 186l35 -143q-127 -66 -364 -66q-301 0 -490.5 184.5t-189.5 516.5q0 326 199.5 525.5t521.5 199.5q209 0 327 -62l-45 -145q-115 57 -276 57q-246 0 -392.5 -150.5t-146.5 -418.5q0 -256 140.5 -405.5t388.5 -149.5q173 0 292 57zM793 1460h-138l-215 234h152
l131 -142h4l129 142h145z" />
    <glyph glyph-name="ccaron" unicode="&#x10d;" horiz-adv-x="917" 
d="M825 170l31 -135q-121 -57 -285 -58q-223 0 -358 139.5t-135 366.5q0 231 146.5 380t385.5 149q152 0 250 -54l-41 -137q-90 47 -209 47q-164 0 -257 -107.5t-93 -266.5q0 -170 97.5 -270.5t246.5 -100.5q115 0 221 47zM602 1126h-129l-197 293h138l121 -194h4l120 194
h136z" />
    <glyph glyph-name="Dcaron" unicode="&#x10e;" horiz-adv-x="1363" 
d="M156 4v1356q180 31 379 31q371 0 559 -172q197 -178 196 -496q0 -338 -198 -537q-203 -199 -613 -198q-180 0 -323 16zM334 1231v-1092q59 -8 180 -8q285 0 436.5 152.5t151.5 433.5q2 250 -140.5 391t-418.5 141q-125 0 -209 -18zM700 1458h-137l-215 234h152l131 -142
h4l129 142h145z" />
    <glyph glyph-name="dcaron" unicode="&#x10f;" horiz-adv-x="1175" 
d="M825 1454h179v-1198q0 -121 8 -256h-160l-8 172h-6q-41 -86 -129 -140.5t-205 -54.5q-182 0 -304 140.5t-122 363.5q-2 240 128 385.5t316 145.5q109 0 185.5 -43t113.5 -107h4v592zM825 416v172q0 45 -8 76q-20 88 -91 147t-169 59q-137 0 -217 -107.5t-80 -273.5
q0 -158 77 -262t216 -104q92 0 166 58.5t98 156.5q8 33 8 78zM1171 1067l-75 61q74 84 73 183q0 78 -63 133l129 29q29 -18 51.5 -59.5t22.5 -90.5q-1 -145 -138 -256z" />
    <glyph glyph-name="Dcroat" unicode="&#x110;" horiz-adv-x="1374" 
d="M-2 629v143h168v594q180 31 379 31q375 0 557 -172q197 -174 196 -502q0 -336 -198 -539q-203 -199 -611 -198q-166 0 -323 14v629h-168zM713 772v-143h-369v-492q59 -8 178 -8q287 0 437.5 152.5t150.5 439.5q2 254 -139.5 394t-417.5 140q-125 0 -209 -18v-465h369z
" />
    <glyph glyph-name="dcroat" unicode="&#x111;" horiz-adv-x="1155" 
d="M1163 1130h-159v-874q0 -121 8 -256h-160l-8 172h-6q-41 -86 -129 -140.5t-205 -54.5q-182 0 -304 140.5t-122 363.5q-2 240 128 385.5t316 145.5q109 0 185.5 -43t113.5 -107h4v268h-403v113h403v211h179v-211h159v-113zM825 416v172q0 45 -8 76q-20 88 -91 147t-169 59
q-137 0 -217 -107.5t-80 -273.5q0 -158 77 -262t216 -104q92 0 166 58.5t98 156.5q8 33 8 78z" />
    <glyph glyph-name="Emacron" unicode="&#x112;" horiz-adv-x="1007" 
d="M868 795v-148h-534v-497h598v-150h-778v1380h747v-149h-567v-436h534zM285 1614h491v-113h-491v113z" />
    <glyph glyph-name="emacron" unicode="&#x113;" horiz-adv-x="1026" 
d="M946 463h-696q2 -174 97 -259t243 -85q158 0 274 51l33 -129q-141 -63 -332 -64q-225 0 -356 137.5t-131 364.5q0 229 127 381t338 152q115 0 199.5 -46t127.5 -120t62.5 -148.5t19.5 -150.5q0 -53 -6 -84zM252 592h526q2 109 -56 200t-194 91q-125 0 -194.5 -89
t-81.5 -202zM289 1317h461v-117h-461v117z" />
    <glyph glyph-name="Ebreve" unicode="&#x114;" horiz-adv-x="1007" 
d="M868 795v-148h-534v-497h598v-150h-778v1380h747v-149h-567v-436h534zM266 1690h107q23 -100 147 -101q131 0 150 101h104q-4 -96 -67.5 -156.5t-188.5 -60.5t-186.5 59.5t-65.5 157.5z" />
    <glyph glyph-name="ebreve" unicode="&#x115;" horiz-adv-x="1026" 
d="M946 463h-696q2 -174 97 -259t243 -85q158 0 274 51l33 -129q-141 -63 -332 -64q-225 0 -356 137.5t-131 364.5q0 229 127 381t338 152q115 0 199.5 -46t127.5 -120t62.5 -148.5t19.5 -150.5q0 -53 -6 -84zM252 592h526q2 109 -56 200t-194 91q-125 0 -194.5 -89
t-81.5 -202zM264 1397h107q10 -63 48 -102.5t97 -39.5q70 0 106.5 41t43.5 101h106q0 -115 -69.5 -185.5t-184.5 -70.5q-127 0 -190.5 75t-63.5 181z" />
    <glyph glyph-name="Edotaccent" unicode="&#x116;" horiz-adv-x="1007" 
d="M868 795v-148h-534v-497h598v-150h-778v1380h747v-149h-567v-436h534zM512 1477q-43 0 -71.5 30.5t-28.5 73.5q0 41 29.5 71.5t72.5 30.5q41 0 69.5 -30.5t28.5 -71.5q0 -43 -28.5 -73.5t-71.5 -30.5z" />
    <glyph glyph-name="edotaccent" unicode="&#x117;" horiz-adv-x="1026" 
d="M946 463h-696q2 -174 97 -259t243 -85q158 0 274 51l33 -129q-141 -63 -332 -64q-225 0 -356 137.5t-131 364.5q0 229 127 381t338 152q115 0 199.5 -46t127.5 -120t62.5 -148.5t19.5 -150.5q0 -53 -6 -84zM252 592h526q2 109 -56 200t-194 91q-125 0 -194.5 -89
t-81.5 -202zM520 1167q-43 0 -72.5 31t-29.5 74q0 45 30.5 75.5t73.5 30.5t72 -30.5t29 -75.5q0 -43 -29 -74t-74 -31z" />
    <glyph glyph-name="Eogonek" unicode="&#x118;" horiz-adv-x="1007" 
d="M913 -283l29 -96q-70 -43 -166 -43q-88 0 -138 43t-50 123q0 76 50 144.5t116 111.5h-600v1380h747v-149h-567v-436h534v-148h-534v-497h598v-150q-4 0 -15.5 -1t-17.5 -1q-70 -43 -119 -102.5t-49 -112.5q0 -39 25.5 -60.5t66.5 -21.5q49 0 90 16z" />
    <glyph glyph-name="eogonek" unicode="&#x119;" horiz-adv-x="1026" 
d="M788 -279l29 -92q-68 -49 -166 -49q-84 0 -133 42t-49 118q0 70 45 134.5t102 102.5v3q-8 0 -26.5 -1.5t-28.5 -1.5q-223 2 -353 139.5t-130 362.5q0 229 127 381t338 152q115 0 199.5 -46t127.5 -120t62.5 -148.5t19.5 -150.5q0 -55 -6 -84h-696q2 -174 97 -259t243 -85
q154 0 274 51l31 -129q-2 -2 -92 -35q-68 -29 -131.5 -94.5t-63.5 -124.5q0 -41 24.5 -63.5t59.5 -22.5q55 0 96 20zM254 592h524q0 47 -10 94t-36.5 93t-78 75t-123.5 29q-125 0 -194.5 -89t-81.5 -202z" />
    <glyph glyph-name="Ecaron" unicode="&#x11a;" horiz-adv-x="1007" 
d="M868 795v-148h-534v-497h598v-150h-778v1380h747v-149h-567v-436h534zM596 1454h-137l-215 234h151l131 -142h4l129 142h146z" />
    <glyph glyph-name="ecaron" unicode="&#x11b;" horiz-adv-x="1026" 
d="M946 463h-696q2 -174 97 -259t243 -85q158 0 274 51l33 -129q-141 -63 -332 -64q-225 0 -356 137.5t-131 364.5q0 229 127 381t338 152q115 0 199.5 -46t127.5 -120t62.5 -148.5t19.5 -150.5q0 -53 -6 -84zM252 592h526q2 109 -56 200t-194 91q-125 0 -194.5 -89
t-81.5 -202zM584 1126h-129l-197 293h137l121 -194h4l121 194h135z" />
    <glyph glyph-name="Gcircumflex" unicode="&#x11c;" horiz-adv-x="1323" 
d="M1208 725v-664q-197 -76 -426 -75q-326 0 -516 182q-193 186 -192 514q0 313 202.5 513t544.5 200q215 0 346 -64l-45 -145q-125 59 -305 59q-254 0 -404.5 -148.5t-150.5 -406.5q0 -260 144.5 -408.5t388.5 -148.5q164 0 237 37v412h-278v143h454zM668 1694h137
l215 -234h-152l-129 142h-4l-131 -142h-145z" />
    <glyph glyph-name="gcircumflex" unicode="&#x11d;" horiz-adv-x="1144" 
d="M997 721v-576q0 -322 -141 -454q-133 -119 -362 -119q-207 0 -330 82l45 139q121 -80 291 -80q147 0 233 84t86 264v109h-4q-43 -74 -124 -120t-191 -46q-182 0 -302 138.5t-120 344.5q0 240 133 382.5t315 142.5q215 0 310 -170h4l6 149h160q-9 -92 -9 -270zM817 422
v178q0 51 -10 80q-27 84 -91.5 138t-160.5 54q-131 0 -213 -102t-82 -272q0 -154 77 -255.5t216 -101.5q86 0 154.5 49.5t95.5 135.5q14 43 14 96zM508 1425h125l196 -292h-137l-119 192h-4l-118 -192h-136z" />
    <glyph glyph-name="Gbreve" unicode="&#x11e;" horiz-adv-x="1323" 
d="M1208 725v-664q-197 -76 -426 -75q-326 0 -516 182q-193 186 -192 514q0 313 202.5 513t544.5 200q215 0 346 -64l-45 -145q-125 59 -305 59q-254 0 -404.5 -148.5t-150.5 -406.5q0 -260 144.5 -408.5t388.5 -148.5q164 0 237 37v412h-278v143h454zM473 1694h107
q23 -100 147 -101q129 0 147 101h105q-4 -96 -67.5 -156.5t-188.5 -60.5q-123 0 -184.5 59.5t-65.5 157.5z" />
    <glyph glyph-name="gbreve" unicode="&#x11f;" horiz-adv-x="1144" 
d="M997 721v-576q0 -322 -141 -454q-133 -119 -362 -119q-207 0 -330 82l45 139q121 -80 291 -80q147 0 233 84t86 264v109h-4q-43 -74 -124 -120t-191 -46q-182 0 -302 138.5t-120 344.5q0 240 133 382.5t315 142.5q215 0 310 -170h4l6 149h160q-9 -92 -9 -270zM817 422
v178q0 51 -10 80q-27 84 -91.5 138t-160.5 54q-131 0 -213 -102t-82 -272q0 -154 77 -255.5t216 -101.5q86 0 154.5 49.5t95.5 135.5q14 43 14 96zM303 1397h107q10 -63 48 -102.5t97 -39.5q70 0 106.5 41t43.5 101h106q0 -115 -69.5 -185.5t-184.5 -70.5q-127 0 -190.5 75
t-63.5 181z" />
    <glyph glyph-name="Gdotaccent" unicode="&#x120;" horiz-adv-x="1323" 
d="M1208 725v-664q-197 -76 -426 -75q-326 0 -516 182q-193 186 -192 514q0 313 202.5 513t544.5 200q215 0 346 -64l-45 -145q-125 59 -305 59q-254 0 -404.5 -148.5t-150.5 -406.5q0 -260 144.5 -408.5t388.5 -148.5q164 0 237 37v412h-278v143h454zM739 1473
q-43 0 -71.5 30.5t-28.5 73.5q0 41 29.5 71.5t72.5 30.5q41 0 70 -30.5t29 -71.5q0 -43 -29 -73.5t-72 -30.5z" />
    <glyph glyph-name="gdotaccent" unicode="&#x121;" horiz-adv-x="1144" 
d="M997 721v-576q0 -322 -141 -454q-133 -119 -362 -119q-207 0 -330 82l45 139q121 -80 291 -80q147 0 233 84t86 264v109h-4q-43 -74 -124 -120t-191 -46q-182 0 -302 138.5t-120 344.5q0 240 133 382.5t315 142.5q215 0 310 -170h4l6 149h160q-9 -92 -9 -270zM817 422
v178q0 51 -10 80q-27 84 -91.5 138t-160.5 54q-131 0 -213 -102t-82 -272q0 -154 77 -255.5t216 -101.5q86 0 154.5 49.5t95.5 135.5q14 43 14 96zM569 1174q-43 0 -72.5 31.5t-29.5 74.5t30.5 73.5t73.5 30.5t72 -30.5t29 -73.5q0 -45 -29 -75.5t-74 -30.5z" />
    <glyph glyph-name="Gcommaaccent" unicode="&#x122;" horiz-adv-x="1323" 
d="M1208 725v-664q-197 -76 -426 -75q-326 0 -516 182q-193 186 -192 514q0 313 202.5 513t544.5 200q215 0 346 -64l-45 -145q-125 59 -305 59q-254 0 -404.5 -148.5t-150.5 -406.5q0 -260 144.5 -408.5t388.5 -148.5q164 0 237 37v412h-278v143h454zM610 -455l-35 84
q154 25 154 133q0 68 -70 125l134 29q82 -53 81 -152q0 -104 -77.5 -158.5t-186.5 -60.5z" />
    <glyph glyph-name="gcommaaccent" unicode="&#x123;" horiz-adv-x="1144" 
d="M997 721v-576q0 -322 -141 -454q-133 -119 -362 -119q-207 0 -330 82l45 139q121 -80 291 -80q147 0 233 84t86 264v109h-4q-43 -74 -124 -120t-191 -46q-182 0 -302 138.5t-120 344.5q0 240 133 382.5t315 142.5q215 0 310 -170h4l6 149h160q-9 -92 -9 -270zM817 422
v178q0 51 -10 80q-27 84 -91.5 138t-160.5 54q-131 0 -213 -102t-82 -272q0 -154 77 -255.5t216 -101.5q86 0 154.5 49.5t95.5 135.5q14 43 14 96zM694 1452l33 -76q-160 -23 -160 -133q0 -68 72 -121l-131 -26q-33 20 -56.5 59t-23.5 86q0 100 77.5 152.5t188.5 58.5z" />
    <glyph glyph-name="Hcircumflex" unicode="&#x124;" horiz-adv-x="1335" 
d="M154 1380h180v-577h667v577h181v-1380h-181v647h-667v-647h-180v1380zM598 1688h137l215 -234h-151l-129 141h-4l-131 -141h-146z" />
    <glyph glyph-name="hcircumflex" unicode="&#x125;" horiz-adv-x="1136" 
d="M150 0v1454h180v-620h4q47 84 129 129q86 49 184 49q43 0 87 -11.5t92 -40t84 -74.5t59.5 -122t23.5 -174v-590h-180v569q0 131 -55.5 212t-173.5 81q-84 0 -149.5 -51t-92.5 -127q-12 -33 -12 -86v-598h-180zM176 1726h137l215 -233h-151l-129 141h-4l-131 -141h-146z
" />
    <glyph glyph-name="Hbar" unicode="&#x126;" horiz-adv-x="1345" 
d="M1303 981h-117v-981h-180v616h-666v-616h-180v981h-117v119h117v280h180v-280h666v280h180v-280h117v-119zM1006 772v209h-666v-209h666z" />
    <glyph glyph-name="hbar" unicode="&#x127;" horiz-adv-x="1136" 
d="M993 0h-180v569q0 131 -55.5 212t-173.5 81q-84 0 -149.5 -51t-92.5 -127q-12 -33 -12 -86v-598h-180v1130h-158v113h158v211h180v-211h397v-113h-397v-296h4q47 84 129 129q86 49 184 49q43 0 87 -11.5t92 -40t84 -74.5t59.5 -122t23.5 -174v-590z" />
    <glyph glyph-name="Itilde" unicode="&#x128;" horiz-adv-x="489" 
d="M154 1380h180v-1380h-180v1380zM88 1464h-96q-2 94 36 151.5t103 57.5q43 0 121 -41q66 -37 98 -37q25 0 38 16.5t18 63.5h94q4 -199 -138 -198q-47 0 -124 39q-74 39 -97 38q-43 0 -53 -90z" />
    <glyph glyph-name="itilde" unicode="&#x129;" horiz-adv-x="479" 
d="M330 0h-180v991h180v-991zM86 1161h-98q-2 98 34.5 155.5t104.5 57.5q41 0 127 -45q61 -35 88 -35q49 0 55 86h97q4 -207 -140 -206q-47 0 -127 45q-63 35 -88 34q-47 0 -53 -92z" />
    <glyph glyph-name="Imacron" unicode="&#x12a;" horiz-adv-x="489" 
d="M154 1380h180v-1380h-180v1380zM0 1614h492v-113h-492v113z" />
    <glyph glyph-name="imacron" unicode="&#x12b;" horiz-adv-x="479" 
d="M330 0h-180v991h180v-991zM10 1317h461v-117h-461v117z" />
    <glyph glyph-name="Ibreve" unicode="&#x12c;" horiz-adv-x="489" 
d="M154 1380h180v-1380h-180v1380zM-8 1686h106q23 -100 148 -101q129 0 147 101h105q-4 -96 -67.5 -157t-188.5 -61q-123 0 -184.5 60t-65.5 158z" />
    <glyph glyph-name="ibreve" unicode="&#x12d;" horiz-adv-x="479" 
d="M330 0h-180v991h180v-991zM-8 1397h106q10 -63 48 -102.5t98 -39.5q70 0 106.5 41t42.5 101h107q0 -115 -70 -185.5t-184 -70.5q-127 0 -190.5 75t-63.5 181z" />
    <glyph glyph-name="Iogonek" unicode="&#x12e;" horiz-adv-x="489" 
d="M334 1380v-1380h-62q-84 -117 -84 -201q0 -51 29 -78.5t76 -27.5q51 0 92 18l29 -94q-66 -47 -166 -47q-86 0 -138.5 46t-52.5 132q0 98 97 252v1380h180z" />
    <glyph glyph-name="iogonek" unicode="&#x12f;" horiz-adv-x="479" 
d="M236 1169q-49 0 -80 33t-31 80q0 49 32.5 82t82 33t81 -33t31.5 -82q0 -47 -31.5 -80t-84.5 -33zM330 991v-991h-64q-84 -117 -84 -201q0 -51 29 -78.5t76 -27.5q51 0 92 18l29 -94q-66 -47 -166 -47q-86 0 -138.5 46t-52.5 132q0 104 99 252v991h180z" />
    <glyph glyph-name="Idotaccent" unicode="&#x130;" horiz-adv-x="489" 
d="M154 1380h180v-1380h-180v1380zM246 1477q-43 0 -72 30.5t-29 73.5q0 41 30 71.5t73 30.5q41 0 69.5 -30.5t28.5 -71.5q0 -43 -28.5 -73.5t-71.5 -30.5z" />
    <glyph glyph-name="dotlessi" unicode="&#x131;" horiz-adv-x="479" 
d="M330 0h-180v991h180v-991z" />
    <glyph glyph-name="IJ" unicode="&#x132;" horiz-adv-x="1247" 
d="M154 1380h180v-1380h-180v1380zM928 473v907h180v-923q0 -479 -418 -480q-113 0 -192 33l26 146q68 -27 152 -27q129 0 190.5 74.5t61.5 269.5z" />
    <glyph glyph-name="ij" unicode="&#x133;" horiz-adv-x="976" 
d="M330 0h-180v991h180v-991zM239.5 1382q49.5 0 80 -31.5t30.5 -80.5q0 -47 -30.5 -79t-83.5 -32q-49 0 -79 32t-30 79t31.5 79.5t81 32.5zM403 -432l-18 141q137 10 197 76q39 45 54 123t15 250v833h180v-903q0 -287 -118 -407q-55 -55 -141.5 -84t-168.5 -29zM741.5 1382
q49.5 0 80 -32.5t30.5 -79.5t-30.5 -79t-84.5 -32q-47 0 -77.5 33t-30.5 78q0 47 31.5 79.5t81 32.5z" />
    <glyph glyph-name="Jcircumflex" unicode="&#x134;" horiz-adv-x="757" 
d="M436 471v909h180v-923q0 -479 -417 -480q-115 0 -191 33l25 146q68 -27 151 -27q127 0 189.5 74.5t62.5 267.5zM449 1688h137l215 -234h-152l-129 141h-4l-131 -141h-145z" />
    <glyph glyph-name="jcircumflex" unicode="&#x135;" horiz-adv-x="497" 
d="M-74 -432l-20 141q137 10 196 78q39 43 54.5 121t15.5 250v833h180v-903q0 -287 -119 -407q-55 -55 -141 -84t-166 -29zM184 1405h125l197 -293h-137l-119 193h-4l-119 -193h-135z" />
    <glyph glyph-name="Kcommaaccent" unicode="&#x136;" horiz-adv-x="1110" 
d="M156 0v1380h178v-665h6q47 68 109 147l421 518h222l-500 -585l538 -795h-210l-453 678l-133 -152v-526h-178zM440 -451l-34 84q154 25 153 134q0 68 -70 124l134 29q82 -53 82 -151q0 -104 -78 -159t-187 -61z" />
    <glyph glyph-name="kcommaaccent" unicode="&#x137;" horiz-adv-x="960" 
d="M328 1454v-917h4q41 57 86 112l293 342h215l-381 -407l436 -584h-221l-340 475l-92 -102v-373h-178v1454h178zM362 -455l-34 84q154 25 153 133q0 72 -69 125l133 29q82 -53 82 -152q0 -104 -78 -158.5t-187 -60.5z" />
    <glyph glyph-name="kgreenlandic" unicode="&#x138;" horiz-adv-x="960" 
d="M328 991v-454h4q41 57 86 112l293 342h215l-381 -407l436 -584h-221l-340 475l-92 -102v-373h-178v991h178z" />
    <glyph glyph-name="Lacute" unicode="&#x139;" horiz-adv-x="966" 
d="M154 0v1380h180v-1230h590v-150h-770zM367 1694h217l-262 -240h-146z" />
    <glyph glyph-name="lacute" unicode="&#x13a;" horiz-adv-x="483" 
d="M150 0v1454h180v-1454h-180zM315 1753h217l-262 -240h-145z" />
    <glyph glyph-name="Lcommaaccent" unicode="&#x13b;" horiz-adv-x="966" 
d="M154 0v1380h180v-1230h590v-150h-770zM383 -455l-35 84q154 25 154 133q0 68 -70 125l133 29q82 -53 82 -152q0 -104 -77.5 -158.5t-186.5 -60.5z" />
    <glyph glyph-name="lcommaaccent" unicode="&#x13c;" horiz-adv-x="483" 
d="M150 0v1454h180v-1454h-180zM106 -455l-34 84q154 25 153 133q0 72 -69 125l133 29q82 -53 82 -152q0 -104 -78 -158.5t-187 -60.5z" />
    <glyph glyph-name="Lcaron" unicode="&#x13d;" horiz-adv-x="966" 
d="M154 0v1380h180v-1230h590v-150h-770zM532 1032l-34 84q154 25 153 133q0 68 -69 125l133 29q82 -53 82 -152q0 -104 -78 -158.5t-187 -60.5z" />
    <glyph glyph-name="lcaron" unicode="&#x13e;" horiz-adv-x="499" 
d="M150 0v1454h180v-1454h-180zM489 1069l-77 59q72 90 71 183q0 76 -61 133l127 29q31 -18 52.5 -60.5t21.5 -93.5q0 -25 -3.5 -47.5t-10.5 -42t-14 -35.5t-18.5 -32.5l-18.5 -27t-20.5 -22.5t-18.5 -17t-17 -16z" />
    <glyph glyph-name="Ldot" unicode="&#x13f;" horiz-adv-x="966" 
d="M154 0v1380h180v-1230h590v-150h-770zM696 657q-43 0 -71.5 31t-28.5 74q0 41 29.5 71.5t72.5 30.5q41 0 70 -30.5t29 -71.5q0 -43 -29 -74t-72 -31z" />
    <glyph glyph-name="ldot" unicode="&#x140;" horiz-adv-x="557" 
d="M150 0v1454h180v-1454h-180zM516 698q-41 0 -68.5 30t-27.5 73q0 41 28.5 71.5t69.5 30.5q39 0 66.5 -29.5t27.5 -72.5t-26.5 -73t-69.5 -30z" />
    <glyph glyph-name="Lslash" unicode="&#x141;" horiz-adv-x="974" 
d="M932 0h-770v551l-172 -125v137l172 125v692h180v-569l274 199v-140l-274 -198v-522h590v-150z" />
    <glyph glyph-name="lslash" unicode="&#x142;" horiz-adv-x="495" 
d="M338 0h-180v590l-140 -119v141l140 119v723h180v-584l145 125v-143l-145 -125v-727z" />
    <glyph glyph-name="Nacute" unicode="&#x143;" horiz-adv-x="1347" 
d="M324 0h-168v1380h196l441 -698q160 -258 245 -449l6 3q-20 231 -20 567v577h168v-1380h-180l-439 700q-172 272 -256 461l-6 -2q12 -209 13 -569v-590zM758 1694h219l-262 -240h-146z" />
    <glyph glyph-name="nacute" unicode="&#x144;" horiz-adv-x="1136" 
d="M150 0v723q0 160 -9 268h160l10 -164h4q41 78 127 131.5t201 53.5q57 0 113.5 -19.5t112 -63.5t90 -131t34.5 -208v-590h-180v571q0 131 -55.5 212t-173.5 81q-84 0 -149.5 -53t-92.5 -131q-12 -33 -12 -84v-596h-180zM651 1419h197l-250 -293h-127z" />
    <glyph glyph-name="Ncommaaccent" unicode="&#x145;" horiz-adv-x="1347" 
d="M324 0h-168v1380h196l441 -698q160 -258 245 -449l6 3q-20 231 -20 567v577h168v-1380h-180l-439 700q-172 272 -256 461l-6 -2q12 -209 13 -569v-590zM553 -453l-35 84q154 25 154 133q0 68 -70 125l133 29q82 -53 82 -151q0 -104 -77.5 -159t-186.5 -61z" />
    <glyph glyph-name="ncommaaccent" unicode="&#x146;" horiz-adv-x="1136" 
d="M150 0v723q0 160 -9 268h160l10 -164h4q41 78 127 131.5t201 53.5q57 0 113.5 -19.5t112 -63.5t90 -131t34.5 -208v-590h-180v571q0 131 -55.5 212t-173.5 81q-84 0 -149.5 -53t-92.5 -131q-12 -33 -12 -84v-596h-180zM453 -451l-35 84q154 25 153 134q0 72 -69 124
l133 29q82 -53 82 -151q0 -104 -77.5 -159t-186.5 -61z" />
    <glyph glyph-name="Ncaron" unicode="&#x147;" horiz-adv-x="1347" 
d="M324 0h-168v1380h196l441 -698q160 -258 245 -449l6 3q-20 231 -20 567v577h168v-1380h-180l-439 700q-172 272 -256 461l-6 -2q12 -209 13 -569v-590zM745 1444h-135l-215 233h152l131 -141h4l129 141h145z" />
    <glyph glyph-name="ncaron" unicode="&#x148;" horiz-adv-x="1136" 
d="M150 0v723q0 160 -9 268h160l10 -164h4q41 78 127 131.5t201 53.5q57 0 113.5 -19.5t112 -63.5t90 -131t34.5 -208v-590h-180v571q0 131 -55.5 212t-173.5 81q-84 0 -149.5 -53t-92.5 -131q-12 -33 -12 -84v-596h-180zM635 1126h-129l-197 293h137l121 -194h4l121 194
h135z" />
    <glyph glyph-name="napostrophe" unicode="&#x149;" horiz-adv-x="1136" 
d="M150 0v723q0 160 -9 268h160l10 -164h4q41 78 127 131.5t201 53.5q57 0 113.5 -19.5t112 -63.5t90 -131t34.5 -208v-590h-180v571q0 131 -55.5 212t-173.5 81q-84 0 -149.5 -53t-92.5 -131q-12 -33 -12 -84v-596h-180zM115 1098l-78 59q76 84 76 168q0 68 -64 121l131 35
q29 -18 50.5 -58.5t21.5 -89.5q0 -133 -137 -235z" />
    <glyph glyph-name="Eng" unicode="&#x14a;" horiz-adv-x="1347" 
d="M324 0h-168v1380h196l441 -698q160 -258 245 -449l6 3q-20 231 -20 567v577h168v-1302q0 -426 -395 -486l-37 140q123 25 186.5 86t73.5 170l-447 712q-172 272 -256 461l-6 -2q12 -209 13 -569v-590z" />
    <glyph glyph-name="eng" unicode="&#x14b;" horiz-adv-x="1136" 
d="M150 0v723q0 160 -9 268h160l10 -164h4q41 78 127 131.5t201 53.5q57 0 113.5 -19.5t112 -63.5t90 -131t34.5 -208v-469q0 -223 -106.5 -343t-282.5 -145l-35 144q244 49 244 327v467q0 131 -55.5 212t-173.5 81q-84 0 -149.5 -53t-92.5 -131q-12 -33 -12 -84v-596h-180z
" />
    <glyph glyph-name="Omacron" unicode="&#x14c;" horiz-adv-x="1411" 
d="M713 1405q283 0 452.5 -194.5t169.5 -505.5q0 -342 -182 -535t-459 -193q-274 0 -447 195t-173 508q0 326 179 525.5t460 199.5zM707 1260q-211 0 -328 -167t-117 -409q0 -233 120 -397t323 -164q205 0 323.5 164t118.5 409q0 227 -115.5 395.5t-324.5 168.5zM461 1626
h491v-113h-491v113z" />
    <glyph glyph-name="omacron" unicode="&#x14d;" horiz-adv-x="1124" 
d="M569 1012q213 0 345.5 -141.5t132.5 -366.5q0 -256 -147.5 -391.5t-346.5 -135.5q-205 0 -340 140.5t-135 369.5q0 240 140 382.5t351 142.5zM565.5 877q-147.5 0 -225.5 -114t-78 -269q0 -164 84 -272.5t215 -108.5q129 0 215 109.5t86 275.5q0 145 -74.5 262t-222 117z
M332 1317h461v-117h-461v117z" />
    <glyph glyph-name="Obreve" unicode="&#x14e;" horiz-adv-x="1411" 
d="M713 1405q283 0 452.5 -194.5t169.5 -505.5q0 -342 -182 -535t-459 -193q-274 0 -447 195t-173 508q0 326 179 525.5t460 199.5zM707 1260q-211 0 -328 -167t-117 -409q0 -233 120 -397t323 -164q205 0 323.5 164t118.5 409q0 227 -115.5 395.5t-324.5 168.5zM451 1700
h106q23 -100 148 -101q129 0 147 101h104q-4 -96 -67.5 -156.5t-188.5 -60.5q-123 0 -184 59.5t-65 157.5z" />
    <glyph glyph-name="obreve" unicode="&#x14f;" horiz-adv-x="1124" 
d="M569 1012q213 0 345.5 -141.5t132.5 -366.5q0 -256 -147.5 -391.5t-346.5 -135.5q-205 0 -340 140.5t-135 369.5q0 240 140 382.5t351 142.5zM565.5 877q-147.5 0 -225.5 -114t-78 -269q0 -164 84 -272.5t215 -108.5q129 0 215 109.5t86 275.5q0 145 -74.5 262t-222 117z
M307 1397h107q10 -63 48 -102.5t97 -39.5q70 0 106.5 41t43.5 101h106q0 -115 -69.5 -185.5t-184.5 -70.5q-127 0 -190.5 75t-63.5 181z" />
    <glyph glyph-name="Ohungarumlaut" unicode="&#x150;" horiz-adv-x="1411" 
d="M713 1405q283 0 452.5 -194.5t169.5 -505.5q0 -342 -182 -535t-459 -193q-274 0 -447 195t-173 508q0 326 179 525.5t460 199.5zM707 1260q-211 0 -328 -167t-117 -409q0 -233 120 -397t323 -164q205 0 323.5 164t118.5 409q0 227 -115.5 395.5t-324.5 168.5zM653 1700
h195l-227 -230h-132zM954 1700h195l-227 -230h-131z" />
    <glyph glyph-name="ohungarumlaut" unicode="&#x151;" horiz-adv-x="1124" 
d="M569 1012q213 0 345.5 -141.5t132.5 -366.5q0 -256 -147.5 -391.5t-346.5 -135.5q-205 0 -340 140.5t-135 369.5q0 240 140 382.5t351 142.5zM565.5 877q-147.5 0 -225.5 -114t-78 -269q0 -164 84 -272.5t215 -108.5q129 0 215 109.5t86 275.5q0 145 -74.5 262t-222 117z
M487 1419h177l-226 -278h-112zM782 1419h176l-225 -278h-112z" />
    <glyph glyph-name="OE" unicode="&#x152;" horiz-adv-x="1830" 
d="M1755 150v-150h-706q-37 0 -136 -12q-127 -10 -170 -11q-313 0 -491 198t-178 505q0 336 188.5 530.5t491.5 194.5q78 0 180 -12.5t131 -12.5h659v-149h-567v-438h535v-148h-535v-495h598zM977 150v1079q-88 31 -219 31q-227 0 -361.5 -158t-134.5 -414t137.5 -410.5
t376.5 -154.5q127 0 201 27z" />
    <glyph glyph-name="oe" unicode="&#x153;" horiz-adv-x="1767" 
d="M1688 465h-674q0 -164 91 -255t238 -91q137 0 265 55l34 -129q-119 -68 -321 -68q-281 0 -393 234h-4q-53 -115 -157.5 -174.5t-225.5 -59.5q-201 0 -332 140.5t-131 371.5q0 236 135 379.5t340 143.5q127 0 227.5 -62.5t145.5 -173.5h4q53 115 148.5 175.5t213.5 60.5
q90 0 163 -32t116 -81t71.5 -112.5t39 -122t10.5 -115.5q0 -47 -4 -84zM553 877q-147 0 -219 -117t-72 -266q0 -162 83 -271.5t210 -109.5q131 0 211 106.5t80 276.5q0 158 -74 269.5t-219 111.5zM1012 594h508q0 47 -10.5 93t-35 92t-75.5 75t-121 29q-121 0 -188.5 -89
t-77.5 -200z" />
    <glyph glyph-name="Racute" unicode="&#x154;" horiz-adv-x="1101" 
d="M156 0v1362q158 29 342 29q274 0 399 -113q109 -98 109 -264q0 -129 -72 -220.5t-186 -129.5v-7q150 -53 200 -278q76 -319 107 -379h-185q-33 57 -90 330q-31 143 -94 203.5t-184 64.5h-168v-598h-178zM334 1237v-504h182q141 0 226 72t85 190q0 129 -85 192.5
t-232 63.5q-123 0 -176 -14zM618 1698h218l-263 -240h-145z" />
    <glyph glyph-name="racute" unicode="&#x155;" horiz-adv-x="669" 
d="M150 0v682q0 186 -9 309h158l8 -196h6q33 98 109 157.5t168 59.5q16 0 49 -4v-170q-18 4 -61 4q-94 0 -159 -63.5t-83 -166.5q-6 -37 -6 -84v-528h-180zM444 1419h197l-250 -293h-127z" />
    <glyph glyph-name="Rcommaaccent" unicode="&#x156;" horiz-adv-x="1101" 
d="M156 0v1362q158 29 342 29q274 0 399 -113q109 -98 109 -264q0 -129 -72 -220.5t-186 -129.5v-7q150 -53 200 -278q76 -319 107 -379h-185q-33 57 -90 330q-31 143 -94 203.5t-184 64.5h-168v-598h-178zM334 1237v-504h182q141 0 226 72t85 190q0 129 -85 192.5
t-232 63.5q-123 0 -176 -14zM434 -440l-35 84q154 25 154 133q0 68 -70 125l133 28q82 -53 82 -151q0 -104 -77.5 -158.5t-186.5 -60.5z" />
    <glyph glyph-name="rcommaaccent" unicode="&#x157;" horiz-adv-x="669" 
d="M150 0v682q0 186 -9 309h158l8 -196h6q33 98 109 157.5t168 59.5q16 0 49 -4v-170q-18 4 -61 4q-94 0 -159 -63.5t-83 -166.5q-6 -37 -6 -84v-528h-180zM123 -455l-35 84q154 25 154 133q0 72 -70 125l133 29q82 -53 82 -152q0 -104 -77.5 -158.5t-186.5 -60.5z" />
    <glyph glyph-name="Rcaron" unicode="&#x158;" horiz-adv-x="1101" 
d="M156 0v1362q158 29 342 29q274 0 399 -113q109 -98 109 -264q0 -129 -72 -220.5t-186 -129.5v-7q150 -53 200 -278q76 -319 107 -379h-185q-33 57 -90 330q-31 143 -94 203.5t-184 64.5h-168v-598h-178zM334 1237v-504h182q141 0 226 72t85 190q0 129 -85 192.5
t-232 63.5q-123 0 -176 -14zM610 1460h-137l-215 234h152l131 -142h4l129 142h145z" />
    <glyph glyph-name="rcaron" unicode="&#x159;" horiz-adv-x="669" 
d="M150 0v682q0 186 -9 309h158l8 -196h6q33 98 109 157.5t168 59.5q16 0 49 -4v-170q-18 4 -61 4q-94 0 -159 -63.5t-83 -166.5q-6 -37 -6 -84v-528h-180zM438 1126h-129l-196 293h137l121 -194h4l121 194h135z" />
    <glyph glyph-name="Sacute" unicode="&#x15a;" horiz-adv-x="1009" 
d="M86 68l47 149q141 -90 318 -90q135 0 211.5 64.5t76.5 170.5q0 94 -60.5 157t-199.5 116q-365 133 -364 393q0 164 123.5 269.5t322.5 105.5q188 0 303 -68l-49 -145q-106 66 -260 65q-129 0 -194.5 -62.5t-65.5 -143.5q0 -94 62.5 -151.5t211.5 -115.5
q180 -70 265.5 -164t85.5 -241q0 -170 -124 -285t-358 -115q-98 0 -196.5 26t-155.5 65zM610 1698h219l-262 -240h-145z" />
    <glyph glyph-name="sacute" unicode="&#x15b;" horiz-adv-x="811" 
d="M82 47l43 135q117 -70 240 -69q92 0 141 41t49 106q0 63 -41 103t-141 77q-264 96 -264 281q0 123 94 207t248 84q147 0 241 -62l-43 -131q-94 59 -203 60q-78 0 -120.5 -39t-42.5 -97q0 -59 42 -94t144 -76q131 -49 195.5 -119.5t64.5 -177.5q0 -135 -98.5 -217
t-270.5 -82q-159 0 -278 70zM500 1419h198l-249 -293h-127z" />
    <glyph glyph-name="Scircumflex" unicode="&#x15c;" horiz-adv-x="1009" 
d="M86 68l47 149q141 -90 318 -90q135 0 211.5 64.5t76.5 170.5q0 94 -60.5 157t-199.5 116q-365 133 -364 393q0 164 123.5 269.5t322.5 105.5q188 0 303 -68l-49 -145q-106 66 -260 65q-129 0 -194.5 -62.5t-65.5 -143.5q0 -94 62.5 -151.5t211.5 -115.5
q180 -70 265.5 -164t85.5 -241q0 -170 -124 -285t-358 -115q-98 0 -196.5 26t-155.5 65zM438 1694h135l215 -234h-151l-129 142h-4l-131 -142h-146z" />
    <glyph glyph-name="scircumflex" unicode="&#x15d;" horiz-adv-x="811" 
d="M82 47l43 135q117 -70 240 -69q92 0 141 41t49 106q0 63 -41 103t-141 77q-264 96 -264 281q0 123 94 207t248 84q147 0 241 -62l-43 -131q-94 59 -203 60q-78 0 -120.5 -39t-42.5 -97q0 -59 42 -94t144 -76q131 -49 195.5 -119.5t64.5 -177.5q0 -135 -98.5 -217
t-270.5 -82q-159 0 -278 70zM346 1419h125l197 -293h-138l-120 193h-4l-117 -193h-135z" />
    <glyph glyph-name="Scedilla" unicode="&#x15e;" horiz-adv-x="1009" 
d="M86 68l47 149q141 -90 318 -90q135 0 211.5 64.5t76.5 170.5q0 94 -60.5 157t-199.5 116q-365 133 -364 393q0 164 123.5 269.5t322.5 105.5q188 0 303 -68l-49 -145q-106 66 -260 65q-129 0 -194.5 -62.5t-65.5 -143.5q0 -94 62.5 -151.5t211.5 -115.5
q180 -70 265.5 -164t85.5 -241q0 -143 -91.5 -251t-265.5 -138l-57 -90q61 -10 102 -49t41 -95q0 -82 -60.5 -123t-150.5 -41q-86 0 -141 35l29 88q57 -29 112 -28q84 0 84 63q0 70 -157 86l81 143h-14q-90 0 -189.5 26t-156.5 65z" />
    <glyph glyph-name="scedilla" unicode="&#x15f;" horiz-adv-x="811" 
d="M82 47l43 135q117 -70 240 -69q92 0 141 41t49 106q0 63 -41 103t-141 77q-264 96 -264 281q0 123 94 207t248 84q147 0 241 -62l-43 -129q-98 57 -203 58q-78 0 -120.5 -39t-42.5 -97q0 -59 42 -94t144 -76q131 -49 195.5 -119.5t64.5 -177.5q0 -111 -69.5 -187.5
t-194.5 -98.5l-55 -92q59 -8 101 -46t42 -96q0 -86 -60.5 -126t-154.5 -40q-80 0 -139 35l30 88q53 -29 111 -28q39 0 64.5 15t23.5 48q0 72 -160 86l82 146h-6q-143 -1 -262 67z" />
    <glyph glyph-name="Scaron" unicode="&#x160;" horiz-adv-x="1009" 
d="M86 68l47 149q141 -90 318 -90q135 0 211.5 64.5t76.5 170.5q0 94 -60.5 157t-199.5 116q-365 133 -364 393q0 164 123.5 269.5t322.5 105.5q188 0 303 -68l-49 -145q-106 66 -260 65q-129 0 -194.5 -62.5t-65.5 -143.5q0 -94 62.5 -151.5t211.5 -115.5
q180 -70 265.5 -164t85.5 -241q0 -170 -124 -285t-358 -115q-98 0 -196.5 26t-155.5 65zM598 1460h-137l-215 234h151l131 -142h4l130 142h145z" />
    <glyph glyph-name="scaron" unicode="&#x161;" horiz-adv-x="811" 
d="M82 47l43 135q117 -70 240 -69q92 0 141 41t49 106q0 63 -41 103t-141 77q-264 96 -264 281q0 123 94 207t248 84q147 0 241 -62l-43 -131q-94 59 -203 60q-78 0 -120.5 -39t-42.5 -97q0 -59 42 -94t144 -76q131 -49 195.5 -119.5t64.5 -177.5q0 -135 -98.5 -217
t-270.5 -82q-159 0 -278 70zM481 1126h-129l-196 293h137l121 -194h4l121 194h135z" />
    <glyph glyph-name="Tcommaaccent" unicode="&#x162;" horiz-adv-x="1017" 
d="M418 0v1229h-420v151h1022v-151h-422v-1229h-180zM369 -455l-35 84q154 25 153 133q0 68 -69 125l133 29q82 -53 82 -152q0 -104 -77.5 -158.5t-186.5 -60.5z" />
    <glyph glyph-name="tcommaaccent" unicode="&#x163;" horiz-adv-x="677" 
d="M190 1176l177 53v-238h258v-137h-258v-535q0 -193 135 -192q63 0 104 12l8 -137q-70 -25 -159 -25q-125 0 -195 76q-70 78 -70 260v541h-153v137h153v185zM250 -465l-35 84q154 25 154 133q0 72 -70 125l133 29q82 -53 82 -152q0 -104 -77.5 -158.5t-186.5 -60.5z" />
    <glyph glyph-name="Tcaron" unicode="&#x164;" horiz-adv-x="1017" 
d="M418 0v1229h-420v151h1022v-151h-422v-1229h-180zM580 1454h-138l-215 234h152l131 -142h4l129 142h145z" />
    <glyph glyph-name="tcaron" unicode="&#x165;" horiz-adv-x="694" 
d="M190 1174l177 55v-238h260v-137h-260v-535q0 -96 31.5 -144t105.5 -48q61 0 104 12l8 -137q-70 -25 -161 -25q-125 0 -195 76q-70 78 -70 260v541h-153v137h153v183zM567 1108l-53 72q78 55 78 153q0 68 -62 119l132 27q72 -47 71 -142q0 -92 -54.5 -149t-111.5 -80z" />
    <glyph glyph-name="Tbar" unicode="&#x166;" horiz-adv-x="1017" 
d="M1020 1229h-422v-455h254v-119h-254v-655h-180v655h-256v119h256v455h-420v151h1022v-151z" />
    <glyph glyph-name="tbar" unicode="&#x167;" horiz-adv-x="677" 
d="M625 854h-258v-236h200v-110h-200v-197q0 -184 135 -184q63 0 104 12l8 -137q-70 -25 -159 -25q-125 0 -195 76q-70 78 -70 260v195h-135v110h135v236h-153v137h153v185l177 53v-238h258v-137z" />
    <glyph glyph-name="Utilde" unicode="&#x168;" horiz-adv-x="1325" 
d="M154 1380h180v-819q0 -221 88 -329.5t233 -108.5q158 0 247 108.5t89 329.5v819h180v-807q0 -303 -142 -449.5t-380 -146.5q-227 0 -361 142.5t-134 447.5v813zM504 1464h-96q-2 94 35.5 151.5t103.5 57.5q41 0 123 -41q66 -37 98 -37q25 0 38 16.5t17 63.5h95
q4 -199 -138 -198q-45 0 -127 39q-74 39 -96 38q-43 0 -53 -90z" />
    <glyph glyph-name="utilde" unicode="&#x169;" horiz-adv-x="1128" 
d="M979 991v-719q0 -168 8 -272h-160l-10 162h-4q-41 -74 -125 -129.5t-203 -55.5q-63 0 -119.5 20.5t-108.5 67t-83 135.5t-31 212v579h181v-547q0 -317 221 -317q84 0 147.5 49t89.5 117q16 39 17 92v606h180zM410 1161h-99q-2 98 35 155.5t105 57.5q39 0 129 -45
q61 -35 86 -35q49 0 55 86h96q4 -207 -139 -206q-47 0 -127 45q-63 35 -88 34q-47 0 -53 -92z" />
    <glyph glyph-name="Umacron" unicode="&#x16a;" horiz-adv-x="1325" 
d="M154 1380h180v-819q0 -221 88 -329.5t233 -108.5q158 0 247 108.5t89 329.5v819h180v-807q0 -303 -142 -449.5t-380 -146.5q-227 0 -361 142.5t-134 447.5v813zM416 1614h491v-113h-491v113z" />
    <glyph glyph-name="umacron" unicode="&#x16b;" horiz-adv-x="1128" 
d="M979 991v-719q0 -168 8 -272h-160l-10 162h-4q-41 -74 -125 -129.5t-203 -55.5q-63 0 -119.5 20.5t-108.5 67t-83 135.5t-31 212v579h181v-547q0 -317 221 -317q84 0 147.5 49t89.5 117q16 39 17 92v606h180zM334 1317h461v-117h-461v117z" />
    <glyph glyph-name="Ubreve" unicode="&#x16c;" horiz-adv-x="1325" 
d="M154 1380h180v-819q0 -221 88 -329.5t233 -108.5q158 0 247 108.5t89 329.5v819h180v-807q0 -303 -142 -449.5t-380 -146.5q-227 0 -361 142.5t-134 447.5v813zM408 1694h106q23 -100 148 -101q131 0 149 101h104q-4 -96 -67.5 -156.5t-188 -60.5t-186 59.5t-65.5 157.5z
" />
    <glyph glyph-name="ubreve" unicode="&#x16d;" horiz-adv-x="1128" 
d="M979 991v-719q0 -168 8 -272h-160l-10 162h-4q-41 -74 -125 -129.5t-203 -55.5q-63 0 -119.5 20.5t-108.5 67t-83 135.5t-31 212v579h181v-547q0 -317 221 -317q84 0 147.5 49t89.5 117q16 39 17 92v606h180zM309 1397h107q10 -63 48 -102.5t97 -39.5q70 0 107 41t43 101
h106q0 -115 -69.5 -185.5t-184.5 -70.5q-127 0 -190.5 75t-63.5 181z" />
    <glyph glyph-name="Uring" unicode="&#x16e;" horiz-adv-x="1325" 
d="M154 1380h180v-819q0 -221 88 -329.5t233 -108.5q158 0 247 108.5t89 329.5v819h180v-807q0 -303 -142 -449.5t-380 -146.5q-227 0 -361 142.5t-134 447.5v813zM666 1786q90 0 145 -53.5t55 -133.5q0 -78 -57 -129t-145 -51q-90 0 -147.5 52.5t-57.5 127.5
q0 80 56.5 133.5t150.5 53.5zM659.5 1712q-45.5 0 -71 -32.5t-25.5 -80.5q0 -41 27.5 -72.5t71 -31.5t71 30.5t27.5 78.5q0 45 -27.5 76.5t-73 31.5z" />
    <glyph glyph-name="uring" unicode="&#x16f;" horiz-adv-x="1128" 
d="M979 991v-719q0 -168 8 -272h-160l-10 162h-4q-41 -74 -125 -129.5t-203 -55.5q-63 0 -119.5 20.5t-108.5 67t-83 135.5t-31 212v579h181v-547q0 -317 221 -317q84 0 147.5 49t89.5 117q16 39 17 92v606h180zM565 1100q-92 0 -150.5 53t-58.5 133q0 84 58.5 138.5
t152.5 54.5q90 0 146.5 -54.5t56.5 -138.5q0 -80 -58.5 -133t-146.5 -53zM563 1176q47 0 77 32.5t30 79.5q0 49 -30 82t-79 33q-45 0 -72.5 -34t-27.5 -83q0 -43 28.5 -76.5t73.5 -33.5z" />
    <glyph glyph-name="Uhungarumlaut" unicode="&#x170;" horiz-adv-x="1325" 
d="M154 1380h180v-819q0 -221 88 -329.5t233 -108.5q158 0 247 108.5t89 329.5v819h180v-807q0 -303 -142 -449.5t-380 -146.5q-227 0 -361 142.5t-134 447.5v813zM580 1694h194l-227 -230h-131zM881 1694h194l-227 -230h-131z" />
    <glyph glyph-name="uhungarumlaut" unicode="&#x171;" horiz-adv-x="1128" 
d="M979 991v-719q0 -168 8 -272h-160l-10 162h-4q-41 -74 -125 -129.5t-203 -55.5q-63 0 -119.5 20.5t-108.5 67t-83 135.5t-31 212v579h181v-547q0 -317 221 -317q84 0 147.5 49t89.5 117q16 39 17 92v606h180zM504 1419h176l-225 -278h-113zM799 1419h176l-225 -278h-113z
" />
    <glyph glyph-name="Uogonek" unicode="&#x172;" horiz-adv-x="1325" 
d="M850 -276l29 -93q-70 -49 -168 -49q-84 0 -134.5 44t-50.5 120q0 106 117 231h-12q-219 6 -348 147.5t-129 442.5v813h180v-819q0 -221 88 -329.5t233 -108.5q160 0 248 108.5t88 329.5v819h180v-807q0 -252 -102 -396t-278 -181q-125 -111 -125 -205q0 -88 92 -88
q47 1 92 21z" />
    <glyph glyph-name="uogonek" unicode="&#x173;" horiz-adv-x="1128" 
d="M979 991v-719q0 -172 8 -272l-43 6q-84 -117 -84 -201q0 -51 29 -78.5t76 -27.5q51 0 92 18l28 -94q-66 -47 -165 -47q-86 0 -138.5 46t-52.5 132q0 104 98 252l-10 156h-4q-41 -74 -125 -129.5t-203 -55.5q-63 0 -119.5 20.5t-108.5 67t-83 135.5t-31 212v579h181v-547
q0 -317 221 -317q84 0 147.5 49t89.5 117q16 39 17 92v606h180z" />
    <glyph glyph-name="Wcircumflex" unicode="&#x174;" horiz-adv-x="1732" 
d="M567 0h-186l-350 1380h188l164 -698q63 -268 102 -477h4q23 139 113 479l184 696h187l168 -700q74 -307 96 -473h4q27 143 111 477l182 696h182l-391 -1380h-186l-174 719q-66 272 -91 450h-4q-31 -186 -106 -450zM799 1688h137l215 -234h-152l-129 141h-4l-131 -141
h-145z" />
    <glyph glyph-name="wcircumflex" unicode="&#x175;" horiz-adv-x="1507" 
d="M37 991h184l133 -504q59 -246 72 -315h6q23 100 88 313l162 506h152l153 -495q55 -180 88 -324h6q20 123 76 322l141 497h179l-320 -991h-164l-151 473q-59 186 -88 326h-4q-29 -141 -91 -328l-159 -471h-164zM690 1419h123l197 -293h-138l-118 193h-4l-119 -193h-135z
" />
    <glyph glyph-name="Ycircumflex" unicode="&#x176;" horiz-adv-x="1107" 
d="M643 0h-180v586l-438 794h204l195 -381q113 -231 137 -284h4q25 57 140 284l198 381h201l-461 -792v-588zM483 1688h138l215 -234h-152l-129 141h-4l-131 -141h-146z" />
    <glyph glyph-name="ycircumflex" unicode="&#x177;" horiz-adv-x="964" 
d="M18 991h197l215 -585q37 -96 66 -203h4q2 6 25.5 85t37.5 122l197 581h190l-270 -706q-100 -262 -175 -401.5t-165 -219.5q-113 -94 -221 -115l-45 150q86 27 157 88q92 72 152 201q14 33 14 43q0 16 -14 47zM422 1419h125l196 -293h-137l-119 193h-4l-118 -193h-136z
" />
    <glyph glyph-name="Ydieresis" unicode="&#x178;" horiz-adv-x="1107" 
d="M643 0h-180v586l-438 794h204l195 -381q113 -231 137 -284h4q25 57 140 284l198 381h201l-461 -792v-588zM381 1462q-43 0 -70.5 31t-27.5 74t28.5 72.5t71.5 29.5t70.5 -29.5t27.5 -72.5q0 -45 -27.5 -75t-72.5 -30zM760 1462q-43 0 -70.5 31t-27.5 74t29.5 72.5
t72.5 29.5t70.5 -29.5t27.5 -72.5q0 -45 -27.5 -75t-74.5 -30z" />
    <glyph glyph-name="Zacute" unicode="&#x179;" horiz-adv-x="1132" 
d="M61 0v104l764 1121v6h-698v149h932v-108l-762 -1116v-6h772v-150h-1008zM666 1694h217l-262 -240h-146z" />
    <glyph glyph-name="zacute" unicode="&#x17a;" horiz-adv-x="876" 
d="M37 0v104l446 584l131 156v4h-536v143h753v-112l-442 -576q-88 -113 -127 -156v-4h578v-143h-803zM532 1419h199l-250 -293h-127z" />
    <glyph glyph-name="Zdotaccent" unicode="&#x17b;" horiz-adv-x="1132" 
d="M61 0v104l764 1121v6h-698v149h932v-108l-762 -1116v-6h772v-150h-1008zM573 1475q-43 0 -71.5 30.5t-28.5 73.5q0 41 29.5 71.5t72.5 30.5q41 0 70 -30.5t29 -71.5q0 -43 -29 -73.5t-72 -30.5z" />
    <glyph glyph-name="zdotaccent" unicode="&#x17c;" horiz-adv-x="876" 
d="M37 0v104l446 584l131 156v4h-536v143h753v-112l-442 -576q-88 -113 -127 -156v-4h578v-143h-803zM442 1167q-43 0 -72.5 31t-29.5 74q0 45 30.5 75.5t73.5 30.5t72 -30.5t29 -75.5q0 -43 -29 -74t-74 -31z" />
    <glyph glyph-name="Zcaron" unicode="&#x17d;" horiz-adv-x="1132" 
d="M61 0v104l764 1121v6h-698v149h932v-108l-762 -1116v-6h772v-150h-1008zM655 1454h-135l-215 234h152l131 -142h4l129 142h145z" />
    <glyph glyph-name="zcaron" unicode="&#x17e;" horiz-adv-x="876" 
d="M37 0v104l446 584l131 156v4h-536v143h753v-112l-442 -576q-88 -113 -127 -156v-4h578v-143h-803zM530 1126h-129l-196 293h137l121 -194h4l121 194h135z" />
    <glyph glyph-name="florin" unicode="&#x192;" horiz-adv-x="1050" 
d="M227 692v131h203l12 95q10 84 34 154.5t67 137t117.5 105.5t173.5 39q90 -2 139 -31l-33 -131q-51 20 -106 20q-98 0 -150.5 -79.5t-67.5 -204.5l-12 -105h246v-131h-262l-49 -418q-27 -217 -107 -331.5t-250 -114.5q-100 0 -159 35l32 127q47 -23 115 -23q90 0 134 78
t65 244l47 403h-189z" />
    <glyph glyph-name="Ohorn" unicode="&#x1a0;" horiz-adv-x="1411" 
d="M705 123q205 0 323.5 164t118.5 409q0 227 -116 395.5t-324 168.5q-211 0 -328 -168t-117 -408q0 -231 120 -396t323 -165zM1212 1518l140 26q39 -86 39 -168q0 -90 -54.5 -141t-160.5 -43q160 -180 159 -487q0 -342 -182 -535t-459 -193q-274 0 -447 195t-173 508
q0 326 179 525.5t460 199.5q119 0 215 -37q20 -6 68 -26.5t89 -34t70 -13.5q92 0 92 92q0 69 -35 132z" />
    <glyph glyph-name="ohorn" unicode="&#x1a1;" horiz-adv-x="1132" 
d="M565 877q-147 0 -225 -114t-78 -269q0 -164 84 -272.5t215 -108.5q129 0 215 109.5t88 277.5q0 66 -17.5 130t-51 121.5t-93 91.5t-137.5 34zM963 1133l137 24q35 -70 35 -149q0 -84 -49.5 -132.5t-141.5 -44.5q102 -131 103 -327q0 -256 -147.5 -391.5t-346.5 -135.5
q-205 0 -340 140.5t-135 369.5q0 240 140 382.5t351 142.5q80 0 170 -27q16 -4 50 -19.5t65 -24.5t59 -9q80 0 84 82q1 60 -34 119z" />
    <glyph glyph-name="Uhorn" unicode="&#x1af;" horiz-adv-x="1386" 
d="M1214 1577l138 25q35 -76 34.5 -154t-47.5 -125t-137 -49l-31 -2v-699q0 -303 -142 -449.5t-380 -146.5q-227 0 -361 142.5t-134 447.5v813h180v-819q0 -221 88 -329.5t233 -108.5q158 0 247 108.5t89 329.5v819h162q51 0 72.5 18.5t21.5 59.5q0 60 -33 119z" />
    <glyph glyph-name="uhorn" unicode="&#x1b0;" horiz-adv-x="1128" 
d="M1001 1190l138 24q37 -70 37 -147q0 -76 -49.5 -123t-125.5 -51h-22v-623q0 -166 8 -270h-160l-10 162h-4q-41 -74 -125 -129.5t-203 -55.5q-63 0 -119.5 20.5t-108.5 67t-83 135.5t-31 212v579h181v-549q0 -315 221 -315q84 0 147.5 49t89.5 117q16 39 17 92v606h143
q96 0 96 82q0 58 -37 117z" />
    <glyph glyph-name="Aringacute" unicode="&#x1fa;" horiz-adv-x="1253" 
d="M639 1417q-86 0 -136 45t-50 112.5t51 115t137 47.5q84 0 133 -46t49 -116t-50 -114t-134 -44zM637 1493q41 0 66.5 22.5t25.5 61.5q0 37 -25.5 61.5t-68.5 24.5q-41 0 -64.5 -25.5t-23.5 -62.5q0 -35 25.5 -58.5t64.5 -23.5zM750 1950h233l-293 -176h-160zM870 434h-491
l-143 -434h-185l469 1380h217l471 -1380h-190zM416 573h418l-138 398q-29 84 -71 252h-4q-47 -184 -70 -250z" />
    <glyph glyph-name="aringacute" unicode="&#x1fb;" horiz-adv-x="987" 
d="M608 1708h199l-291 -217h-127zM846 608v-370q0 -143 14 -238h-162l-16 125h-6q-43 -63 -122 -105.5t-179 -42.5q-143 0 -223 84t-80 201q0 180 154.5 275.5t441.5 93.5v20q0 37 -7.5 71t-29 73t-69.5 61.5t-120 22.5q-150 0 -258 -74l-41 121q137 86 326 86
q207 0 292 -115t85 -289zM672 334l-2 172q-418 8 -418 -223q0 -84 48 -128t122 -44q90 0 153.5 48t88.5 117q8 25 8 58zM494 1065q-90 0 -148.5 53t-58.5 133q0 84 57 138.5t152 54.5q90 0 146 -54.5t56 -138.5q0 -80 -59 -133t-145 -53zM492 1141q47 0 76.5 32.5t29.5 79.5
q0 49 -29.5 82t-79.5 33q-45 0 -71.5 -34t-26.5 -83q0 -43 29 -76.5t72 -33.5z" />
    <glyph glyph-name="AEacute" unicode="&#x1fc;" horiz-adv-x="1613" 
d="M182 0h-184l631 1380h864l-2 -149h-586l53 -440h515v-148h-492l61 -493h506l-2 -150h-657l-62 485h-424zM463 631h344l-45 397q-20 164 -25 223h-8q-20 -57 -88 -217zM999 1694h220l-263 -240h-145z" />
    <glyph glyph-name="aeacute" unicode="&#x1fd;" horiz-adv-x="1583" 
d="M1503 477h-665q-4 -172 84 -266t233 -94q152 0 270 55l33 -127q-129 -68 -325 -68q-131 0 -232.5 57.5t-144.5 162.5h-6q-47 -102 -143.5 -161t-223.5 -59q-147 0 -228 83t-81 200q0 174 155.5 268.5t440.5 89.5v41q0 25 -8.5 57t-30 70.5t-71.5 65.5t-120 27
q-147 0 -254 -74l-43 117q139 90 310 90q252 0 319 -209h4q49 98 139.5 153.5t206.5 55.5q106 0 187.5 -47t121 -121t59 -145.5t19.5 -141.5q0 -53 -6 -80zM674 352v146q-422 8 -422 -224q0 -76 49 -119.5t123 -43.5q92 -2 154.5 47t85.5 123q10 36 10 71zM838 606h499
q2 57 -17.5 117.5t-75.5 111t-140 50.5q-123 0 -191.5 -88.5t-74.5 -190.5zM877 1419h198l-250 -293h-127z" />
    <glyph glyph-name="Oslashacute" unicode="&#x1fe;" horiz-adv-x="1411" 
d="M229 -88l-100 82l127 178q-182 199 -182 512q0 324 180 522.5t457 198.5q197 0 344 -111l121 166l108 -74l-127 -176q178 -195 178 -508q0 -344 -182 -534.5t-446 -190.5q-197 0 -349 111zM360 324l607 841q-113 96 -260 97q-213 0 -332 -168t-119 -402q0 -197 100 -370z
M1051 1057l-605 -838q104 -98 259 -98q207 0 327.5 166t120.5 409q0 201 -96 361h-6zM803 1710h217l-262 -240h-146z" />
    <glyph glyph-name="oslashacute" unicode="&#x1ff;" horiz-adv-x="1124" 
d="M567 1012q141 0 250 -70l86 123l80 -55l-88 -129q152 -145 152 -379q0 -254 -145.5 -389.5t-338.5 -135.5q-145 0 -252 70l-90 -125l-76 62l86 122q-154 147 -153 383q0 240 139 381.5t350 141.5zM330 244l405 573q-70 59 -174 60q-152 0 -229.5 -116t-77.5 -267
q0 -147 72 -248zM797 739l-406 -569q70 -57 166 -57q139 0 226 107.5t87 275.5q0 139 -69 243h-4zM645 1419h197l-250 -293h-127z" />
    <glyph glyph-name="Scommaaccent" unicode="&#x218;" horiz-adv-x="1009" 
d="M86 68l47 149q141 -90 318 -90q135 0 211.5 64.5t76.5 170.5q0 94 -60.5 157t-199.5 116q-365 133 -364 393q0 164 123.5 269.5t322.5 105.5q188 0 303 -68l-49 -145q-106 66 -260 65q-129 0 -194.5 -62.5t-65.5 -143.5q0 -94 62.5 -151.5t211.5 -115.5
q180 -70 265.5 -164t85.5 -241q0 -170 -124 -285t-358 -115q-98 0 -196.5 26t-155.5 65zM381 -455l-37 84q154 25 154 133q0 68 -70 125l133 29q82 -53 82 -152q0 -102 -78 -157.5t-184 -61.5z" />
    <glyph glyph-name="scommaaccent" unicode="&#x219;" horiz-adv-x="811" 
d="M82 47l43 135q117 -70 240 -69q92 0 141 41t49 106q0 63 -41 103t-141 77q-264 96 -264 281q0 123 94 207t248 84q147 0 241 -62l-43 -131q-94 59 -203 60q-78 0 -120.5 -39t-42.5 -97q0 -59 42 -94t144 -76q131 -49 195.5 -119.5t64.5 -177.5q0 -135 -98.5 -217
t-270.5 -82q-159 0 -278 70zM279 -455l-35 84q154 25 153 133q0 72 -69 125l133 29q82 -53 82 -152q0 -104 -77.5 -158.5t-186.5 -60.5z" />
    <glyph glyph-name="uni021A" unicode="&#x21a;" horiz-adv-x="1017" 
d="M418 0v1229h-420v151h1022v-151h-422v-1229h-180zM369 -455l-35 84q154 25 153 133q0 68 -69 125l133 29q82 -53 82 -152q0 -104 -77.5 -158.5t-186.5 -60.5z" />
    <glyph glyph-name="uni021B" unicode="&#x21b;" horiz-adv-x="677" 
d="M190 1176l177 53v-238h258v-137h-258v-535q0 -193 135 -192q63 0 104 12l8 -137q-70 -25 -159 -25q-125 0 -195 76q-70 78 -70 260v541h-153v137h153v185zM250 -465l-35 84q154 25 154 133q0 72 -70 125l133 29q82 -53 82 -152q0 -104 -77.5 -158.5t-186.5 -60.5z" />
    <glyph glyph-name="uni021C" unicode="&#x21c;" horiz-adv-x="983" 
d="M129 -236l-23 142q256 37 432.5 165t176.5 302q0 117 -81 193.5t-220 74.5q-84 0 -193 -35l-24 127q180 39 295.5 131t115.5 209q0 84 -63.5 135.5t-163.5 53.5q-139 0 -281 -74l-37 121q57 37 156.5 66.5t196.5 29.5q166 0 269 -84t103 -219q0 -111 -70.5 -198
t-180.5 -138v-6q160 -14 263 -114.5t103 -262.5q0 -236 -211 -407t-563 -212z" />
    <glyph glyph-name="uni021D" unicode="&#x21d;" horiz-adv-x="874" 
d="M88 -428l-16 139q39 2 90 11.5t140 36t158.5 66.5t122 110.5t52.5 160.5q0 96 -67.5 159.5t-196.5 63.5q-72 0 -181 -30l-24 127q377 88 377 282q0 82 -57.5 127t-155.5 45q-109 0 -252 -77l-39 118q156 100 334 101q156 0 251 -77t95 -204q0 -98 -58.5 -173t-158.5 -116
v-4q143 -16 230 -102t87 -219q0 -209 -193.5 -362.5t-537.5 -182.5z" />
    <glyph glyph-name="uni0232" unicode="&#x232;" horiz-adv-x="1107" 
d="M643 0h-180v586l-438 794h204l195 -381q113 -231 137 -284h4q25 57 140 284l198 381h201l-461 -792v-588zM309 1614h492v-113h-492v113z" />
    <glyph glyph-name="uni0233" unicode="&#x233;" horiz-adv-x="964" 
d="M18 991h197l215 -585q37 -96 66 -203h4q2 6 25.5 85t37.5 122l197 581h190l-270 -706q-100 -262 -175 -401.5t-165 -219.5q-113 -94 -221 -115l-45 150q86 27 157 88q92 72 152 201q14 33 14 43q0 16 -14 47zM254 1317h461v-117h-461v117z" />
    <glyph glyph-name="circumflex" unicode="&#x2c6;" 
d="M244 1419h125l196 -293h-137l-119 193h-4l-119 -193h-135z" />
    <glyph glyph-name="caron" unicode="&#x2c7;" 
d="M375 1126h-129l-197 293h137l121 -194h4l121 194h135z" />
    <glyph glyph-name="uni02C9" unicode="&#x2c9;" 
d="M78 1317h461v-117h-461v117z" />
    <glyph glyph-name="breve" unicode="&#x2d8;" 
d="M53 1397h107q10 -63 48 -102.5t97 -39.5q70 0 107 41t43 101h106q0 -115 -69.5 -185.5t-184.5 -70.5q-127 0 -190.5 75t-63.5 181z" />
    <glyph glyph-name="dotaccent" unicode="&#x2d9;" 
d="M285 1167q-43 0 -73 31t-30 74q0 45 31 75.5t74 30.5t71.5 -30.5t28.5 -75.5q0 -43 -28.5 -74t-73.5 -31z" />
    <glyph glyph-name="ring" unicode="&#x2da;" 
d="M291 1100q-90 0 -148.5 53t-58.5 133q0 82 57.5 137.5t151.5 55.5q90 0 146.5 -54.5t56.5 -138.5q0 -80 -58.5 -133t-146.5 -53zM291 1176q47 0 75.5 32.5t28.5 79.5q0 49 -29.5 82t-76.5 33t-74 -34t-27 -83q0 -43 29 -76.5t74 -33.5z" />
    <glyph glyph-name="ogonek" unicode="&#x2db;" 
d="M252 8h117q-109 -137 -109 -205q0 -47 27.5 -74.5t74.5 -27.5q53 0 95 20l28 -94q-66 -47 -163 -47q-88 0 -140.5 46t-52.5 130q0 119 123 252z" />
    <glyph glyph-name="tilde" unicode="&#x2dc;" 
d="M154 1161h-99q-2 98 35 155.5t105 57.5q41 0 127 -45q61 -35 88 -35q49 0 55 86h96q4 -207 -139 -206q-45 0 -127 43q-61 37 -88 36q-47 0 -53 -92z" />
    <glyph glyph-name="hungarumlaut" unicode="&#x2dd;" 
d="M252 1419h176l-225 -278h-113zM547 1419h176l-225 -278h-113z" />
    <glyph glyph-name="uni037E" unicode="&#x37e;" horiz-adv-x="444" 
d="M188 -238l-127 -14q76 268 95 485l198 11q-25 -113 -76 -257.5t-90 -224.5zM242 662q-55 0 -90 38.5t-35 96.5q0 59 35.5 97t93 38t92.5 -38t35 -97q0 -57 -36 -96t-95 -39z" />
    <glyph glyph-name="tonos" unicode="&#x384;" horiz-adv-x="616" 
d="M281 1421h182l-170 -293h-121z" />
    <glyph glyph-name="dieresistonos" unicode="&#x385;" horiz-adv-x="708" 
d="M311 1454h156l-100 -321h-99zM102 1174q-41 0 -67.5 28.5t-26.5 67.5q0 41 29 69.5t69 28.5q39 0 66 -28.5t27 -69.5q0 -39 -28 -67.5t-69 -28.5zM596 1174q-39 0 -65.5 28.5t-26.5 67.5q0 41 27.5 69.5t68.5 28.5q39 0 66.5 -28.5t27.5 -69.5q0 -39 -27.5 -67.5
t-70.5 -28.5z" />
    <glyph glyph-name="Alphatonos" unicode="&#x386;" horiz-adv-x="1259" 
d="M874 434h-487l-143 -434h-185l469 1380h215l471 -1380h-190zM422 573h418l-138 398q-37 115 -71 252h-4q-49 -193 -68 -250zM143 1380h162l-69 -317h-107z" />
    <glyph glyph-name="anoteleia" unicode="&#x387;" horiz-adv-x="444" 
d="M219 514q-55 0 -92 40t-37 97q0 61 37 101.5t94 40.5q59 0 95 -39t36 -103q0 -59 -37 -98t-96 -39z" />
    <glyph glyph-name="Epsilontonos" unicode="&#x388;" horiz-adv-x="1148" 
d="M1012 795v-148h-535v-497h598v-150h-778v1380h747v-149h-567v-436h535zM14 1380h164l-72 -317h-106z" />
    <glyph glyph-name="Etatonos" unicode="&#x389;" horiz-adv-x="1478" 
d="M297 1380h178v-577h668v577h180v-1380h-180v647h-668v-647h-178v1380zM14 1380h162l-70 -317h-106z" />
    <glyph glyph-name="Iotatonos" unicode="&#x38a;" horiz-adv-x="632" 
d="M297 1380h180v-1380h-180v1380zM14 1380h164l-72 -317h-106z" />
    <glyph glyph-name="Omicrontonos" unicode="&#x38c;" horiz-adv-x="1490" 
d="M776 -23q-274 0 -447 195t-173 508q0 326 179 525.5t460 199.5q283 0 452.5 -194.5t169.5 -505.5q0 -342 -182.5 -535t-458.5 -193zM786 123q205 0 324 164t119 409q0 227 -116 395.5t-325 168.5q-211 0 -327.5 -168t-116.5 -408q0 -231 119.5 -396t322.5 -165zM14 1380
h164l-72 -317h-106z" />
    <glyph glyph-name="Upsilontonos" unicode="&#x38e;" horiz-adv-x="1447" 
d="M262 1247l31 146q78 -6 174 -57.5t164 -129.5q174 -195 213 -506h8q43 289 240 502q72 76 157.5 128t155.5 63l31 -146q-135 -51 -272.5 -208.5t-200.5 -401.5q-37 -147 -37 -283v-354h-181v356q0 147 -28 279q-57 264 -183.5 421.5t-271.5 190.5zM14 1380h162l-70 -317
h-106z" />
    <glyph glyph-name="Omegatonos" unicode="&#x38f;" horiz-adv-x="1519" 
d="M1157 147v-6h299v-141h-518v113q135 90 221 246.5t86 359.5q0 209 -118.5 375t-323.5 166q-207 0 -330 -162t-123 -381q0 -193 89 -358.5t216 -245.5v-113h-520v141h299v6q-117 96 -193.5 247t-76.5 337q0 295 183 484.5t460 189.5q281 0 452 -187.5t171 -467.5
q0 -199 -78 -354t-195 -249zM14 1380h164l-72 -317h-106z" />
    <glyph glyph-name="iotadieresistonos" unicode="&#x390;" horiz-adv-x="483" 
d="M330 991v-751q0 -70 19.5 -96.5t76.5 -24.5l-12 -131q-31 -10 -78 -11q-88 0 -136 53.5t-48 190.5v770h178zM219 1425h154l-101 -319h-96zM8 1147q-39 0 -65.5 28.5t-26.5 67.5t28.5 66.5t67.5 27.5t64.5 -26.5t25.5 -67.5q0 -39 -26.5 -67.5t-67.5 -28.5zM502 1147
q-37 0 -63.5 28.5t-26.5 67.5t27.5 66.5t66.5 27.5t65.5 -26.5t26.5 -67.5q0 -39 -26.5 -67.5t-69.5 -28.5z" />
    <glyph glyph-name="Alpha" unicode="&#x391;" horiz-adv-x="1253" 
d="M868 434h-489l-143 -434h-185l471 1380h213l471 -1380h-190zM416 573h418l-138 398q-29 84 -71 252h-4q-47 -184 -70 -250z" />
    <glyph glyph-name="Beta" unicode="&#x392;" horiz-adv-x="1110" 
d="M156 4v1356q129 31 325 31q256 0 377 -101q117 -86 117 -243q0 -100 -62.5 -182.5t-171.5 -121.5v-6q115 -27 200 -114.5t85 -229.5q0 -168 -119 -276q-137 -129 -475 -129q-157 0 -276 16zM334 1241v-446h162q137 0 217 65.5t80 167.5q0 225 -301 225q-101 0 -158 -12z
M334 662v-527q49 -8 149 -8q154 0 254.5 64.5t100.5 203.5q0 133 -100.5 200t-256.5 67h-147z" />
    <glyph glyph-name="Gamma" unicode="&#x393;" horiz-adv-x="923" 
d="M154 1380h741v-149h-561v-1231h-180v1380z" />
    <glyph glyph-name="Delta" unicode="&#x394;" horiz-adv-x="1269" 
d="M53 0v102l479 1278h203l475 -1278v-102h-1157zM244 150h768l-281 759q-74 203 -102 308h-6q-18 -72 -91 -281z" />
    <glyph glyph-name="Epsilon" unicode="&#x395;" horiz-adv-x="1007" 
d="M868 795v-148h-534v-497h598v-150h-778v1380h747v-149h-567v-436h534z" />
    <glyph glyph-name="Zeta" unicode="&#x396;" horiz-adv-x="1132" 
d="M61 0v104l764 1121v6h-698v149h932v-108l-762 -1116v-6h772v-150h-1008z" />
    <glyph glyph-name="Eta" unicode="&#x397;" horiz-adv-x="1335" 
d="M154 1380h180v-577h667v577h181v-1380h-181v647h-667v-647h-180v1380z" />
    <glyph glyph-name="Theta" unicode="&#x398;" horiz-adv-x="1411" 
d="M696.5 -23q-276.5 0 -449.5 194t-173 507q0 326 180 526.5t460.5 200.5t451.5 -194.5t171 -508.5q0 -340 -182 -532.5t-458.5 -192.5zM707 123q205 0 323.5 164t118.5 409q0 227 -115.5 395.5t-324.5 168.5q-213 0 -330 -168t-117 -410q0 -229 121 -394t324 -165z
M428 784h555v-147h-555v147z" />
    <glyph glyph-name="Iota" unicode="&#x399;" horiz-adv-x="489" 
d="M154 1380h180v-1380h-180v1380z" />
    <glyph glyph-name="Kappa" unicode="&#x39a;" horiz-adv-x="1110" 
d="M156 0v1380h178v-665h6q47 68 109 147l421 518h222l-500 -585l538 -795h-210l-453 678l-133 -152v-526h-178z" />
    <glyph glyph-name="Lambda" unicode="&#x39b;" horiz-adv-x="1247" 
d="M1208 0h-192l-320 950q-33 102 -71 262h-7q-25 -115 -67 -260l-313 -952h-187l471 1380h211z" />
    <glyph glyph-name="Mu" unicode="&#x39c;" horiz-adv-x="1646" 
d="M1352 0l-33 606q-23 424 -23 596h-4q-94 -303 -174 -524l-244 -670h-135l-225 658q-104 315 -158 536h-4q-6 -264 -26 -610l-37 -592h-170l96 1380h227l236 -667q82 -246 139 -465h4q49 188 148 465l245 667h228l86 -1380h-176z" />
    <glyph glyph-name="Nu" unicode="&#x39d;" horiz-adv-x="1347" 
d="M324 0h-168v1380h196l441 -698q160 -258 245 -449l6 3q-20 231 -20 567v577h168v-1380h-180l-439 700q-172 272 -256 461l-6 -2q12 -209 13 -569v-590z" />
    <glyph glyph-name="Xi" unicode="&#x39e;" horiz-adv-x="1105" 
d="M111 1380h901v-147h-901v147zM178 788h766v-147h-766v147zM88 150h946v-150h-946v150z" />
    <glyph glyph-name="Omicron" unicode="&#x39f;" horiz-adv-x="1411" 
d="M694 -23q-274 0 -447 195t-173 508q0 326 179 525.5t460 199.5q283 0 452.5 -194.5t169.5 -505.5q0 -342 -182.5 -535t-458.5 -193zM705 123q205 0 323.5 164t118.5 409q0 227 -116 395.5t-324 168.5q-211 0 -328 -168t-117 -408q0 -231 120 -396t323 -165z" />
    <glyph glyph-name="Pi" unicode="&#x3a0;" horiz-adv-x="1298" 
d="M1143 1380v-1380h-180v1229h-629v-1229h-180v1380h989z" />
    <glyph glyph-name="Rho" unicode="&#x3a1;" horiz-adv-x="1089" 
d="M156 0v1364q160 27 342 27q260 0 387 -115q121 -106 121 -289q0 -184 -107 -295q-145 -152 -422 -151q-94 0 -143 12v-553h-178zM334 1235v-537q55 -14 147 -14q162 0 254 77t92 216q0 135 -87 203.5t-238 68.5q-115 0 -168 -14z" />
    <glyph glyph-name="Sigma" unicode="&#x3a3;" horiz-adv-x="1130" 
d="M287 156v-6h786v-150h-1020v106l479 580l-454 576v118h930v-147h-699v-8l422 -533z" />
    <glyph glyph-name="Tau" unicode="&#x3a4;" horiz-adv-x="1017" 
d="M418 0v1229h-420v151h1022v-151h-422v-1229h-180z" />
    <glyph glyph-name="Upsilon" unicode="&#x3a5;" horiz-adv-x="1204" 
d="M23 1247l30 146q78 -6 174.5 -57.5t163.5 -129.5q174 -195 213 -506h8q43 289 240 502q72 76 158 128t155 63l31 -146q-135 -51 -272.5 -208.5t-200.5 -401.5q-37 -147 -37 -283v-354h-180v356q0 147 -29 279q-57 264 -183 421.5t-271 190.5z" />
    <glyph glyph-name="Phi" unicode="&#x3a6;" horiz-adv-x="1470" 
d="M819 53v-106h-172v106q-236 20 -404.5 181t-168.5 448q0 152 52 276.5t138 201.5t185.5 120t201.5 51v103h172v-103q233 -16 403.5 -184t170.5 -455q0 -147 -49.5 -268t-132 -197.5t-184 -121t-212.5 -52.5zM649 182v1022q-150 -12 -270.5 -149t-120.5 -369
q0 -215 114.5 -349.5t276.5 -154.5zM821 1204v-1022q160 14 275.5 148.5t115.5 357.5q0 231 -115.5 366.5t-275.5 149.5z" />
    <glyph glyph-name="Chi" unicode="&#x3a7;" horiz-adv-x="1169" 
d="M1118 0h-207l-178 305q-90 145 -158 273h-4q-61 -125 -149 -275l-166 -303h-205l422 698l-405 682h206l183 -323q86 -150 127 -234h6q49 102 125 234l186 323h207l-420 -671z" />
    <glyph glyph-name="Psi" unicode="&#x3a8;" horiz-adv-x="1402" 
d="M1307 1380v-399q0 -260 -141.5 -403.5t-379.5 -155.5v-422h-170v422q-104 4 -194 33.5t-165 88t-118 157t-43 229.5v450h174v-419q0 -379 346 -398v817h170v-819q152 8 249.5 112.5t97.5 325.5v381h174z" />
    <glyph glyph-name="Omega" unicode="&#x3a9;" horiz-adv-x="1443" 
d="M1081 147v-6h301v-141h-518v113q133 90 219 250.5t86 359.5q0 209 -118.5 373t-323.5 164q-207 0 -330 -162t-123 -379q0 -186 90.5 -356t217.5 -250v-113h-521v141h299v6q-115 96 -192.5 249t-79.5 337q0 295 183.5 483.5t459.5 188.5q281 0 452 -186.5t171 -466.5
q0 -197 -78 -351t-195 -254z" />
    <glyph glyph-name="Iotadieresis" unicode="&#x3aa;" horiz-adv-x="489" 
d="M55 1456q-43 0 -71.5 30t-28.5 73q0 41 29.5 71.5t72.5 30.5q41 0 70 -29.5t29 -72.5t-28 -73t-73 -30zM430 1456q-43 0 -70.5 30t-27.5 73t29.5 72.5t72.5 29.5q41 0 69.5 -29.5t28.5 -72.5t-27.5 -73t-74.5 -30zM154 1380h180v-1380h-180v1380z" />
    <glyph glyph-name="Upsilondieresis" unicode="&#x3ab;" horiz-adv-x="1204" 
d="M422 1427q-43 0 -71.5 30t-28.5 73q0 41 29.5 71.5t72.5 30.5q41 0 69.5 -29.5t28.5 -72.5t-27.5 -73t-72.5 -30zM797 1427q-43 0 -71 30t-28 73t30 72.5t73 29.5q41 0 69.5 -29.5t28.5 -72.5t-27.5 -73t-74.5 -30zM23 1247l30 146q78 -6 174.5 -57.5t163.5 -129.5
q174 -195 213 -506h8q43 289 240 502q72 76 158 128t155 63l31 -146q-135 -51 -272.5 -208.5t-200.5 -401.5q-37 -147 -37 -283v-354h-180v356q0 147 -29 279q-57 264 -183 421.5t-271 190.5z" />
    <glyph glyph-name="alphatonos" unicode="&#x3ac;" horiz-adv-x="1128" 
d="M586 1405h180l-170 -293h-121zM852 991h149q-27 -272 -26 -710q0 -88 22.5 -126t75.5 -40l-14 -129q-18 -8 -62 -9q-156 0 -170 209h-6q-113 -209 -338 -209q-178 0 -291.5 137.5t-113.5 360.5q0 236 132 386.5t310 150.5q219 0 305 -195h9q6 98 18 174zM260 481v-4
q0 -145 73 -250.5t195 -105.5q90 0 165 74.5t100 175.5q12 53 12 139q0 74 -8 108q-18 104 -89 178t-165 74q-123 0 -203 -110.5t-80 -278.5z" />
    <glyph glyph-name="epsilontonos" unicode="&#x3ad;" horiz-adv-x="901" 
d="M526 1405h181l-170 -293h-121zM326 526v9q-193 43 -197 210q0 106 104.5 186.5t290.5 80.5q188 0 301 -76l-39 -119q-35 25 -106.5 44.5t-140.5 19.5q-104 0 -167 -41t-63 -107q0 -72 76 -107.5t201 -35.5h121v-127h-127q-141 0 -226.5 -42t-85.5 -128q0 -84 77 -131
t192 -47q76 0 158.5 22.5t131.5 50.5l33 -120q-57 -39 -158.5 -65t-203.5 -26q-172 0 -295 74t-123 228q0 90 68.5 159.5t177.5 87.5z" />
    <glyph glyph-name="etatonos" unicode="&#x3ae;" horiz-adv-x="1136" 
d="M616 1405h183l-172 -293h-119zM311 827h4q41 78 127 131.5t201 53.5q57 0 113.5 -19.5t112 -63.5t90 -131t34.5 -208v-627q0 -279 23 -369h-172q-31 78 -31 363v614q0 131 -55.5 212t-173.5 81q-84 0 -149.5 -53t-92.5 -131q-12 -31 -12 -82v-598h-180v723q0 182 -29 268
h162q28 -58 28 -164z" />
    <glyph glyph-name="iotatonos" unicode="&#x3af;" horiz-adv-x="483" 
d="M272 1405h185l-172 -293h-121zM330 991v-751q0 -70 19.5 -96.5t76.5 -24.5l-10 -131q-31 -10 -80 -11q-88 0 -137 53.5t-49 190.5v770h180z" />
    <glyph glyph-name="upsilondieresistonos" unicode="&#x3b0;" horiz-adv-x="1073" 
d="M735 991h170q29 -53 51.5 -162.5t22.5 -224.5q0 -119 -21.5 -222t-69.5 -198.5t-140.5 -151t-221.5 -55.5q-172 0 -280.5 102.5t-108.5 299.5v278q0 266 -22 334h172q29 -33 28 -184v-404q0 -139 67 -207.5t159 -68.5q127 0 194.5 122t67.5 339q0 125 -22.5 240.5
t-45.5 162.5zM496 1423h153l-100 -319h-96zM285 1147q-39 0 -65.5 27.5t-26.5 66.5t27.5 66.5t68.5 27.5q39 0 64.5 -26.5t25.5 -67.5q0 -39 -26.5 -66.5t-67.5 -27.5zM780 1147q-39 0 -64.5 27.5t-25.5 66.5q0 41 27.5 67.5t66.5 26.5t66 -26.5t27 -67.5q0 -39 -27 -66.5
t-70 -27.5z" />
    <glyph glyph-name="alpha" unicode="&#x3b1;" horiz-adv-x="1128" 
d="M852 991h149q-27 -272 -26 -710q0 -88 22.5 -126t75.5 -40l-14 -129q-18 -8 -62 -9q-156 0 -170 209h-6q-113 -209 -338 -209q-178 0 -291.5 137.5t-113.5 360.5q0 236 132 386.5t310 150.5q219 0 305 -195h9q6 98 18 174zM260 481v-4q0 -145 73 -250.5t195 -105.5
q90 0 165 74.5t100 175.5q12 53 12 139q0 74 -8 108q-18 104 -89 178t-165 74q-123 0 -203 -110.5t-80 -278.5z" />
    <glyph glyph-name="beta" unicode="&#x3b2;" horiz-adv-x="1146" 
d="M324 102h-5v-137q0 -270 25 -371h-168q-31 82 -31 349v942q0 334 154 483q113 109 291 109q156 0 258 -99.5t102 -257.5q0 -113 -54 -197.5t-130 -121.5v-10q127 -25 215 -127.5t88 -262.5q0 -197 -126 -310.5t-300 -113.5q-198 0 -319 125zM319 905v-624
q39 -66 115 -115t174 -49q123 0 202 79.5t79 202.5q0 143 -88 222t-232 84h-55v122q25 0 35 2q111 8 172 84t61 179q0 109 -58 175t-151 66q-254 0 -254 -428z" />
    <glyph glyph-name="gamma" unicode="&#x3b3;" horiz-adv-x="950" 
d="M553 -406h-178q12 377 -35 582q-51 223 -154.5 449.5t-195.5 365.5h203q76 -115 167 -337t134 -433h6q233 424 233 703v67h170q4 -16 4 -67q0 -340 -350 -871q-10 -16 -10 -49q0 -7 6 -410z" />
    <glyph glyph-name="delta" unicode="&#x3b4;" horiz-adv-x="1118" 
d="M954 1378l-53 -121q-39 29 -116.5 56.5t-153.5 27.5q-80 0 -124 -26.5t-44 -65.5q0 -27 20.5 -54.5t44 -47t82.5 -64.5l168 -133q262 -203 262 -467q0 -225 -138 -365.5t-343 -140.5q-201 0 -341 134.5t-140 365.5q0 176 104.5 307t270.5 209v11l-45 36
q-127 104 -127 205q0 90 91 161t255 71q100 0 190 -30t137 -69zM670 823l-111 86q-299 -158 -299 -432q0 -166 92 -265t217 -99q123 0 207 97t84 261q0 205 -190 352z" />
    <glyph glyph-name="epsilon" unicode="&#x3b5;" horiz-adv-x="901" 
d="M326 526v9q-94 20 -144.5 77.5t-52.5 132.5q0 106 104.5 186.5t290.5 80.5q188 0 301 -74l-39 -121q-35 25 -106.5 44.5t-140.5 19.5q-104 0 -167 -41t-63 -107q0 -72 76 -107.5t201 -35.5h121v-127h-127q-141 0 -226.5 -42t-85.5 -128q0 -84 77 -131t192 -47
q78 0 160.5 22.5t129.5 52.5l33 -122q-57 -39 -158.5 -65t-203.5 -26q-172 0 -295 74t-123 228q0 92 68.5 161.5t177.5 85.5z" />
    <glyph glyph-name="zeta" unicode="&#x3b6;" horiz-adv-x="837" 
d="M698 -293l-118 35q20 35 42.5 109.5t24.5 115.5q-141 20 -241 56q-326 106 -326 454q0 217 134 445.5t368 388.5v6h-146q-164 0 -239 22l18 119q66 -8 250 -8h342l27 -125q-246 -125 -409 -357.5t-163 -457.5q0 -156 64.5 -235.5t189.5 -124.5q100 -37 287 -62
q18 -4 18 -22q0 -84 -39 -193t-84 -166z" />
    <glyph glyph-name="eta" unicode="&#x3b7;" horiz-adv-x="1136" 
d="M311 827h4q41 78 127 131.5t201 53.5q57 0 113.5 -19.5t112 -63.5t90 -131t34.5 -208v-627q0 -279 23 -369h-172q-31 78 -31 363v614q0 131 -55.5 212t-173.5 81q-84 0 -149.5 -53t-92.5 -131q-12 -31 -12 -82v-598h-180v723q0 182 -29 268h162q28 -58 28 -164z" />
    <glyph glyph-name="theta" unicode="&#x3b8;" horiz-adv-x="1093" 
d="M549 -23q-223 0 -347 195t-124 567q0 326 126 532t353 206q229 0 344 -198t115 -540q0 -356 -117 -559t-350 -203zM256 817h582q0 231 -74 378.5t-217 147.5q-131 0 -211 -153.5t-80 -372.5zM840 684h-584q0 -268 82 -420.5t217 -152.5q139 0 212 155.5t73 417.5z" />
    <glyph glyph-name="iota" unicode="&#x3b9;" horiz-adv-x="483" 
d="M330 991v-751q0 -70 19.5 -96.5t76.5 -24.5l-10 -131q-31 -10 -80 -11q-88 0 -137 53.5t-49 190.5v770h180z" />
    <glyph glyph-name="kappa" unicode="&#x3ba;" horiz-adv-x="1009" 
d="M512 537v-7q111 -25 305 -282l180 -248h-209l-155 211q-174 227 -285 229h-18v-440h-178v776q0 160 -23 215h172q29 -35 29 -168v-272h8l260 261l174 179h211v-8z" />
    <glyph glyph-name="lambda" unicode="&#x3bb;" horiz-adv-x="966" 
d="M745 0l-200 567q-31 84 -68 215h-8q-12 -53 -63 -209l-205 -573h-187l359 918q10 29 10 47q0 25 -12 53q-55 150 -114.5 230.5t-143.5 80.5q-23 0 -35 -2l16 139q23 8 70 9q133 0 216 -112t177 -355l379 -1008h-191z" />
    <glyph glyph-name="mu" unicode="&#x3bc;" horiz-adv-x="1132" 
d="M825 154h-6q-37 -70 -110.5 -121t-173.5 -51q-156 0 -218 108v-121q0 -274 23 -375h-162q-29 86 -28 367v1030h180v-585q0 -125 55 -203t168 -78q84 0 146.5 49t88.5 117q16 43 17 94v606h180v-719q0 -84 20.5 -118.5t73.5 -36.5l-14 -131q-31 -8 -64 -9q-153 1 -176 177
z" />
    <glyph glyph-name="nu" unicode="&#x3bd;" horiz-adv-x="960" 
d="M8 991h191l190 -555q23 -63 84 -260h8q256 500 256 723q0 63 -2 92h168q6 -31 6 -71q0 -190 -97 -410.5t-271 -509.5h-170z" />
    <glyph glyph-name="xi" unicode="&#x3be;" horiz-adv-x="886" 
d="M739 889v-129h-55q-205 -2 -311.5 -88t-106.5 -221q0 -121 79 -196t237 -118q119 -31 270 -49q20 0 20 -22q0 -78 -38.5 -191t-83.5 -168l-117 35q20 35 41.5 110.5t23.5 114.5q-96 14 -169.5 30.5t-164 51.5t-147.5 82t-97 125t-40 178q0 143 91 252t228 145v11
q-227 74 -227 288q0 139 112.5 243t315.5 104q154 0 250 -56l-39 -125q-82 47 -201 47q-123 0 -190.5 -65.5t-67.5 -157.5q0 -104 81 -164.5t208 -64.5q14 0 47 -1t51 -1z" />
    <glyph glyph-name="omicron" unicode="&#x3bf;" horiz-adv-x="1124" 
d="M553 -23q-205 0 -340 140.5t-135 369.5q0 240 140 382.5t351 142.5q213 0 345.5 -141.5t132.5 -366.5q0 -256 -147.5 -391.5t-346.5 -135.5zM561 113q129 0 215 109.5t86 275.5q0 145 -74.5 262t-222 117t-225.5 -114t-78 -269q0 -164 84 -272.5t215 -108.5z" />
    <glyph glyph-name="pi" unicode="&#x3c0;" horiz-adv-x="1136" 
d="M1065 852h-137v-557q0 -201 26 -295h-172q-33 55 -32 276v576h-324q-6 -211 -47 -473t-92 -379h-170q53 141 93 393t44 459q-123 0 -201 -18l-24 106q76 51 284 51h770z" />
    <glyph glyph-name="rho" unicode="&#x3c1;" horiz-adv-x="1153" 
d="M322 123h-5v-160q0 -274 17 -369h-172q-23 84 -23 361v459q0 301 144 452q135 145 340 146q207 0 330.5 -139.5t123.5 -362.5q0 -250 -133 -391.5t-321 -141.5q-207 1 -301 146zM317 471v-82q0 -41 9 -72q25 -86 99.5 -142t168.5 -56q139 0 220 107.5t81 277.5
q0 154 -77 257t-210 103q-119 0 -205 -100t-86 -293z" />
    <glyph glyph-name="sigma1" unicode="&#x3c2;" horiz-adv-x="854" 
d="M836 967l-41 -131q-84 37 -183 36q-158 0 -255 -110.5t-97 -267.5q0 -266 279 -351q106 -31 266 -55q18 -2 18 -29q0 -80 -37.5 -190.5t-78.5 -163.5l-121 37q20 33 41.5 108.5t25.5 114.5q-104 16 -202 43q-168 47 -270.5 165t-102.5 306q0 213 144.5 373t389.5 160
q140 0 224 -45z" />
    <glyph glyph-name="sigma" unicode="&#x3c3;" horiz-adv-x="1134" 
d="M844 883v-6q86 -61 135 -162t49 -213q0 -254 -143.5 -389.5t-331.5 -135.5q-205 0 -340 139.5t-135 368.5q0 244 141 385.5t369 141.5h190h109q205 0 223 2l-6 -137q-115 0 -260 6zM559 113q123 0 207 110.5t84 278.5q0 143 -75 259t-216 116q-143 0 -220 -115t-77 -268
q0 -164 84 -272.5t213 -108.5z" />
    <glyph glyph-name="tau" unicode="&#x3c4;" horiz-adv-x="845" 
d="M657 123l-8 -127q-27 -18 -98 -19q-119 0 -174 75t-55 233v567h-109q-115 0 -201 -16l-22 104q68 51 268 51h571l-22 -139h-305v-563q0 -168 112 -168q33 0 43 2z" />
    <glyph glyph-name="upsilon" unicode="&#x3c5;" horiz-adv-x="1073" 
d="M735 991h170q29 -53 51.5 -162.5t22.5 -224.5q0 -119 -21.5 -222t-69.5 -198.5t-140.5 -151t-221.5 -55.5q-172 0 -280.5 102.5t-108.5 299.5v278q0 266 -22 334h172q29 -33 28 -184v-404q0 -139 67 -207.5t159 -68.5q127 0 194.5 122t67.5 339q0 125 -22.5 240.5
t-45.5 162.5z" />
    <glyph glyph-name="phi" unicode="&#x3c6;" horiz-adv-x="1314" 
d="M418 1020l69 -100q-231 -147 -231 -414q0 -156 83 -263.5t239 -131.5v600q0 152 71.5 226.5t181.5 72.5q156 -2 280 -138.5t124 -351.5q0 -240 -143.5 -380t-348.5 -160v-386h-165v386q-207 16 -353.5 146t-146.5 376q0 195 106.5 330t233.5 188zM743 739v-630
q147 20 233.5 128.5t86.5 280.5q0 147 -72.5 254t-161.5 107q-86 -1 -86 -140z" />
    <glyph glyph-name="chi" unicode="&#x3c7;" horiz-adv-x="935" 
d="M37 991h192l252 -534h8l103 219l149 315h174l-348 -669l361 -713l-168 -45l-295 608l-8 -2l-95 -211l-186 -395l-153 47l354 708z" />
    <glyph glyph-name="psi" unicode="&#x3c8;" horiz-adv-x="1341" 
d="M604 -406v383q-215 14 -341 131t-126 386v268q0 164 -16 229h164q27 -37 26 -184v-299q0 -203 81 -297t212 -102v1142h166v-1142q135 6 220 136t85 341q0 139 -24.5 252.5t-49.5 152.5h166q80 -123 80 -391q0 -117 -25.5 -220.5t-80 -193.5t-149.5 -146t-222 -63v-383
h-166z" />
    <glyph glyph-name="omega" unicode="&#x3c9;" horiz-adv-x="1421" 
d="M795 743l-4 -391q-2 -96 47 -160.5t123 -64.5q84 0 145 104.5t61 294.5q0 143 -46 273.5t-117 199.5v5h170q72 -59 120.5 -189.5t48.5 -292.5q0 -262 -110.5 -403.5t-263.5 -141.5q-90 0 -159 47.5t-99 127.5h-9q-78 -174 -262 -175q-145 0 -253.5 133.5t-108.5 395.5
q0 158 51 293t121 205h168v-5q-72 -80 -118 -208.5t-46 -280.5q0 -190 64.5 -286.5t146.5 -96.5q70 0 118 65.5t46 157.5l-4 393h170z" />
    <glyph glyph-name="iotadieresis" unicode="&#x3ca;" horiz-adv-x="483" 
d="M57 1141q-43 0 -71.5 30.5t-28.5 73.5q0 41 29.5 72t72.5 31q41 0 70 -30t29 -73t-28 -73.5t-73 -30.5zM432 1141q-43 0 -70.5 30.5t-27.5 73.5t29.5 73t72.5 30q41 0 70 -30t29 -73t-29 -73.5t-74 -30.5zM330 991v-751q0 -70 19.5 -96.5t76.5 -24.5l-10 -131
q-31 -10 -80 -11q-90 0 -138 53.5t-48 192.5v768h180z" />
    <glyph glyph-name="upsilondieresis" unicode="&#x3cb;" horiz-adv-x="1073" 
d="M338 1141q-43 0 -71.5 30.5t-28.5 73.5q0 41 29.5 72t72.5 31q41 0 69.5 -30t28.5 -73t-27.5 -73.5t-72.5 -30.5zM713 1141q-43 0 -71 30.5t-28 73.5t30 73t73 30q41 0 69.5 -30t28.5 -73t-28.5 -73.5t-73.5 -30.5zM737 991h168q29 -53 51.5 -162.5t22.5 -224.5
q0 -119 -21.5 -222t-69.5 -198.5t-140.5 -151t-221.5 -55.5q-172 0 -280.5 102.5t-108.5 299.5v278q0 266 -22 334h172q29 -33 28 -184v-404q0 -139 67 -207.5t159 -68.5q127 0 194.5 122t67.5 339q0 123 -21.5 238.5t-44.5 164.5z" />
    <glyph glyph-name="omicrontonos" unicode="&#x3cc;" horiz-adv-x="1124" 
d="M592 1405h180l-170 -293h-119zM553 -23q-205 0 -340 140.5t-135 369.5q0 240 140 382.5t351 142.5q213 0 345.5 -141.5t132.5 -366.5q0 -256 -147.5 -391.5t-346.5 -135.5zM561 113q129 0 215 109.5t86 275.5q0 145 -74.5 262t-222 117t-225.5 -114t-78 -269
q0 -164 84 -272.5t215 -108.5z" />
    <glyph glyph-name="upsilontonos" unicode="&#x3cd;" horiz-adv-x="1073" 
d="M557 1405h182l-170 -293h-123zM735 991h170q29 -53 51.5 -162.5t22.5 -224.5q0 -119 -21.5 -222t-69.5 -198.5t-140.5 -151t-221.5 -55.5q-172 0 -280.5 102.5t-108.5 299.5v278q0 266 -22 334h172q29 -33 28 -184v-404q0 -139 67 -207.5t159 -68.5q127 0 194.5 122
t67.5 339q0 125 -22.5 240.5t-45.5 162.5z" />
    <glyph glyph-name="omegatonos" unicode="&#x3ce;" horiz-adv-x="1421" 
d="M737 1405h183l-172 -293h-119zM795 743l-4 -391q-2 -96 47 -160.5t123 -64.5q84 0 145 104.5t61 294.5q0 143 -46 273.5t-117 199.5v5h170q72 -59 120.5 -189.5t48.5 -292.5q0 -262 -110.5 -403.5t-263.5 -141.5q-90 0 -159 47.5t-99 127.5h-9q-78 -174 -262 -175
q-145 0 -253.5 133.5t-108.5 395.5q0 158 51 293t121 205h168v-5q-72 -80 -118 -208.5t-46 -280.5q0 -190 64.5 -286.5t146.5 -96.5q70 0 118 65.5t46 157.5l-4 393h170z" />
    <glyph glyph-name="afii10023" unicode="&#x401;" horiz-adv-x="1007" 
d="M868 795v-148h-534v-497h598v-150h-778v1380h747v-149h-567v-436h534zM332 1477q-43 0 -71 30.5t-28 73.5t29 72.5t72 29.5t70.5 -29.5t27.5 -72.5q0 -45 -27.5 -74.5t-72.5 -29.5zM711 1477q-43 0 -71 30.5t-28 73.5t30 72.5t73 29.5t70.5 -29.5t27.5 -72.5
q0 -45 -27.5 -74.5t-74.5 -29.5z" />
    <glyph glyph-name="afii10051" unicode="&#x402;" horiz-adv-x="1361" 
d="M-2 1380h1061v-149h-500v-393h6q127 84 277 84q213 0 332 -172q106 -145 106 -385q0 -332 -190 -494q-115 -129 -287 -156l-31 140q147 37 225 143q96 127 97 350q0 195 -72 299q-80 125 -229 125q-125 0 -234 -80v-692h-180v1231h-381v149z" />
    <glyph glyph-name="afii10052" unicode="&#x403;" horiz-adv-x="886" 
d="M154 1380h735v-149h-555v-1231h-180v1380zM580 1694h217l-262 -240h-146z" />
    <glyph glyph-name="afii10053" unicode="&#x404;" horiz-adv-x="1179" 
d="M1114 1337l-43 -139q-115 57 -272 57q-227 0 -368.5 -135t-164.5 -344h709v-141h-707q6 -217 149.5 -362.5t375.5 -145.5q158 0 288 55l31 -137q-131 -68 -352 -68q-301 0 -492.5 191.5t-191.5 519.5q0 303 195.5 509t521.5 206q200 0 321 -66z" />
    <glyph glyph-name="afii10054" unicode="&#x405;" horiz-adv-x="1009" 
d="M86 68l47 149q141 -90 318 -90q135 0 211.5 64.5t76.5 170.5q0 94 -60.5 157t-199.5 116q-365 133 -364 393q0 164 123.5 269.5t322.5 105.5q188 0 303 -68l-49 -145q-106 66 -260 65q-129 0 -194.5 -62.5t-65.5 -143.5q0 -94 62.5 -151.5t211.5 -115.5
q180 -70 265.5 -164t85.5 -241q0 -170 -124 -285t-358 -115q-98 0 -196.5 26t-155.5 65z" />
    <glyph glyph-name="afii10055" unicode="&#x406;" horiz-adv-x="489" 
d="M154 1380h180v-1380h-180v1380z" />
    <glyph glyph-name="afii10056" unicode="&#x407;" horiz-adv-x="489" 
d="M154 1380h180v-1380h-180v1380zM55 1477q-43 0 -70.5 30.5t-27.5 73.5t28.5 72.5t71.5 29.5t71 -29.5t28 -72.5q0 -45 -28 -74.5t-73 -29.5zM434 1477q-43 0 -70.5 30.5t-27.5 73.5t29.5 72.5t72.5 29.5t71 -29.5t28 -72.5q0 -45 -28 -74.5t-75 -29.5z" />
    <glyph glyph-name="afii10057" unicode="&#x408;" horiz-adv-x="757" 
d="M436 471v909h180v-923q0 -479 -417 -480q-115 0 -191 33l25 146q68 -27 151 -27q127 0 189.5 74.5t62.5 267.5z" />
    <glyph glyph-name="afii10058" unicode="&#x409;" horiz-adv-x="1804" 
d="M254 1380h772v-520q72 10 168 10q227 0 378.5 -107.5t151.5 -320.5q0 -182 -114 -301q-156 -154 -486 -153q-137 0 -276 14v1229h-420v-418q0 -135 -6 -231.5t-24.5 -210t-62.5 -194.5t-114 -128q-102 -66 -207 -65l-26 143q88 16 147 76q119 117 119 598v579zM1026 723
v-588q43 -8 143 -8q158 0 263.5 80t105.5 229q0 152 -104.5 223.5t-266.5 71.5q-51 0 -141 -8z" />
    <glyph glyph-name="afii10059" unicode="&#x40a;" horiz-adv-x="1837" 
d="M154 1380h180v-551h547v551h178v-538q72 10 190 10q139 0 251 -41t184.5 -137t72.5 -236q0 -184 -115 -299q-154 -152 -481 -151q-162 0 -280 16v674h-547v-678h-180v1380zM1059 705v-568q53 -10 145 -10q158 0 262.5 77t104.5 228q0 143 -101.5 212t-257.5 69
q-75 0 -153 -8z" />
    <glyph glyph-name="afii10060" unicode="&#x40b;" horiz-adv-x="1382" 
d="M-2 1380h1038v-149h-481v-395h4q156 94 313 94q162 0 254 -96q109 -111 109 -322v-512h-178v489q0 152 -66 226q-68 68 -176 67q-143 0 -260 -88v-694h-180v1231h-377v149z" />
    <glyph glyph-name="afii10061" unicode="&#x40c;" horiz-adv-x="1110" 
d="M156 1380h178v-612h55l473 612h213l-522 -632q160 -20 244 -108.5t143 -248.5q14 -41 46 -128l55.5 -147.5t50.5 -115.5h-191q-31 55 -127 326q-53 154 -137 230.5t-246 76.5h-57v-633h-178v1380zM653 1683h217l-262 -239h-145z" />
    <glyph glyph-name="afii10062" unicode="&#x40e;" horiz-adv-x="1067" 
d="M4 1380h203l274 -592q57 -133 99 -241h6l84 248l217 585h188l-291 -712q-156 -391 -258 -523q-133 -170 -311 -170q-68 0 -100 13l16 145q25 -6 68 -6q162 0 270 235q16 37 -6 84zM272 1673h138q8 -59 33.5 -93t91 -34t91 34t33.5 93h138q-16 -221 -267 -221
q-242 0 -258 221z" />
    <glyph glyph-name="afii10145" unicode="&#x40f;" horiz-adv-x="1300" 
d="M154 1380h180v-1230h635v1230h180v-1380h-408l-14 -358h-149l-15 358h-409v1380z" />
    <glyph glyph-name="afii10017" unicode="&#x410;" horiz-adv-x="1253" 
d="M868 434h-489l-143 -434h-185l471 1380h213l471 -1380h-190zM416 573h418l-138 398q-29 84 -71 252h-4q-47 -184 -70 -250z" />
    <glyph glyph-name="afii10018" unicode="&#x411;" horiz-adv-x="1118" 
d="M156 1380h774v-149h-596v-371q72 10 170 10q217 0 356 -92q176 -115 176 -336q0 -182 -114 -301q-156 -154 -488 -153q-160 0 -278 16v1376zM334 723v-586q51 -10 149 -10q190 0 291 106q76 80 76 203q0 147 -113 226q-98 70 -262 69q-51 0 -141 -8z" />
    <glyph glyph-name="afii10019" unicode="&#x412;" horiz-adv-x="1110" 
d="M156 4v1356q129 31 325 31q256 0 377 -101q117 -86 117 -243q0 -100 -62.5 -182.5t-171.5 -121.5v-6q115 -27 200 -114.5t85 -229.5q0 -168 -119 -276q-137 -129 -475 -129q-157 0 -276 16zM334 1241v-446h162q137 0 217 65.5t80 167.5q0 225 -301 225q-101 0 -158 -12z
M334 662v-527q49 -8 149 -8q154 0 254.5 64.5t100.5 203.5q0 133 -100.5 200t-256.5 67h-147z" />
    <glyph glyph-name="afii10020" unicode="&#x413;" horiz-adv-x="886" 
d="M154 1380h735v-149h-555v-1231h-180v1380z" />
    <glyph glyph-name="afii10021" unicode="&#x414;" horiz-adv-x="1290" 
d="M328 1380h772v-1235l121 -4l-13 -473h-139l-12 332h-871l-12 -332h-139l-10 473l102 4q98 180 135 304q66 223 66 581v350zM494 1233v-260q0 -342 -70 -563q-33 -113 -113 -263h611v1086h-428z" />
    <glyph glyph-name="afii10022" unicode="&#x415;" horiz-adv-x="1007" 
d="M868 795v-148h-534v-497h598v-150h-778v1380h747v-149h-567v-436h534z" />
    <glyph glyph-name="afii10024" unicode="&#x416;" horiz-adv-x="1640" 
d="M45 1380h207l428 -612h55v612h172v-612h56l428 612h206l-489 -635q152 -14 233.5 -101t141.5 -253l39.5 -124t48 -145.5t47.5 -121.5h-182q-20 41 -40 95.5t-42.5 128l-30.5 100.5q-55 162 -128 235.5t-226 73.5h-62v-633h-172v633h-63q-154 0 -226.5 -74t-128.5 -235
l-44 -137.5t-68 -186.5h-182q27 57 49 120.5l48.5 146.5t41.5 122q57 164 139 251t231 105z" />
    <glyph glyph-name="afii10025" unicode="&#x417;" horiz-adv-x="1007" 
d="M150 1169l-48 131q160 104 365 105q182 0 293.5 -90t111.5 -248q0 -125 -80.5 -217t-203.5 -121v-4q147 -16 241.5 -108.5t96.5 -237.5q0 -201 -146.5 -301.5t-355.5 -100.5t-361 91l48 139q147 -84 311 -84q147 0 231 72.5t84 189.5q0 141 -109.5 203.5t-265.5 62.5h-81
v135h79q137 0 231.5 74t94.5 180q0 104 -67.5 162t-180.5 58q-143 -1 -288 -91z" />
    <glyph glyph-name="afii10026" unicode="&#x418;" horiz-adv-x="1347" 
d="M156 1380h168v-581q0 -338 -17 -584l6 -2q86 182 254 457l447 710h178v-1380h-168v588q0 362 16 561l-6 2q-80 -180 -256 -463l-432 -688h-190v1380z" />
    <glyph glyph-name="afii10027" unicode="&#x419;" horiz-adv-x="1347" 
d="M156 1380h168v-581q0 -338 -17 -584l6 -2q86 182 254 457l447 710h178v-1380h-168v588q0 362 16 561l-6 2q-80 -180 -256 -463l-432 -688h-190v1380zM412 1669h137q8 -59 33.5 -93t91 -34t91.5 34t34 93h137q-16 -221 -266 -221q-242 0 -258 221z" />
    <glyph glyph-name="afii10028" unicode="&#x41a;" horiz-adv-x="1110" 
d="M156 1380h178v-612h55l473 612h213l-522 -632q160 -20 244 -108.5t143 -248.5q14 -41 46 -128l55.5 -147.5t50.5 -115.5h-191q-31 55 -127 326q-53 154 -137 230.5t-246 76.5h-57v-633h-178v1380z" />
    <glyph glyph-name="afii10029" unicode="&#x41b;" horiz-adv-x="1216" 
d="M252 1380h811v-1380h-180v1231h-455v-418q0 -135 -6 -231.5t-24.5 -210t-62.5 -194.5t-114 -128q-102 -66 -213 -65l-22 143q84 12 145 74q121 117 121 598v581z" />
    <glyph glyph-name="afii10030" unicode="&#x41c;" horiz-adv-x="1646" 
d="M1352 0l-33 606q-23 424 -23 596h-4q-94 -303 -174 -524l-244 -670h-135l-225 658q-104 315 -158 536h-4q-6 -264 -26 -610l-37 -592h-170l96 1380h227l236 -667q82 -246 139 -465h4q49 188 148 465l245 667h228l86 -1380h-176z" />
    <glyph glyph-name="afii10031" unicode="&#x41d;" horiz-adv-x="1335" 
d="M154 1380h180v-577h667v577h181v-1380h-181v647h-667v-647h-180v1380z" />
    <glyph glyph-name="afii10032" unicode="&#x41e;" horiz-adv-x="1411" 
d="M713 1405q283 0 452.5 -194.5t169.5 -505.5q0 -342 -182 -535t-459 -193q-274 0 -447 195t-173 508q0 326 179 525.5t460 199.5zM707 1260q-211 0 -328 -167t-117 -409q0 -233 120 -397t323 -164q205 0 323.5 164t118.5 409q0 227 -115.5 395.5t-324.5 168.5z" />
    <glyph glyph-name="afii10033" unicode="&#x41f;" horiz-adv-x="1308" 
d="M154 1380h1001v-1380h-180v1231h-641v-1231h-180v1380z" />
    <glyph glyph-name="afii10034" unicode="&#x420;" horiz-adv-x="1089" 
d="M156 0v1364q160 27 342 27q260 0 387 -115q121 -106 121 -289q0 -184 -107 -295q-145 -152 -422 -151q-94 0 -143 12v-553h-178zM334 1235v-537q55 -14 147 -14q162 0 254 77t92 216q0 135 -87 203.5t-238 68.5q-115 0 -168 -14z" />
    <glyph glyph-name="afii10035" unicode="&#x421;" horiz-adv-x="1187" 
d="M1083 186l35 -143q-127 -66 -364 -66q-301 0 -490.5 184.5t-189.5 516.5q0 326 199.5 525.5t521.5 199.5q209 0 327 -62l-45 -145q-115 57 -276 57q-246 0 -392.5 -150.5t-146.5 -418.5q0 -256 140.5 -405.5t388.5 -149.5q173 0 292 57z" />
    <glyph glyph-name="afii10036" unicode="&#x422;" horiz-adv-x="1017" 
d="M418 0v1229h-420v151h1022v-151h-422v-1229h-180z" />
    <glyph glyph-name="afii10037" unicode="&#x423;" horiz-adv-x="1067" 
d="M4 1380h203l274 -592q57 -133 99 -241h6l84 248l217 585h188l-291 -712q-156 -391 -258 -523q-133 -170 -311 -170q-68 0 -100 13l16 145q25 -6 68 -6q162 0 270 235q16 37 -6 84z" />
    <glyph glyph-name="afii10038" unicode="&#x424;" horiz-adv-x="1484" 
d="M657 1436h172v-125q113 -4 213.5 -42t184.5 -110t133 -192.5t49 -276.5q0 -158 -49 -277.5t-134 -189t-184.5 -106.5t-216.5 -45v-127h-172v127q-115 8 -213 44t-183 104.5t-134 186t-49 275.5q0 131 35.5 237.5t93 176t135.5 118t156.5 71t162.5 26.5v125zM655 201v983
q-160 -8 -278.5 -129t-118.5 -367q0 -229 113.5 -350t283.5 -137zM827 1184v-983q168 12 283 132t115 357q0 246 -115 365t-283 129z" />
    <glyph glyph-name="afii10039" unicode="&#x425;" horiz-adv-x="1169" 
d="M1118 0h-207l-178 305q-90 145 -158 273h-4q-47 -96 -149 -275l-166 -303h-205l422 698l-405 682h206l183 -323q86 -150 127 -234h6q49 102 125 234l186 323h207l-420 -671z" />
    <glyph glyph-name="afii10040" unicode="&#x426;" horiz-adv-x="1335" 
d="M154 1380h180v-1230h633v1230h180v-1235l121 -4l-13 -475h-139l-12 334h-950v1380z" />
    <glyph glyph-name="afii10041" unicode="&#x427;" horiz-adv-x="1222" 
d="M145 1380h179v-442q0 -143 73.5 -220t216.5 -77q154 0 275 80v659h178v-1388h-178v590h-4q-150 -86 -332 -86q-76 0 -142.5 18t-129 61t-99.5 129.5t-37 204.5v471z" />
    <glyph glyph-name="afii10042" unicode="&#x428;" horiz-adv-x="1734" 
d="M156 1380h176v-1230h448v1230h176v-1230h449v1230h176v-1380h-1425v1380z" />
    <glyph glyph-name="afii10043" unicode="&#x429;" horiz-adv-x="1769" 
d="M156 1380h176v-1230h448v1230h176v-1230h449v1230h176v-1235l121 -4l-12 -475h-140l-12 334h-1382v1380z" />
    <glyph glyph-name="afii10044" unicode="&#x42a;" horiz-adv-x="1292" 
d="M-4 1380h532v-516q68 10 166 10q217 0 367.5 -109.5t150.5 -322.5q0 -180 -106 -292q-152 -162 -481 -162q-156 0 -275 16v1229h-354v147zM528 723v-586q49 -10 142 -10q158 0 257 79t99 230q0 150 -102.5 222.5t-251.5 72.5q-58 0 -144 -8z" />
    <glyph glyph-name="afii10045" unicode="&#x42b;" horiz-adv-x="1527" 
d="M156 1380h178v-518q61 12 166 12q229 0 379.5 -107.5t150.5 -324.5q0 -180 -106 -292q-154 -162 -492 -162q-158 0 -276 16v1376zM334 723v-586q47 -10 143 -10q158 0 262.5 80t104.5 229.5t-106.5 222t-262.5 72.5q-51 0 -141 -8zM1184 1380h180v-1380h-180v1380z" />
    <glyph glyph-name="afii10046" unicode="&#x42c;" horiz-adv-x="1116" 
d="M156 1380h178v-516q68 10 170 10q231 0 381.5 -107.5t150.5 -322.5q0 -182 -106 -294q-154 -162 -496 -162q-160 0 -278 16v1376zM334 723v-586q51 -10 147 -10q160 0 264.5 78t104.5 229.5t-104.5 224t-266.5 72.5q-55 0 -145 -8z" />
    <glyph glyph-name="afii10047" unicode="&#x42d;" horiz-adv-x="1163" 
d="M254 635v143h641q-18 211 -141 344t-330 133q-135 0 -297 -67l-43 135q174 80 350 80q313 0 483 -199.5t170 -513.5q0 -330 -189 -521.5t-476 -191.5q-201 0 -361 70l39 143q137 -63 299 -63q221 0 354.5 143.5t143.5 364.5h-643z" />
    <glyph glyph-name="afii10048" unicode="&#x42e;" horiz-adv-x="1775" 
d="M156 1380h178v-594h205q27 289 184.5 454t402.5 165q266 0 421 -193.5t155 -506.5q0 -346 -168 -537t-426 -191q-252 0 -407.5 178.5t-165.5 479.5h-201v-635h-178v1380zM1116.5 121q188.5 0 296 165t107.5 410q0 227 -104.5 396.5t-297.5 169.5q-195 0 -301 -169
t-106 -409q0 -233 108.5 -398t297 -165z" />
    <glyph glyph-name="afii10049" unicode="&#x42f;" horiz-adv-x="1112" 
d="M221 0h-192q29 49 57 125l40 121t44 130t51 111.5t72 100.5q49 49 117 71v5q-133 23 -219.5 112.5t-86.5 227.5q0 176 127 280q131 106 396 107q190 0 329 -29v-1362h-178v598h-133q-129 0 -196 -68q-43 -43 -75 -114.5t-63.5 -178t-44.5 -137.5zM778 737v498
q-61 16 -170 16q-143 0 -233 -61.5t-90 -194.5q0 -121 95 -191.5t247 -70.5q116 0 151 4z" />
    <glyph glyph-name="afii10065" unicode="&#x430;" horiz-adv-x="987" 
d="M846 608v-370q0 -143 14 -238h-162l-14 125h-6q-45 -63 -124 -105.5t-179 -42.5q-143 0 -223 84t-80 201q0 180 154.5 275.5t441.5 93.5v20q0 37 -7.5 71t-29 73t-69.5 61.5t-120 22.5q-152 0 -260 -74l-41 121q137 86 328 86q207 0 292 -115t85 -289zM672 334v172
q-420 8 -420 -223q0 -84 48 -128t120 -44q92 0 155.5 48t88.5 117q8 27 8 58z" />
    <glyph glyph-name="afii10066" unicode="&#x431;" horiz-adv-x="1081" 
d="M907 1477l-8 -150q-57 -23 -207 -45q-252 -39 -354 -186q-88 -123 -109 -328h7q47 106 142 164.5t204 58.5q188 0 305 -129t117 -360q0 -244 -121 -385.5t-338 -141.5q-125 0 -218.5 56.5t-144.5 154t-75.5 211t-24.5 244.5q0 350 154 549q68 100 170 153.5t256 79.5
q179 31 245 54zM821 489q0 90 -22.5 168t-88 139.5t-165.5 61.5q-152 0 -226 -135q-49 -88 -49 -211q0 -90 27 -177t93.5 -155.5t158.5 -68.5q139 0 205.5 110t66.5 268z" />
    <glyph glyph-name="afii10067" unicode="&#x432;" horiz-adv-x="1024" 
d="M143 0v979q131 23 316 22q442 0 442 -247q0 -88 -58.5 -146.5t-148.5 -79.5v-4q115 -16 183.5 -77.5t68.5 -165.5q0 -293 -522 -293q-121 0 -281 12zM317 868v-295h136q115 0 192.5 38t77.5 120q0 145 -266 146q-58 -1 -140 -9zM315 457v-340q78 -6 144 -6
q121 0 212 37.5t91 134.5q0 98 -84 136t-232 38h-131z" />
    <glyph glyph-name="afii10068" unicode="&#x433;" horiz-adv-x="788" 
d="M145 991h609v-143h-430v-848h-179v991z" />
    <glyph glyph-name="afii10069" unicode="&#x434;" horiz-adv-x="1085" 
d="M256 991h662v-856l102 -2l-10 -446h-142l-8 313h-686l-10 -313h-139l-9 444l84 4q65 95 99 203q57 180 57 395v258zM414 854v-162q0 -209 -52 -370q-29 -98 -77 -185h456v717h-327z" />
    <glyph glyph-name="afii10070" unicode="&#x435;" horiz-adv-x="1026" 
d="M946 463h-696q2 -174 97 -259t243 -85q158 0 274 51l33 -129q-141 -63 -332 -64q-225 0 -356 137.5t-131 364.5q0 229 127 381t338 152q115 0 199.5 -46t127.5 -120t62.5 -148.5t19.5 -150.5q0 -53 -6 -84zM252 592h526q2 109 -56 200t-194 91q-125 0 -194.5 -89
t-81.5 -202z" />
    <glyph glyph-name="afii10072" unicode="&#x436;" horiz-adv-x="1366" 
d="M29 991h204l330 -432h35v432h172v-432h35l328 432h206l-391 -450q207 -23 297 -262q84 -231 109 -279h-180q-37 66 -91 227q-45 117 -112.5 164t-169.5 47h-31v-438h-172v438h-31q-109 0 -175 -47t-111 -166q-70 -184 -93 -225h-176q20 39 111 276q47 123 117.5 187.5
t179.5 77.5z" />
    <glyph glyph-name="afii10073" unicode="&#x437;" horiz-adv-x="882" 
d="M233 453l-2 122h86q113 0 183.5 46.5t70.5 115.5q0 66 -53 106t-139 40q-123 0 -240 -72l-45 111q147 90 330 90q82 0 154.5 -23.5t127 -85t54.5 -151.5q0 -86 -66.5 -146.5t-156.5 -79.5v-4q117 -12 193.5 -77.5t76.5 -170.5q0 -147 -126 -220.5t-302 -73.5
q-178 0 -322 79l47 123q121 -70 263 -69q111 0 177 47t66 123q0 170 -288 170h-89z" />
    <glyph glyph-name="afii10074" unicode="&#x438;" horiz-adv-x="1134" 
d="M143 991h172v-418q0 -184 -12 -397l6 -2q113 223 162 305l309 512h211v-991h-172v420q0 166 12 407h-4q-104 -205 -165 -309l-310 -518h-209v991z" />
    <glyph glyph-name="afii10075" unicode="&#x439;" horiz-adv-x="1134" 
d="M143 991h172v-418q0 -184 -12 -397l6 -2q113 223 162 305l309 512h211v-991h-172v420q0 166 12 407h-4q-104 -205 -165 -309l-310 -518h-209v991zM301 1395h131q4 -70 38 -113t93 -43q121 0 139 156h129q-8 -123 -79.5 -188.5t-192.5 -65.5q-127 0 -189.5 69.5
t-68.5 184.5z" />
    <glyph glyph-name="afii10076" unicode="&#x43a;" horiz-adv-x="980" 
d="M150 991h178v-430h43l370 430h220l-431 -446q115 -14 194 -89t140 -214q82 -203 105 -242h-189q-31 51 -92 203q-51 123 -127 178t-199 55h-34v-436h-178v991z" />
    <glyph glyph-name="afii10077" unicode="&#x43b;" horiz-adv-x="1038" 
d="M205 991h690v-991h-180v850h-340v-254q0 -229 -33 -359.5t-123 -189.5q-78 -61 -196 -61l-19 141q61 10 98 41q63 47 83 143.5t20 284.5v395z" />
    <glyph glyph-name="afii10078" unicode="&#x43c;" horiz-adv-x="1308" 
d="M86 0l76 991h221l178 -499q57 -158 90 -273h4q35 119 119 340l158 432h223l70 -991h-172l-23 473q-2 49 -8 169t-8 185h-6q-25 -80 -111 -321l-190 -500h-129l-177 492q-51 145 -100 327h-8q-10 -270 -14 -356l-27 -469h-166z" />
    <glyph glyph-name="afii10079" unicode="&#x43d;" horiz-adv-x="1118" 
d="M143 991h181v-399h469v399h180v-991h-180v449h-469v-449h-181v991z" />
    <glyph glyph-name="afii10080" unicode="&#x43e;" horiz-adv-x="1124" 
d="M569 1012q213 0 345.5 -141.5t132.5 -366.5q0 -256 -147.5 -391.5t-346.5 -135.5q-205 0 -340 140.5t-135 369.5q0 240 140 382.5t351 142.5zM565.5 877q-147.5 0 -225.5 -114t-78 -269q0 -164 84 -272.5t215 -108.5q129 0 215 109.5t86 275.5q0 145 -74.5 262t-222 117z
" />
    <glyph glyph-name="afii10081" unicode="&#x43f;" horiz-adv-x="1107" 
d="M143 991h822v-991h-181v850h-460v-850h-181v991z" />
    <glyph glyph-name="afii10082" unicode="&#x440;" horiz-adv-x="1165" 
d="M150 -406v1074q0 135 -9 323h160l10 -170h4q113 190 353 191q182 0 302 -139.5t120 -362.5q0 -254 -132.5 -393.5t-320.5 -139.5q-98 0 -179 41t-126 115h-4v-539h-178zM328 575v-172q0 -43 8 -73q25 -94 99.5 -152.5t170.5 -58.5q141 0 221 104.5t80 278.5
q0 156 -78.5 261t-216.5 105q-94 0 -170.5 -60t-101.5 -161q-12 -45 -12 -72z" />
    <glyph glyph-name="afii10083" unicode="&#x441;" horiz-adv-x="917" 
d="M825 170l31 -135q-121 -57 -285 -58q-223 0 -358 139.5t-135 366.5q0 231 146.5 380t385.5 149q152 0 250 -54l-41 -137q-90 47 -209 47q-164 0 -257 -107.5t-93 -266.5q0 -170 97.5 -270.5t246.5 -100.5q115 0 221 47z" />
    <glyph glyph-name="afii10084" unicode="&#x442;" horiz-adv-x="841" 
d="M20 991h799v-141h-309v-850h-180v850h-310v141z" />
    <glyph glyph-name="afii10085" unicode="&#x443;" horiz-adv-x="964" 
d="M18 991h197l215 -585q37 -96 66 -203h4q2 6 25.5 85t37.5 122l197 581h190l-270 -706q-100 -262 -175 -401.5t-165 -219.5q-113 -94 -221 -115l-45 150q86 27 157 88q92 72 152 201q14 33 14 43q0 16 -14 47z" />
    <glyph glyph-name="afii10086" unicode="&#x444;" horiz-adv-x="1312" 
d="M573 1450h168l-2 -440q223 -16 360.5 -151.5t137.5 -360.5q0 -236 -139.5 -369t-358.5 -147l2 -388h-168l2 386q-221 14 -359 148t-138 359q0 233 139 367.5t358 153.5zM575 104v781q-147 -18 -233 -128t-86 -265q0 -154 87 -262t232 -126zM739 885v-783
q147 20 233.5 130t86.5 265.5t-86.5 261.5t-233.5 126z" />
    <glyph glyph-name="afii10087" unicode="&#x445;" horiz-adv-x="948" 
d="M33 991h200l142 -213q49 -70 102 -160h4q37 66 101 162l137 211h196l-337 -479l346 -512h-203l-148 223q-41 61 -106 172h-4q-45 -80 -105 -172l-143 -223h-199l353 506z" />
    <glyph glyph-name="afii10088" unicode="&#x446;" horiz-adv-x="1126" 
d="M143 991h181v-850h456v850h178v-856l103 -2l-10 -446h-142l-8 313h-758v991z" />
    <glyph glyph-name="afii10089" unicode="&#x447;" horiz-adv-x="1054" 
d="M133 991h180v-334q0 -102 46.5 -156.5t158.5 -54.5q121 0 213 68v477h178v-1003h-178v399h-2q-117 -74 -270 -74q-147 0 -236.5 80t-89.5 242v356z" />
    <glyph glyph-name="afii10090" unicode="&#x448;" horiz-adv-x="1511" 
d="M143 991h179v-850h344v850h178v-850h344v850h178v-991h-1223v991z" />
    <glyph glyph-name="afii10091" unicode="&#x449;" horiz-adv-x="1533" 
d="M143 991h179v-850h346v850h178v-850h344v850h176v-856l102 -2l-10 -446h-141l-6 313h-1168v991z" />
    <glyph glyph-name="afii10092" unicode="&#x44a;" horiz-adv-x="1185" 
d="M29 991h473v-334q78 10 170 11q113 0 207 -29t163.5 -107.5t69.5 -199.5q0 -141 -104 -230q-133 -113 -420 -112q-133 0 -266 14v846h-293v141zM500 526v-399q74 -8 135 -8q127 0 212 49t85 158q0 80 -49 130t-112.5 66.5t-143.5 16.5q-61 -1 -127 -13z" />
    <glyph glyph-name="afii10093" unicode="&#x44b;" horiz-adv-x="1361" 
d="M143 991h181v-336q74 12 159 13q180 0 305 -82t125 -252q0 -141 -104 -230q-135 -115 -399 -114q-133 0 -267 14v987zM322 526v-399q49 -8 124 -8q119 0 203 51t84 160q0 111 -81 160t-197 49q-78 -1 -133 -13zM1038 991h179v-991h-179v991z" />
    <glyph glyph-name="afii10094" unicode="&#x44c;" horiz-adv-x="1019" 
d="M143 991h181v-334q72 10 163 11q90 0 167 -16.5t145.5 -52.5t107.5 -104.5t39 -162.5q0 -139 -104 -228q-135 -115 -432 -114q-133 0 -267 14v987zM322 526v-399q49 -8 135 -8q123 0 216 49t93 160q0 80 -53.5 130t-119 65.5t-142.5 15.5q-66 -1 -129 -13z" />
    <glyph glyph-name="afii10095" unicode="&#x44d;" horiz-adv-x="950" 
d="M193 442v125h497q-12 135 -98 220t-244 85q-121 0 -235 -55l-39 119q133 76 305 76q225 0 358 -140q135 -141 135 -380q0 -223 -140 -367.5t-384 -144.5q-166 0 -291 67l37 127q123 -53 246 -53q150 0 244 87t104 234h-495z" />
    <glyph glyph-name="afii10096" unicode="&#x44e;" horiz-adv-x="1443" 
d="M145 991h177v-418h170q23 199 142.5 319t295.5 120q195 0 315.5 -139.5t120.5 -368.5q0 -236 -127 -381.5t-319 -145.5q-180 0 -299 124t-134 335h-165v-436h-177v991zM924 111q127 0 194.5 116.5t67.5 272.5q0 152 -67.5 264.5t-192.5 112.5t-196 -114t-71 -274
q0 -156 70 -267t195 -111z" />
    <glyph glyph-name="afii10097" unicode="&#x44f;" horiz-adv-x="1015" 
d="M872 983v-983h-178v416h-133q-106 0 -164 -58q-27 -20 -49 -56t-34.5 -65.5t-31 -81l-26.5 -73.5q-14 -37 -41 -82h-192q35 51 61 113q10 20 36.5 95t53.5 123t66 81q49 43 112 57v4q-106 12 -184 75.5t-78 172.5q0 141 131 215q113 68 334 68q174 -1 317 -21zM694 537
v335q-76 10 -149 11q-68 0 -124 -13.5t-100.5 -54.5t-44.5 -104q0 -86 84 -130t181 -44h153z" />
    <glyph glyph-name="afii10071" unicode="&#x451;" horiz-adv-x="1026" 
d="M946 463h-696q2 -174 97 -259t243 -85q158 0 274 51l33 -129q-141 -63 -332 -64q-225 0 -356 137.5t-131 364.5q0 229 127 381t338 152q115 0 199.5 -46t127.5 -120t62.5 -148.5t19.5 -150.5q0 -53 -6 -84zM252 592h526q2 109 -56 200t-194 91q-125 0 -194.5 -89
t-81.5 -202zM358 1167q-43 0 -71.5 31t-28.5 74t29.5 73.5t74.5 30.5q41 0 70 -29.5t29 -74.5q0 -43 -29 -74t-74 -31zM737 1167q-43 0 -71.5 31t-28.5 74t29.5 73.5t72.5 30.5t72 -29.5t29 -74.5q0 -43 -29 -74t-74 -31z" />
    <glyph glyph-name="afii10099" unicode="&#x452;" horiz-adv-x="1140" 
d="M14 1280h168v174h180v-174h463v-129h-463v-291h5q127 141 301 141q182 0 282 -161q109 -160 109 -432q0 -418 -203 -588q-117 -100 -256 -113l-33 139q121 25 191 103q121 137 121 446q0 219 -78 348q-68 113 -188.5 113t-219.5 -119q-31 -43 -31 -112v-625h-180v1151
h-168v129z" />
    <glyph glyph-name="afii10100" unicode="&#x453;" horiz-adv-x="788" 
d="M145 991h609v-143h-430v-848h-179v991zM512 1419h197l-250 -293h-127z" />
    <glyph glyph-name="afii10101" unicode="&#x454;" horiz-adv-x="942" 
d="M885 946l-43 -129q-115 55 -226 55q-156 0 -246.5 -86t-107.5 -219h502v-125h-500q10 -147 106.5 -235t241.5 -88q115 0 238 51l35 -129q-127 -63 -301 -64q-233 0 -369.5 143.5t-136.5 366.5q0 236 151.5 380.5t388.5 144.5q156 0 267 -66z" />
    <glyph glyph-name="afii10102" unicode="&#x455;" horiz-adv-x="811" 
d="M82 47l43 135q117 -70 240 -69q92 0 141 41t49 106q0 63 -41 103t-141 77q-264 96 -264 281q0 123 94 207t248 84q147 0 241 -62l-43 -131q-94 59 -203 60q-78 0 -120.5 -39t-42.5 -97q0 -59 42 -94t144 -76q131 -49 195.5 -119.5t64.5 -177.5q0 -135 -98.5 -217
t-270.5 -82q-159 0 -278 70z" />
    <glyph glyph-name="afii10103" unicode="&#x456;" horiz-adv-x="479" 
d="M330 0h-180v991h180v-991zM239.5 1382q49.5 0 80 -31.5t30.5 -80.5q0 -47 -30.5 -79t-83.5 -32q-49 0 -79 32t-30 79t31.5 79.5t81 32.5z" />
    <glyph glyph-name="afii10104" unicode="&#x457;" horiz-adv-x="479" 
d="M330 0h-180v991h180v-991zM49 1167q-43 0 -71.5 31t-28.5 74t29.5 73.5t74.5 30.5q41 0 70 -29.5t29 -74.5q0 -43 -29 -74t-74 -31zM428 1167q-43 0 -71.5 31t-28.5 74t29.5 73.5t72.5 30.5t71.5 -29.5t28.5 -74.5q0 -43 -28.5 -74t-73.5 -31z" />
    <glyph glyph-name="afii10105" unicode="&#x458;" horiz-adv-x="497" 
d="M-74 -432l-20 141q137 10 196 78q39 43 54.5 121t15.5 250v833h180v-903q0 -287 -119 -407q-55 -55 -141 -84t-166 -29zM262 1382q49 0 80 -32.5t31 -79.5t-31 -79t-84 -32q-47 0 -77.5 33t-30.5 78q0 47 31.5 79.5t80.5 32.5z" />
    <glyph glyph-name="afii10106" unicode="&#x459;" horiz-adv-x="1587" 
d="M215 991h680v-338q72 10 162 11q88 0 164.5 -16.5t145.5 -53.5t107.5 -104.5t38.5 -159.5q0 -139 -98 -224q-135 -117 -432 -116q-135 0 -268 14v846h-332v-252q0 -223 -37 -356t-131 -193q-72 -61 -195 -61l-16 141q61 10 98 39q66 45 89.5 147.5t23.5 282.5v393z
M893 524v-397q49 -8 133 -8q123 0 215 48t92 159q0 115 -89 163t-208 48q-77 -1 -143 -13z" />
    <glyph glyph-name="afii10107" unicode="&#x45a;" horiz-adv-x="1601" 
d="M143 991h181v-368h417v368h181v-346q68 10 168 10q176 0 307 -79.5t131 -247.5q0 -139 -101 -226q-129 -113 -417 -112q-117 0 -269 12v481h-417v-483h-181v991zM920 518v-393q104 -6 135 -6q117 0 205 47t88 156q0 113 -85 159.5t-208 46.5q-67 0 -135 -10z" />
    <glyph glyph-name="afii10108" unicode="&#x45b;" horiz-adv-x="1169" 
d="M14 1280h168v174h180v-174h414v-129h-414v-322h5q51 78 122 121q86 51 191 51q160 0 253 -109.5t93 -311.5v-580h-180v559q0 131 -55.5 212t-174.5 81q-86 0 -150.5 -52t-90.5 -126q-12 -39 -13 -94v-580h-180v1151h-168v129z" />
    <glyph glyph-name="afii10109" unicode="&#x45c;" horiz-adv-x="980" 
d="M150 991h178v-430h43l370 430h220l-431 -446q115 -14 194 -89t140 -214q82 -203 105 -242h-189q-31 51 -92 203q-51 123 -127 178t-199 55h-34v-436h-178v991zM573 1419h199l-250 -293h-127z" />
    <glyph glyph-name="afii10110" unicode="&#x45e;" horiz-adv-x="964" 
d="M217 1395h131q4 -70 38 -113t93 -43q121 0 139 156h130q-8 -123 -80 -188.5t-193 -65.5q-127 0 -189.5 69.5t-68.5 184.5zM18 991h197l215 -585q37 -96 66 -203h4q2 6 25.5 85t37.5 122l197 581h190l-270 -706q-100 -262 -175 -401.5t-165 -219.5q-113 -94 -221 -115
l-45 150q86 27 157 88q92 72 152 201q14 33 14 43q0 16 -14 47z" />
    <glyph glyph-name="afii10193" unicode="&#x45f;" horiz-adv-x="1101" 
d="M143 991h181v-850h454v850h180v-991h-321l-12 -322h-144l-14 322h-324v991z" />
    <glyph glyph-name="afii10050" unicode="&#x490;" horiz-adv-x="915" 
d="M156 1380h596l32 252h134l-23 -401h-561v-1231h-178v1380z" />
    <glyph glyph-name="afii10098" unicode="&#x491;" horiz-adv-x="802" 
d="M145 991h469l25 223h129l-12 -366h-432v-848h-179v991z" />
    <glyph glyph-name="afii10846" unicode="&#x4d9;" horiz-adv-x="671" 
d="M160 819l-33 127q150 66 334 66q225 0 355 -137.5t130 -364.5q0 -229 -127 -379.5t-338 -150.5q-115 0 -199.5 46t-127.5 119.5t-62.5 147.5t-19.5 149q0 57 6 84h696q-2 174 -95 259t-242.5 85t-276.5 -51zM772 397h-526q-2 -109 56 -198.5t194 -89.5q127 0 195.5 87.5
t80.5 200.5z" />
    <glyph glyph-name="Wgrave" unicode="&#x1e80;" horiz-adv-x="1732" 
d="M567 0h-186l-350 1380h188l164 -698q63 -268 102 -477h4q23 139 113 479l184 696h187l168 -700q74 -307 96 -473h4q27 143 111 477l182 696h182l-391 -1380h-186l-174 719q-66 272 -91 450h-4q-31 -186 -106 -450zM559 1694h217l191 -238h-146z" />
    <glyph glyph-name="wgrave" unicode="&#x1e81;" horiz-adv-x="1507" 
d="M37 991h184l133 -504q59 -246 72 -315h6q23 100 88 313l162 506h152l153 -495q55 -180 88 -324h6q20 123 76 322l141 497h179l-320 -991h-164l-151 473q-59 186 -88 326h-4q-29 -141 -91 -328l-159 -471h-164zM485 1419h197l180 -293h-127z" />
    <glyph glyph-name="Wacute" unicode="&#x1e82;" horiz-adv-x="1732" 
d="M567 0h-186l-350 1380h188l164 -698q63 -268 102 -477h4q23 139 113 479l184 696h187l168 -700q74 -307 96 -473h4q27 143 111 477l182 696h182l-391 -1380h-186l-174 719q-66 272 -91 450h-4q-31 -186 -106 -450zM977 1694h217l-262 -240h-146z" />
    <glyph glyph-name="wacute" unicode="&#x1e83;" horiz-adv-x="1507" 
d="M37 991h184l133 -504q59 -246 72 -315h6q23 100 88 313l162 506h152l153 -495q55 -180 88 -324h6q20 123 76 322l141 497h179l-320 -991h-164l-151 473q-59 186 -88 326h-4q-29 -141 -91 -328l-159 -471h-164zM842 1419h196l-250 -293h-126z" />
    <glyph glyph-name="Wdieresis" unicode="&#x1e84;" horiz-adv-x="1732" 
d="M567 0h-186l-350 1380h188l164 -698q63 -268 102 -477h4q23 139 113 479l184 696h187l168 -700q74 -307 96 -473h4q27 143 111 477l182 696h182l-391 -1380h-186l-174 719q-66 272 -91 450h-4q-31 -186 -106 -450zM682 1477q-43 0 -70.5 30.5t-27.5 73.5t28.5 72.5
t71.5 29.5t70.5 -29.5t27.5 -72.5q0 -45 -27.5 -74.5t-72.5 -29.5zM1061 1477q-43 0 -70.5 30.5t-27.5 73.5t29.5 72.5t72.5 29.5t70.5 -29.5t27.5 -72.5q0 -45 -27.5 -74.5t-74.5 -29.5z" />
    <glyph glyph-name="wdieresis" unicode="&#x1e85;" horiz-adv-x="1507" 
d="M37 991h184l133 -504q59 -246 72 -315h6q23 100 88 313l162 506h152l153 -495q55 -180 88 -324h6q20 123 76 322l141 497h179l-320 -991h-164l-151 473q-59 186 -88 326h-4q-29 -141 -91 -328l-159 -471h-164zM561 1167q-43 0 -71.5 31t-28.5 74t29.5 73.5t74.5 30.5
q41 0 70 -29.5t29 -74.5q0 -43 -29 -74t-74 -31zM942 1167q-43 0 -71.5 31t-28.5 74t29.5 73.5t72.5 30.5t71.5 -29.5t28.5 -74.5q0 -43 -28.5 -74t-73.5 -31z" />
    <glyph glyph-name="uni1EA0" unicode="&#x1ea0;" horiz-adv-x="1253" 
d="M868 434h-489l-143 -434h-185l471 1380h213l471 -1380h-190zM416 573h418l-138 398q-29 84 -71 252h-4q-43 -172 -70 -250zM621 -164q43 0 71.5 -30.5t28.5 -73.5q0 -45 -28.5 -76t-74.5 -31q-43 0 -72.5 32t-29.5 75t31 73.5t74 30.5z" />
    <glyph glyph-name="uni1EA1" unicode="&#x1ea1;" horiz-adv-x="987" 
d="M846 608v-370q0 -143 14 -238h-162l-14 125h-6q-45 -63 -124 -105.5t-179 -42.5q-143 0 -223 84t-80 201q0 180 154.5 275.5t441.5 93.5v20q0 37 -7.5 71t-29 73t-69.5 61.5t-120 22.5q-152 0 -260 -74l-41 121q137 86 328 86q207 0 292 -115t85 -289zM672 334v172
q-420 8 -420 -223q0 -84 48 -128t120 -44q92 0 155.5 48t88.5 117q8 27 8 58zM494 -164q43 0 71.5 -30.5t28.5 -75.5q0 -43 -28.5 -74t-73.5 -31q-43 0 -73 31t-30 74q0 45 31 75.5t74 30.5z" />
    <glyph glyph-name="uni1EA2" unicode="&#x1ea2;" horiz-adv-x="1253" 
d="M868 434h-489l-143 -434h-185l471 1380h213l471 -1380h-190zM416 573h418l-138 398q-29 84 -71 252h-4q-47 -184 -70 -250zM676 1452l-94 27q14 41 60 88t46 82q0 31 -18.5 48t-48.5 17q-51 0 -103 -72l-67 41q70 137 202 138q72 0 121 -43t49 -107q0 -45 -23.5 -77.5
t-63.5 -69.5t-60 -72z" />
    <glyph glyph-name="uni1EA3" unicode="&#x1ea3;" horiz-adv-x="987" 
d="M846 608v-370q0 -143 14 -238h-162l-14 125h-6q-45 -63 -124 -105.5t-179 -42.5q-143 0 -223 84t-80 201q0 180 154.5 275.5t441.5 93.5v20q0 37 -7.5 71t-29 73t-69.5 61.5t-120 22.5q-152 0 -260 -74l-41 121q137 86 328 86q207 0 292 -115t85 -289zM672 334v172
q-420 8 -420 -223q0 -84 48 -128t120 -44q92 0 155.5 48t88.5 117q8 27 8 58zM522 1083l-96 25q12 43 64.5 99.5t52.5 95.5q0 31 -19.5 49t-50.5 18q-53 0 -100 -72l-70 43q68 135 201 136q76 0 125 -43t49 -111q0 -66 -71 -137.5t-85 -102.5z" />
    <glyph glyph-name="uni1EA4" unicode="&#x1ea4;" horiz-adv-x="1253" 
d="M868 434h-489l-143 -434h-185l471 1380h213l473 -1380h-190zM416 573h418l-138 398q-29 84 -71 252h-4q-47 -184 -70 -250zM573 1686h129l195 -234h-143l-113 143h-4l-115 -143h-137zM971 1841h182l-248 -215h-106z" />
    <glyph glyph-name="uni1EA5" unicode="&#x1ea5;" horiz-adv-x="987" 
d="M846 608v-370q0 -143 14 -238h-162l-14 125h-6q-45 -63 -124 -105.5t-179 -42.5q-143 0 -223 84t-80 201q0 180 154.5 275.5t441.5 93.5v20q0 37 -7.5 71t-29 73t-69.5 61.5t-120 22.5q-152 0 -260 -74l-41 121q137 86 328 86q207 0 292 -115t85 -289zM672 334v172
q-420 8 -420 -223q0 -84 48 -128t120 -44q92 0 155.5 48t88.5 117q8 27 8 58zM412 1419h133l176 -293h-137l-105 193h-4l-104 -193h-131zM805 1585h166l-203 -268h-104z" />
    <glyph glyph-name="uni1EA6" unicode="&#x1ea6;" horiz-adv-x="1253" 
d="M868 434h-489l-143 -434h-185l469 1380h215l471 -1380h-190zM416 573h418l-138 398q-29 84 -71 252h-7q-31 -135 -67 -250zM690 1804h184l150 -215h-111zM561 1686h129l195 -234h-144l-112 143h-4l-115 -143h-137z" />
    <glyph glyph-name="uni1EA7" unicode="&#x1ea7;" horiz-adv-x="987" 
d="M846 608v-370q0 -147 16 -238h-162l-16 125h-6q-45 -63 -124 -105.5t-179 -42.5q-143 0 -223 84t-80 201q0 180 154.5 275.5t441.5 93.5v20q0 37 -7.5 71t-29 73t-69.5 61.5t-120 22.5q-152 0 -260 -74l-41 121q137 86 328 86q207 0 292 -115t85 -289zM672 334v172
q-420 8 -420 -223q0 -84 48 -128t120 -44q92 0 155.5 48t88.5 117q8 25 8 58zM557 1585h164l129 -268h-102zM410 1419h133l176 -293h-137l-105 193h-4l-104 -193h-131z" />
    <glyph glyph-name="uni1EA8" unicode="&#x1ea8;" horiz-adv-x="1253" 
d="M868 434h-489l-141 -434h-185l469 1380h213l471 -1380h-190zM416 573h415l-135 398q-29 84 -71 252h-4q-43 -172 -70 -250zM567 1688h129l193 -234h-141l-115 141h-4l-113 -141h-139zM940 1544l-86 25q14 39 60.5 87t46.5 83q0 29 -20.5 47t-49.5 18q-53 0 -100 -73
l-66 38q63 131 195 132q70 0 115.5 -42t45.5 -102q0 -57 -62.5 -119.5t-78.5 -93.5z" />
    <glyph glyph-name="uni1EA9" unicode="&#x1ea9;" horiz-adv-x="987" 
d="M846 608v-370q0 -147 16 -238h-164l-14 125h-6q-45 -63 -124 -105.5t-179 -42.5q-143 0 -223 84t-80 201q0 180 154.5 275.5t441.5 93.5v20q0 37 -7.5 71t-29 73t-69.5 61.5t-120 22.5q-152 0 -260 -74l-41 121q137 86 328 86q207 0 292 -115t85 -289zM672 334v172
q-420 8 -420 -223q0 -84 48 -128t120 -44q92 0 155.5 48t88.5 117q8 25 8 58zM406 1419h133l176 -293h-137l-105 193h-4l-104 -193h-132zM774 1298l-90 25q14 39 59 86t45 82q0 29 -19 47t-48 18q-51 0 -98 -73l-66 41q66 131 195 131q68 0 114.5 -42t46.5 -104
q0 -45 -22.5 -75.5t-59.5 -65.5t-57 -70z" />
    <glyph glyph-name="uni1EAA" unicode="&#x1eaa;" horiz-adv-x="1253" 
d="M868 434h-489l-143 -434h-185l471 1380h213l471 -1380h-190zM416 573h418l-138 398q-29 84 -71 252h-4q-47 -184 -70 -250zM559 1688h137l215 -234h-151l-129 141h-4l-131 -141h-146zM483 1714h-100q-2 88 37 141.5t102 53.5q41 0 127 -45q66 -33 86 -33q51 0 58 84h94
q6 -197 -139 -197q-45 0 -123 43q-63 35 -90 35q-48 0 -52 -82z" />
    <glyph glyph-name="uni1EAB" unicode="&#x1eab;" horiz-adv-x="987" 
d="M846 608v-370q0 -143 14 -238h-162l-14 125h-6q-45 -63 -124 -105.5t-179 -42.5q-143 0 -223 84t-80 201q0 180 154.5 275.5t441.5 93.5v20q0 37 -7.5 71t-29 73t-69.5 61.5t-120 22.5q-152 0 -260 -74l-41 121q137 86 328 86q207 0 292 -115t85 -289zM672 334v172
q-420 8 -420 -223q0 -84 48 -128t120 -44q92 0 155.5 48t88.5 117q8 27 8 58zM426 1366h133l186 -240h-141l-110 150h-5l-108 -150h-137zM346 1391h-98q-2 88 36 141t103 53q37 0 127 -45q66 -33 86 -33q49 0 55 84h97q4 -197 -140 -196q-43 0 -125 43q-66 33 -88 32
q-47 1 -53 -79z" />
    <glyph glyph-name="uni1EAC" unicode="&#x1eac;" horiz-adv-x="1253" 
d="M868 434h-489l-143 -434h-185l471 1380h213l471 -1380h-190zM416 573h418l-138 398q-29 84 -71 252h-4q-47 -184 -70 -250zM561 1688h137l215 -234h-151l-129 141h-4l-131 -141h-146zM618.5 -371q-43.5 0 -72 31t-28.5 74q0 41 30 71.5t73 30.5q41 0 69.5 -30.5
t28.5 -71.5q0 -43 -28.5 -74t-72 -31z" />
    <glyph glyph-name="uni1EAD" unicode="&#x1ead;" horiz-adv-x="987" 
d="M846 608v-370q0 -143 14 -238h-162l-14 125h-6q-45 -63 -124 -105.5t-179 -42.5q-143 0 -223 84t-80 201q0 180 154.5 275.5t441.5 93.5v20q0 37 -7.5 71t-29 73t-69.5 61.5t-120 22.5q-152 0 -260 -74l-41 121q137 86 328 86q207 0 292 -115t85 -289zM672 334v172
q-420 8 -420 -223q0 -84 48 -128t120 -44q92 0 155.5 48t88.5 117q8 27 8 58zM428 1419h127l197 -293h-138l-120 193h-5l-116 -193h-135zM494 -164q43 0 71.5 -30.5t28.5 -75.5q0 -43 -28.5 -74t-73.5 -31q-43 0 -73 31t-30 74q0 45 31 75.5t74 30.5z" />
    <glyph glyph-name="uni1EAE" unicode="&#x1eae;" horiz-adv-x="1253" 
d="M868 434h-487l-143 -434h-185l469 1380h213l473 -1380h-192zM416 573h418l-138 398q-29 84 -71 252h-4q-45 -178 -70 -250zM379 1642h98q29 -100 158 -100t160 100h96q-12 -88 -79 -149t-179.5 -61t-177 59t-76.5 151zM713 1835h186l-227 -215h-113z" />
    <glyph glyph-name="uni1EAF" unicode="&#x1eaf;" horiz-adv-x="987" 
d="M846 608v-370q0 -143 14 -238h-162l-14 125h-6q-45 -63 -124 -105.5t-179 -42.5q-143 0 -223 84t-80 201q0 180 154.5 275.5t441.5 93.5v20q0 37 -7.5 71t-29 73t-69.5 61.5t-120 22.5q-152 0 -260 -74l-41 121q137 86 328 86q207 0 292 -115t85 -289zM672 334v172
q-420 8 -420 -223q0 -84 48 -128t120 -44q92 0 155.5 48t88.5 117q8 27 8 58zM573 1585h172l-227 -270h-108zM221 1346h103q10 -61 53 -101.5t108 -40.5q74 0 117 42t47 100h103q-2 -115 -76 -184.5t-191 -69.5q-127 0 -194.5 75t-69.5 179z" />
    <glyph glyph-name="uni1EB0" unicode="&#x1eb0;" horiz-adv-x="1253" 
d="M868 434h-489l-143 -434h-185l469 1380h215l471 -1380h-190zM416 573h415l-137 398q-27 82 -69 252h-7q-29 -123 -67 -250zM379 1835h188l154 -215h-113zM381 1642h98q25 -100 156 -100t162 100h94q-10 -88 -76.5 -149t-181.5 -61q-113 0 -176.5 59t-75.5 151z" />
    <glyph glyph-name="uni1EB1" unicode="&#x1eb1;" horiz-adv-x="987" 
d="M846 608v-370q0 -143 14 -238h-162l-16 125h-4q-45 -63 -124 -105.5t-179 -42.5q-143 0 -223 84t-80 201q0 180 154.5 275.5t441.5 93.5v20q0 37 -7.5 71t-29 73t-69.5 61.5t-120 22.5q-150 0 -258 -74l-41 121q137 86 326 86q207 0 292 -115t85 -289zM672 334v172
q-420 8 -420 -223q0 -84 48 -128t120 -44q92 0 155.5 48t88.5 117q8 25 8 58zM229 1583h174l164 -270h-110zM221 1346h103q10 -61 53 -101.5t108 -40.5q74 0 117 42t47 100h101q-2 -115 -75 -185.5t-190 -70.5q-127 0 -194.5 75t-69.5 181z" />
    <glyph glyph-name="uni1EB2" unicode="&#x1eb2;" horiz-adv-x="1253" 
d="M868 434h-489l-143 -434h-185l471 1380h213l471 -1380h-190zM416 573h415l-135 398q-29 84 -71 252h-4q-47 -184 -70 -250zM664 1593l-89 25q14 39 59.5 87t45.5 81q0 29 -19.5 47t-48.5 18q-51 0 -98 -73l-65 41q63 131 194 131q68 0 115 -42t47 -102q0 -45 -22.5 -76.5
t-60.5 -66.5t-58 -70zM381 1642h98q29 -100 158 -100q131 0 158 100h96q-10 -88 -76.5 -149t-179.5 -61t-177.5 59t-76.5 151z" />
    <glyph glyph-name="uni1EB3" unicode="&#x1eb3;" horiz-adv-x="987" 
d="M846 608v-370q0 -147 16 -238h-164l-14 125h-6q-45 -63 -124 -105.5t-179 -42.5q-143 0 -223 84t-80 201q0 180 154.5 275.5t441.5 93.5v20q0 37 -7.5 71t-29 73t-69.5 61.5t-120 22.5q-152 0 -258 -74l-41 121q137 86 326 86q207 0 292 -115t85 -289zM672 334v172
q-420 8 -420 -223q0 -84 48 -128t120 -44q92 0 155.5 48t88.5 117q8 25 8 58zM508 1298l-90 23q14 39 59 87t45 83q0 29 -19.5 47t-47.5 18q-51 0 -99 -73l-65 41q66 131 194 131q70 0 118 -43t48 -103q0 -45 -22.5 -75.5t-61.5 -65.5t-59 -70zM217 1346h102
q10 -61 53.5 -101.5t108.5 -40.5q74 0 117 42t47 100h103q-2 -115 -76 -184.5t-191 -69.5q-127 0 -194.5 74t-69.5 180z" />
    <glyph glyph-name="uni1EB4" unicode="&#x1eb4;" horiz-adv-x="1253" 
d="M868 434h-489l-143 -434h-185l469 1380h215l471 -1380h-190zM416 573h415l-135 398q-29 84 -71 252h-4q-37 -145 -70 -250zM477 1712h-102q4 78 40 127t99 49q45 0 127 -43q61 -35 86 -35q51 0 57 84h97q4 -197 -140 -196q-47 0 -125 43q-63 35 -90 35q-41 -1 -49 -64z
M369 1642h96q29 -100 158 -100q131 0 161 100h97q-12 -88 -79 -149t-181 -61q-113 0 -176.5 59t-75.5 151z" />
    <glyph glyph-name="uni1EB5" unicode="&#x1eb5;" horiz-adv-x="987" 
d="M846 608v-370q0 -143 14 -238h-162l-14 125h-6q-45 -63 -124 -105.5t-179 -42.5q-143 0 -223 84t-80 201q0 180 154.5 275.5t441.5 93.5v20q0 37 -7.5 71t-29 73t-69.5 61.5t-120 22.5q-152 0 -260 -74l-41 121q137 86 328 86q207 0 292 -115t85 -289zM672 334v172
q-420 8 -420 -223q0 -84 48 -128t120 -44q92 0 155.5 48t88.5 117q8 27 8 58zM344 1427h-100q4 78 39.5 127.5t97.5 49.5q45 0 127 -43q57 -33 88 -33q51 0 55 82h97q4 -197 -140 -197q-43 0 -125 43q-63 35 -88 35q-43 -1 -51 -64zM233 1346h101q10 -63 52 -104.5
t106 -41.5q72 0 112.5 44t46.5 102h103q-4 -115 -75 -184.5t-187 -69.5q-127 0 -192 74t-67 180z" />
    <glyph glyph-name="uni1EB6" unicode="&#x1eb6;" horiz-adv-x="1253" 
d="M868 434h-489l-143 -434h-185l471 1380h213l471 -1380h-190zM416 573h418l-138 398q-29 84 -71 252h-4q-47 -184 -70 -250zM373 1704h106q23 -100 148 -100q129 0 147 100h105q-4 -96 -67.5 -156.5t-188.5 -60.5q-123 0 -184.5 59.5t-65.5 157.5zM623 -371q-43 0 -72 31
t-29 74q0 41 30 71.5t73 30.5q41 0 69.5 -30.5t28.5 -71.5q0 -43 -28.5 -74t-71.5 -31z" />
    <glyph glyph-name="uni1EB7" unicode="&#x1eb7;" horiz-adv-x="987" 
d="M846 608v-370q0 -143 14 -238h-162l-14 125h-6q-45 -63 -124 -105.5t-179 -42.5q-143 0 -223 84t-80 201q0 180 154.5 275.5t441.5 93.5v20q0 37 -7.5 71t-29 73t-69.5 61.5t-120 22.5q-152 0 -260 -74l-41 121q137 86 328 86q207 0 292 -115t85 -289zM672 334v172
q-420 8 -420 -223q0 -84 48 -128t120 -44q92 0 155.5 48t88.5 117q8 27 8 58zM240 1397h106q10 -63 48 -102.5t98 -39.5q70 0 106.5 41t42.5 101h107q0 -115 -70 -185.5t-184 -70.5q-127 0 -190.5 75t-63.5 181zM494 -164q43 0 71.5 -30.5t28.5 -75.5q0 -43 -28.5 -74
t-73.5 -31q-43 0 -73 31t-30 74q0 45 31 75.5t74 30.5z" />
    <glyph glyph-name="uni1EB8" unicode="&#x1eb8;" horiz-adv-x="1007" 
d="M868 795v-148h-534v-497h598v-150h-778v1380h747v-149h-567v-436h534zM504 -371q-43 0 -72 31t-29 74q0 41 30 71.5t73 30.5q41 0 69.5 -30.5t28.5 -71.5q0 -43 -28.5 -74t-71.5 -31z" />
    <glyph glyph-name="uni1EB9" unicode="&#x1eb9;" horiz-adv-x="1026" 
d="M946 463h-696q2 -174 97 -259t243 -85q158 0 274 51l33 -129q-141 -63 -332 -64q-225 0 -356 137.5t-131 364.5q0 229 127 381t338 152q115 0 199.5 -46t127.5 -120t62.5 -148.5t19.5 -150.5q0 -53 -6 -84zM252 592h526q2 109 -56 200t-194 91q-125 0 -194.5 -89
t-81.5 -202zM512 -166q43 0 71.5 -29.5t28.5 -74.5q0 -43 -28.5 -74t-73.5 -31q-43 0 -72.5 31t-29.5 74t30.5 73.5t73.5 30.5z" />
    <glyph glyph-name="uni1EBA" unicode="&#x1eba;" horiz-adv-x="1007" 
d="M868 795v-148h-534v-497h598v-150h-778v1380h747v-149h-567v-436h534zM594 1452l-96 27q16 41 62 89t46 83q0 29 -19.5 46t-49.5 17q-53 0 -101 -72l-69 44q74 135 202 135q72 0 121 -42t49 -106q0 -45 -23.5 -77.5t-62.5 -69.5t-59 -74z" />
    <glyph glyph-name="uni1EBB" unicode="&#x1ebb;" horiz-adv-x="1026" 
d="M946 463h-696q2 -174 97 -259t243 -85q158 0 274 51l33 -129q-141 -63 -332 -64q-225 0 -356 137.5t-131 364.5q0 229 127 381t338 152q115 0 199.5 -46t127.5 -120t62.5 -148.5t19.5 -150.5q0 -53 -6 -84zM252 592h526q2 109 -56 200t-194 91q-125 0 -194.5 -89
t-81.5 -202zM541 1083l-97 25q12 43 64.5 99.5t52.5 95.5q0 31 -19.5 49t-49.5 18q-55 0 -99 -72l-71 43q68 135 200 136q76 0 125 -43t49 -111q0 -66 -70.5 -138.5t-84.5 -101.5z" />
    <glyph glyph-name="uni1EBC" unicode="&#x1ebc;" horiz-adv-x="1007" 
d="M868 795v-148h-534v-497h598v-150h-778v1380h747v-149h-567v-436h534zM387 1464h-96q-2 94 36 151.5t103 57.5q43 0 121 -41q66 -37 98 -37q25 0 38 16.5t18 63.5h94q4 -199 -137 -198q-47 0 -125 39q-74 39 -97 38q-43 0 -53 -90z" />
    <glyph glyph-name="uni1EBD" unicode="&#x1ebd;" horiz-adv-x="1026" 
d="M946 463h-696q2 -174 97 -259t243 -85q158 0 274 51l33 -129q-141 -63 -332 -64q-225 0 -356 137.5t-131 364.5q0 229 127 381t338 152q115 0 199.5 -46t127.5 -120t62.5 -148.5t19.5 -150.5q0 -53 -6 -84zM252 592h526q2 109 -56 200t-194 91q-125 0 -194.5 -89
t-81.5 -202zM358 1161h-98q-2 98 35 155.5t104 57.5q41 0 127 -45q61 -35 88 -35q49 0 56 86h96q4 -207 -139 -206q-45 0 -127 43q-61 37 -88 36q-48 0 -54 -92z" />
    <glyph glyph-name="uni1EBE" unicode="&#x1ebe;" horiz-adv-x="1007" 
d="M870 795l-2 -148h-534v-497h598v-150h-778v1380h747v-149h-567v-436h536zM471 1688h129l195 -234h-144l-114 143h-5l-112 -143h-139zM868 1843h183l-250 -215h-105z" />
    <glyph glyph-name="uni1EBF" unicode="&#x1ebf;" horiz-adv-x="1026" 
d="M946 463h-696q2 -174 97 -259t243 -85q158 0 274 51l33 -129q-141 -63 -332 -64q-225 0 -356 137.5t-131 364.5q0 229 127 381t338 152q115 0 199.5 -46t127.5 -120t62.5 -148.5t19.5 -150.5q0 -53 -6 -84zM252 592h526q2 109 -56 200t-194 91q-125 0 -194.5 -89
t-81.5 -202zM479 1419h133l176 -293h-137l-104 193h-4l-105 -193h-131zM872 1585h166l-202 -268h-105z" />
    <glyph glyph-name="uni1EC0" unicode="&#x1ec0;" horiz-adv-x="1007" 
d="M870 795l-2 -148h-534v-497h598v-150h-778v1380h747v-149h-567v-436h536zM592 1804h184l150 -213h-111zM463 1688h129l194 -234h-143l-113 143h-4l-114 -143h-138z" />
    <glyph glyph-name="uni1EC1" unicode="&#x1ec1;" horiz-adv-x="1026" 
d="M944 463h-694q2 -174 97 -259t243 -85q158 0 274 51l33 -129q-141 -63 -332 -64q-225 0 -356 137.5t-131 364.5q0 229 127 381t338 152q115 0 199.5 -46t127.5 -120t62.5 -148.5t19.5 -150.5q0 -57 -8 -84zM252 592h526q2 109 -56 200t-194 91q-125 0 -194.5 -89
t-81.5 -202zM621 1585h163l129 -268h-102zM473 1419h131l178 -293h-137l-104 193h-4l-105 -193h-133z" />
    <glyph glyph-name="uni1EC2" unicode="&#x1ec2;" horiz-adv-x="1007" 
d="M870 795v-148h-534v-497h598v-150h-778v1380h745v-149h-565v-436h534zM463 1688h129l194 -234h-143l-115 143h-4l-112 -143h-140zM836 1544l-86 25q14 41 60 88t46 82q0 29 -20.5 48t-49.5 19q-51 0 -100 -75l-65 38q63 131 194 132q70 0 116 -41t46 -103
q0 -57 -62.5 -120.5t-78.5 -92.5z" />
    <glyph glyph-name="uni1EC3" unicode="&#x1ec3;" horiz-adv-x="1026" 
d="M944 463h-694q2 -174 97 -259t243 -85q158 0 274 51l33 -129q-141 -63 -332 -64q-225 0 -356 137.5t-131 364.5q0 229 127 381t338 152q115 0 199.5 -46t127.5 -120t62.5 -148.5t19.5 -150.5q0 -57 -8 -84zM252 592h526q2 109 -56 200t-194 91q-125 0 -194.5 -89
t-81.5 -202zM463 1419h131l178 -293h-137l-105 193h-4l-104 -193h-133zM831 1298l-90 25q14 39 59.5 86t45.5 82q0 29 -19.5 47t-48.5 18q-51 0 -98 -73l-68 41q70 131 197 131q70 0 117 -43t47 -103q0 -45 -22.5 -75.5t-61 -65.5t-58.5 -70z" />
    <glyph glyph-name="uni1EC4" unicode="&#x1ec4;" horiz-adv-x="1007" 
d="M868 795v-148h-534v-497h598v-150h-778v1380h747v-149h-567v-436h534zM479 1688h137l215 -234h-151l-129 141h-4l-131 -141h-146zM403 1714h-100q-2 88 37 141.5t102 53.5q41 0 127 -45q66 -33 86 -33q51 0 58 84h94q6 -197 -139 -197q-45 0 -123 43q-63 35 -90 35
q-48 0 -52 -82z" />
    <glyph glyph-name="uni1EC5" unicode="&#x1ec5;" horiz-adv-x="1026" 
d="M946 463h-696q2 -174 97 -259t243 -85q158 0 274 51l33 -129q-141 -63 -332 -64q-225 0 -356 137.5t-131 364.5q0 229 127 381t338 152q115 0 199.5 -46t127.5 -120t62.5 -148.5t19.5 -150.5q0 -53 -6 -84zM252 592h526q2 109 -56 200t-194 91q-125 0 -194.5 -89
t-81.5 -202zM467 1366h131l186 -240h-141l-108 150h-5l-110 -150h-137zM385 1391h-98q-2 88 35.5 141t103.5 53q37 0 127 -45q66 -33 86 -33q49 0 55 84h97q4 -197 -140 -196q-43 0 -125 43q-66 33 -88 32q-47 1 -53 -79z" />
    <glyph glyph-name="uni1EC6" unicode="&#x1ec6;" horiz-adv-x="1007" 
d="M868 795v-148h-534v-497h598v-150h-778v1380h747v-149h-567v-436h534zM465 1688h137l215 -234h-151l-129 141h-5l-131 -141h-145zM532 -371q-43 0 -71.5 31t-28.5 74q0 41 30 71.5t73 30.5q41 0 69.5 -30.5t28.5 -71.5q0 -43 -29 -74t-72 -31z" />
    <glyph glyph-name="uni1EC7" unicode="&#x1ec7;" horiz-adv-x="1026" 
d="M946 463h-696q2 -174 97 -259t243 -85q158 0 274 51l33 -129q-141 -63 -332 -64q-225 0 -356 137.5t-131 364.5q0 229 127 381t338 152q115 0 199.5 -46t127.5 -120t62.5 -148.5t19.5 -150.5q0 -53 -6 -84zM252 592h526q2 109 -56 200t-194 91q-125 0 -194.5 -89
t-81.5 -202zM449 1419h124l197 -293h-137l-119 193h-4l-119 -193h-135zM512 -164q43 0 71.5 -30.5t28.5 -75.5q0 -43 -28.5 -74t-73.5 -31q-43 0 -72.5 31t-29.5 74t30.5 74.5t73.5 31.5z" />
    <glyph glyph-name="uni1EC8" unicode="&#x1ec8;" horiz-adv-x="489" 
d="M154 1380h180v-1380h-180v1380zM293 1452l-94 27q16 41 61 88t45 82q0 66 -67 65q-51 0 -103 -72l-67 41q68 137 202 138q72 0 121 -43t49 -105q0 -45 -23.5 -78.5t-63.5 -70.5t-60 -72z" />
    <glyph glyph-name="uni1EC9" unicode="&#x1ec9;" horiz-adv-x="479" 
d="M330 0h-180v991h180v-991zM268 1085l-96 25q12 43 64.5 99.5t52.5 95.5q0 31 -19.5 49t-50.5 18q-55 0 -98 -72l-70 43q63 135 201 136q74 0 123 -43t49 -111q0 -66 -71 -138.5t-85 -101.5z" />
    <glyph glyph-name="uni1ECA" unicode="&#x1eca;" horiz-adv-x="489" 
d="M154 1380h180v-1380h-180v1380zM246 -371q-43 0 -72 31t-29 74q0 41 30 71.5t73 30.5q41 0 69.5 -30.5t28.5 -71.5q0 -43 -28.5 -74t-71.5 -31z" />
    <glyph glyph-name="uni1ECB" unicode="&#x1ecb;" horiz-adv-x="479" 
d="M330 0h-180v991h180v-991zM239.5 1382q49.5 0 80 -31.5t30.5 -80.5q0 -47 -30.5 -79t-83.5 -32q-49 0 -79 32t-30 79t31.5 79.5t81 32.5zM240 -164q43 0 71.5 -30.5t28.5 -75.5q0 -43 -28.5 -74t-73.5 -31q-43 0 -73 31t-30 74q0 45 31 75.5t74 30.5z" />
    <glyph glyph-name="uni1ECC" unicode="&#x1ecc;" horiz-adv-x="1411" 
d="M713 1405q283 0 452.5 -194.5t169.5 -505.5q0 -342 -182 -535t-459 -193q-274 0 -447 195t-173 508q0 326 179 525.5t460 199.5zM707 1260q-211 0 -328 -167t-117 -409q0 -233 120 -397t323 -164q205 0 323.5 164t118.5 409q0 227 -115.5 395.5t-324.5 168.5zM705 -371
q-43 0 -72 31t-29 74q0 41 30 71.5t73 30.5q41 0 69.5 -30.5t28.5 -71.5q0 -43 -28.5 -74t-71.5 -31z" />
    <glyph glyph-name="uni1ECD" unicode="&#x1ecd;" horiz-adv-x="1124" 
d="M569 1014q213 0 345.5 -141.5t132.5 -368.5q0 -256 -147.5 -391.5t-346.5 -135.5q-205 0 -340 140.5t-135 369.5q0 242 140 384.5t351 142.5zM565 879q-147 0 -225 -115t-78 -270q0 -164 84 -272.5t215 -108.5q129 0 215 109.5t86 275.5q0 90 -28.5 173t-98.5 145.5
t-170 62.5zM561 -166q43 0 72 -29.5t29 -74.5t-29 -76t-74 -31q-43 0 -72.5 32t-29.5 75t30.5 73.5t73.5 30.5z" />
    <glyph glyph-name="uni1ECE" unicode="&#x1ece;" horiz-adv-x="1411" 
d="M713 1405q283 0 452.5 -194.5t169.5 -505.5q0 -342 -182 -535t-459 -193q-274 0 -447 195t-173 508q0 326 179 525.5t460 199.5zM707 1260q-211 0 -328 -167t-117 -409q0 -233 120 -397t323 -164q205 0 323.5 164t118.5 409q0 227 -115.5 395.5t-324.5 168.5zM754 1454
l-97 27q14 41 60.5 89t46.5 83q0 29 -18.5 46t-49.5 17q-53 0 -100 -71l-70 41q68 137 203 137q72 0 121 -42t49 -106q0 -61 -65.5 -127.5t-79.5 -93.5z" />
    <glyph glyph-name="uni1ECF" unicode="&#x1ecf;" horiz-adv-x="1124" 
d="M569 1012q213 0 345.5 -141.5t132.5 -366.5q0 -256 -147.5 -391.5t-346.5 -135.5q-205 0 -340 140.5t-135 369.5q0 240 140 382.5t351 142.5zM565.5 877q-147.5 0 -225.5 -114t-78 -269q0 -164 84 -272.5t215 -108.5q129 0 215 109.5t86 275.5q0 145 -74.5 262t-222 117z
M590 1083l-96 25q12 43 64 99.5t52 95.5q0 31 -19.5 49t-49.5 18q-55 0 -99 -72l-69 43q63 135 200 136q74 0 123 -43t49 -111q0 -66 -70.5 -137.5t-84.5 -102.5z" />
    <glyph glyph-name="uni1ED0" unicode="&#x1ed0;" horiz-adv-x="1411" 
d="M715 1405q281 0 451.5 -194.5t168.5 -505.5q0 -342 -182 -535t-458.5 -193t-448.5 194t-172 507q0 324 180 523.5t461 203.5zM709 1260q-211 0 -328 -167t-119 -411q0 -233 120 -396t323 -163q205 0 323.5 164t118.5 409q0 143 -46 267t-148.5 210.5t-243.5 86.5z
M657 1690h131l193 -234h-143l-113 143h-4l-113 -143h-139zM1055 1845h182l-248 -215h-106z" />
    <glyph glyph-name="uni1ED1" unicode="&#x1ed1;" horiz-adv-x="1124" 
d="M569 1012q213 0 345.5 -141.5t132.5 -366.5q0 -256 -147.5 -391.5t-346.5 -135.5q-205 0 -340 140.5t-135 369.5q0 240 140 382.5t351 142.5zM565.5 877q-147.5 0 -225.5 -114t-78 -269q0 -164 84 -272.5t215 -108.5q129 0 215 109.5t86 275.5q0 145 -74.5 262t-222 117z
M504 1419h133l176 -293h-137l-105 193h-4l-104 -193h-131zM897 1585h166l-203 -268h-104z" />
    <glyph glyph-name="uni1ED2" unicode="&#x1ed2;" horiz-adv-x="1411" 
d="M713 1405q283 0 452.5 -194.5t169.5 -505.5q0 -342 -182 -535t-458.5 -193t-448.5 194t-172 507q0 324 179 523.5t460 203.5zM707 1260q-211 0 -328 -167t-117 -411q0 -233 120 -396t323 -163q205 0 323.5 164t118.5 409q0 225 -115.5 393.5t-324.5 170.5zM776 1806h187
l147 -215h-109zM649 1690h129l193 -234h-144l-112 143h-4l-113 -143h-139z" />
    <glyph glyph-name="uni1ED3" unicode="&#x1ed3;" horiz-adv-x="1124" 
d="M569 1012q213 0 345.5 -141.5t132.5 -366.5q0 -256 -147.5 -391.5t-346.5 -135.5q-205 0 -340 140.5t-135 369.5q0 240 140 382.5t351 142.5zM565.5 877q-147.5 0 -225.5 -114t-78 -269q0 -164 84 -272.5t215 -108.5q129 0 215 109.5t86 275.5q0 145 -74.5 262t-222 117z
M651 1585h164l131 -268h-104zM506 1419h131l176 -293h-137l-103 193h-6l-102 -193h-131z" />
    <glyph glyph-name="uni1ED4" unicode="&#x1ed4;" horiz-adv-x="1411" 
d="M713 1405q283 0 452.5 -194.5t169.5 -505.5q0 -342 -182 -535t-459 -193q-274 0 -447 195t-173 508q0 326 179 525.5t460 199.5zM707 1260q-211 0 -328 -167t-117 -409q0 -233 120 -397t323 -164q205 0 323.5 164t118.5 409q0 227 -115.5 395.5t-324.5 168.5zM649 1688
h131l193 -234h-144l-112 143h-4l-113 -143h-139zM1024 1544l-86 25q14 39 60 87t46 83q0 29 -20 48t-49 19q-49 0 -103 -75l-65 38q68 131 197 132q70 0 115.5 -42t45.5 -102q0 -57 -62.5 -119.5t-78.5 -93.5z" />
    <glyph glyph-name="uni1ED5" unicode="&#x1ed5;" horiz-adv-x="1124" 
d="M569 1012q213 0 345.5 -141.5t132.5 -366.5q0 -256 -147.5 -391.5t-346.5 -135.5q-205 0 -340 140.5t-135 369.5q0 240 140 382.5t351 142.5zM565.5 877q-147.5 0 -225.5 -114t-78 -269q0 -164 84 -272.5t215 -108.5q129 0 215 109.5t86 275.5q0 145 -74.5 262t-222 117z
M494 1419h133l174 -293h-135l-105 193h-4l-104 -193h-131zM862 1298l-90 25q14 39 59.5 86t45.5 82q0 27 -20.5 46t-49.5 19q-49 0 -96 -73l-66 41q66 131 195 131q68 0 114.5 -42t46.5 -104q0 -45 -22.5 -75.5t-59.5 -65.5t-57 -70z" />
    <glyph glyph-name="uni1ED6" unicode="&#x1ed6;" horiz-adv-x="1411" 
d="M713 1405q283 0 452.5 -194.5t169.5 -505.5q0 -342 -182 -535t-459 -193q-274 0 -447 195t-173 508q0 326 179 525.5t460 199.5zM707 1260q-211 0 -328 -167t-117 -409q0 -233 120 -397t323 -164q205 0 323.5 164t118.5 409q0 227 -115.5 395.5t-324.5 168.5zM635 1688
h137l215 -234h-151l-129 141h-5l-131 -141h-145zM559 1714h-100q-2 88 37 141.5t102 53.5q41 0 127 -45q66 -33 86 -33q51 0 57 84h95q6 -197 -140 -197q-45 0 -123 43q-63 35 -90 35q-47 0 -51 -82z" />
    <glyph glyph-name="uni1ED7" unicode="&#x1ed7;" horiz-adv-x="1124" 
d="M569 1012q213 0 345.5 -141.5t132.5 -366.5q0 -256 -147.5 -391.5t-346.5 -135.5q-205 0 -340 140.5t-135 369.5q0 240 140 382.5t351 142.5zM565.5 877q-147.5 0 -225.5 -114t-78 -269q0 -164 84 -272.5t215 -108.5q129 0 215 109.5t86 275.5q0 145 -74.5 262t-222 117z
M494 1366h133l186 -240h-141l-111 150h-4l-108 -150h-138zM414 1391h-99q-2 88 36 141t104 53q37 0 127 -45q66 -33 86 -33q49 0 55 84h96q4 -197 -139 -196q-43 0 -125 43q-66 33 -88 32q-47 1 -53 -79z" />
    <glyph glyph-name="uni1ED8" unicode="&#x1ed8;" horiz-adv-x="1411" 
d="M713 1405q283 0 452.5 -194.5t169.5 -505.5q0 -342 -182 -535t-459 -193q-274 0 -447 195t-173 508q0 326 179 525.5t460 199.5zM707 1260q-211 0 -328 -167t-117 -409q0 -233 120 -397t323 -164q205 0 323.5 164t118.5 409q0 227 -115.5 395.5t-324.5 168.5zM633 1688
h137l215 -234h-151l-129 141h-5l-131 -141h-145zM705 -371q-43 0 -72 31t-29 74q0 41 30 71.5t73 30.5q41 0 69.5 -30.5t28.5 -71.5q0 -43 -28.5 -74t-71.5 -31z" />
    <glyph glyph-name="uni1ED9" unicode="&#x1ed9;" horiz-adv-x="1124" 
d="M569 1014q213 0 345.5 -141.5t132.5 -368.5q0 -256 -147.5 -391.5t-346.5 -135.5q-205 0 -340 140.5t-135 369.5q0 242 140 384.5t351 142.5zM565 879q-147 0 -225 -115t-78 -270q0 -164 84 -272.5t215 -108.5q129 0 215 109.5t86 275.5q0 90 -28.5 173t-98.5 145.5
t-170 62.5zM496 1419h125l196 -293h-137l-119 193h-4l-119 -193h-135zM561 -164q43 0 72 -30.5t29 -75.5q0 -43 -29 -74t-74 -31q-43 0 -72.5 31t-29.5 74t30.5 74.5t73.5 31.5z" />
    <glyph glyph-name="uni1EDA" unicode="&#x1eda;" horiz-adv-x="1411" 
d="M705 123q205 0 323.5 164t118.5 409q0 227 -116 395.5t-324 168.5q-211 0 -328 -168t-117 -408q0 -231 120 -396t323 -165zM1212 1518l140 24q39 -82 39 -166q0 -90 -54.5 -141t-160.5 -43q160 -180 159 -487q0 -342 -182 -535t-459 -193q-274 0 -447 195t-173 508
q0 326 179 525.5t460 199.5q119 0 215 -37q18 -6 67 -26.5t90 -33t70 -12.5q49 0 70.5 21.5t21.5 68.5q0 66 -35 132zM803 1694h219l-262 -240h-146z" />
    <glyph glyph-name="uni1EDB" unicode="&#x1edb;" horiz-adv-x="1132" 
d="M565 877q-147 0 -225 -114t-78 -269q0 -164 84 -272.5t215 -108.5q129 0 215 109.5t88 277.5q0 66 -17.5 130t-51 121.5t-93 91.5t-137.5 34zM963 1135l137 22q35 -70 35 -149q0 -84 -49.5 -132.5t-141.5 -44.5q102 -131 103 -327q0 -256 -147.5 -391.5t-346.5 -135.5
q-205 0 -340 140.5t-135 369.5q0 240 140 382.5t351 142.5q80 0 170 -27q16 -4 50 -19.5t65 -24.5t59 -9q80 0 84 82q1 58 -34 121zM653 1419h197l-250 -293h-127z" />
    <glyph glyph-name="uni1EDC" unicode="&#x1edc;" horiz-adv-x="1411" 
d="M705 123q205 0 323.5 164t118.5 409q0 227 -116 395.5t-324 168.5q-211 0 -328 -168t-117 -408q0 -231 120 -396t323 -165zM1212 1518l140 24q39 -82 39 -166q0 -90 -54.5 -141t-160.5 -43q160 -180 159 -487q0 -342 -182 -535t-459 -193q-274 0 -447 195t-173 508
q0 326 179 525.5t460 199.5q119 0 215 -37q18 -6 67 -26.5t90 -33t70 -12.5q92 0 92 90q0 66 -35 132zM422 1694h217l190 -238h-145z" />
    <glyph glyph-name="uni1EDD" unicode="&#x1edd;" horiz-adv-x="1132" 
d="M565 877q-147 0 -225 -114t-78 -269q0 -164 84 -272.5t215 -108.5q129 0 215 109.5t88 277.5q0 66 -17.5 130t-51 121.5t-93 91.5t-137.5 34zM963 1135l137 22q35 -70 35 -149q0 -84 -49.5 -132.5t-141.5 -44.5q102 -131 103 -327q0 -256 -147.5 -391.5t-346.5 -135.5
q-205 0 -340 140.5t-135 369.5q0 240 140 382.5t351 142.5q80 0 170 -27q16 -4 50 -19.5t65 -24.5t59 -9q80 0 84 82q1 58 -34 121zM301 1419h197l180 -293h-127z" />
    <glyph glyph-name="uni1EDE" unicode="&#x1ede;" horiz-adv-x="1411" 
d="M705 123q205 0 323.5 164t118.5 409q0 227 -116 395.5t-324 168.5q-211 0 -328 -168t-117 -408q0 -231 120 -396t323 -165zM1212 1518l140 26q39 -86 39 -168q0 -90 -54.5 -141t-160.5 -43q160 -180 159 -487q0 -342 -182 -535t-459 -193q-274 0 -447 195t-173 508
q0 326 179 525.5t460 199.5q119 0 215 -37q20 -6 68 -26.5t89 -34t70 -13.5q92 0 92 92q0 69 -35 132zM754 1454l-97 27q14 41 60.5 89t46.5 83q0 29 -18.5 46t-49.5 17q-53 0 -100 -71l-70 41q68 137 203 137q72 0 121 -42t49 -106q0 -61 -65.5 -127.5t-79.5 -93.5z" />
    <glyph glyph-name="uni1EDF" unicode="&#x1edf;" horiz-adv-x="1132" 
d="M565 877q-147 0 -225 -114t-78 -269q0 -164 84 -272.5t215 -108.5q129 0 215 109.5t88 277.5q0 66 -17.5 130t-51 121.5t-93 91.5t-137.5 34zM963 1133l137 24q35 -70 35 -149q0 -84 -49.5 -132.5t-141.5 -44.5q102 -131 103 -327q0 -256 -147.5 -391.5t-346.5 -135.5
q-205 0 -340 140.5t-135 369.5q0 240 140 382.5t351 142.5q80 0 170 -27q16 -4 50 -19.5t65 -24.5t59 -9q80 0 84 82q1 60 -34 119zM590 1083l-96 25q12 43 64 99.5t52 95.5q0 31 -19.5 49t-49.5 18q-55 0 -99 -72l-69 43q63 135 198 136q76 0 125 -43t49 -111
q0 -66 -70.5 -137.5t-84.5 -102.5z" />
    <glyph glyph-name="uni1EE0" unicode="&#x1ee0;" horiz-adv-x="1411" 
d="M705 123q205 0 323.5 164t118.5 409q0 225 -116 393t-324 171q-211 0 -328 -169t-117 -409q0 -229 120 -394t323 -165zM1212 1516l140 24q39 -82 39 -166q0 -90 -54.5 -141t-160.5 -41q160 -184 159 -487q0 -342 -182 -535t-458.5 -193t-448.5 194t-172 507
q0 326 179 525.5t460 201.5q119 0 215 -37q18 -6 66 -26.5t89 -34t72 -13.5q92 0 92 90q0 69 -35 132zM561 1464h-96q-2 94 36 151.5t101 57.5q45 0 123 -41q66 -37 98 -37q25 0 38 16.5t18 63.5h94q4 -199 -137 -198q-47 0 -125 39q-74 39 -97 38q-43 0 -53 -90z" />
    <glyph glyph-name="uni1EE1" unicode="&#x1ee1;" horiz-adv-x="1132" 
d="M565 877q-150 0 -227.5 -114t-75.5 -269q0 -164 84 -272.5t215 -108.5q129 0 215 109.5t88 277.5q0 66 -17.5 130t-51 121.5t-93 91.5t-137.5 34zM963 1135l137 24q35 -74 35 -151q0 -84 -49.5 -132.5t-141.5 -44.5q102 -131 103 -327q0 -256 -147.5 -391.5
t-346.5 -135.5q-205 0 -340 140.5t-135 369.5q0 240 140 382.5t351 142.5q76 0 168 -25q16 -6 50 -21.5t65 -24.5t59 -9q82 0 86 82q1 62 -34 121zM408 1161h-99q-2 100 35 157.5t102 57.5q43 0 129 -47q61 -35 87 -35q51 0 57 86h96q2 -102 -32.5 -154t-108.5 -50
q-43 0 -125 41q-61 37 -88 36q-47 0 -53 -92z" />
    <glyph glyph-name="uni1EE2" unicode="&#x1ee2;" horiz-adv-x="1411" 
d="M705 123q205 0 323.5 164t118.5 409q0 227 -116 395.5t-324 168.5q-211 0 -328 -168t-117 -408q0 -231 120 -396t323 -165zM1212 1518l140 26q39 -86 39 -168q0 -90 -54.5 -141t-160.5 -43q160 -180 159 -487q0 -342 -182 -535t-459 -193q-274 0 -447 195t-173 508
q0 326 179 525.5t460 199.5q119 0 215 -37q20 -6 68 -26.5t89 -34t70 -13.5q92 0 92 92q0 69 -35 132zM705 -371q-43 0 -72 31t-29 74q0 41 30 71.5t73 30.5q41 0 69.5 -30.5t28.5 -71.5q0 -43 -28.5 -74t-71.5 -31z" />
    <glyph glyph-name="uni1EE3" unicode="&#x1ee3;" horiz-adv-x="1132" 
d="M565 877q-147 0 -225 -114t-78 -269q0 -164 84 -272.5t215 -108.5q129 0 215 109.5t88 277.5q0 66 -17.5 130t-51 121.5t-93 91.5t-137.5 34zM963 1133l137 24q35 -70 35 -149q0 -84 -49.5 -132.5t-141.5 -44.5q102 -131 103 -327q0 -256 -147.5 -391.5t-346.5 -135.5
q-205 0 -340 140.5t-135 369.5q0 240 140 382.5t351 142.5q80 0 170 -27q16 -4 50 -19.5t65 -24.5t59 -9q80 0 84 82q1 60 -34 119zM565 -164q43 0 72 -30.5t29 -75.5q0 -43 -29 -74t-74 -31q-43 0 -72.5 31t-29.5 74q0 45 30.5 75.5t73.5 30.5z" />
    <glyph glyph-name="uni1EE4" unicode="&#x1ee4;" horiz-adv-x="1325" 
d="M154 1380h180v-819q0 -221 88 -329.5t233 -108.5q158 0 247 108.5t89 329.5v819h180v-807q0 -303 -142 -449.5t-380 -146.5q-227 0 -361 142.5t-134 447.5v813zM664 -371q-43 0 -72 31t-29 74q0 41 30 71.5t73 30.5q41 0 69.5 -30.5t28.5 -71.5q0 -43 -28.5 -74
t-71.5 -31z" />
    <glyph glyph-name="uni1EE5" unicode="&#x1ee5;" horiz-adv-x="1128" 
d="M979 991v-719q0 -168 8 -272h-160l-10 162h-4q-41 -74 -125 -129.5t-203 -55.5q-63 0 -119.5 20.5t-108.5 67t-83 135.5t-31 212v579h181v-547q0 -317 221 -317q84 0 147.5 49t89.5 117q16 39 17 92v606h180zM563 -164q43 0 72 -30.5t29 -75.5q0 -43 -29 -74t-74 -31
q-43 0 -72.5 31t-29.5 74q0 45 30.5 75.5t73.5 30.5z" />
    <glyph glyph-name="uni1EE6" unicode="&#x1ee6;" horiz-adv-x="1325" 
d="M154 1380h180v-819q0 -221 88 -329.5t233 -108.5q158 0 247 108.5t89 329.5v819h180v-807q0 -303 -142 -449.5t-380 -146.5q-227 0 -361 142.5t-134 447.5v813zM711 1452l-95 27q16 41 61.5 88t45.5 82q0 31 -18.5 48t-49.5 17q-51 0 -102 -72l-68 41q68 137 203 138
q72 0 121 -43t49 -105q0 -45 -23.5 -78.5t-63.5 -70.5t-60 -72z" />
    <glyph glyph-name="uni1EE7" unicode="&#x1ee7;" horiz-adv-x="1128" 
d="M979 991v-719q0 -168 8 -272h-160l-10 162h-4q-41 -74 -125 -129.5t-203 -55.5q-63 0 -119.5 20.5t-108.5 67t-83 135.5t-31 212v579h181v-547q0 -317 221 -317q84 0 147.5 49t89.5 117q16 39 17 92v606h180zM594 1085l-98 25q12 43 64 99.5t52 95.5q0 31 -19.5 49
t-47.5 18q-57 0 -101 -72l-69 43q63 135 200 136q74 0 123.5 -43t49.5 -111q0 -66 -70 -137.5t-84 -102.5z" />
    <glyph glyph-name="uni1EE8" unicode="&#x1ee8;" horiz-adv-x="1386" 
d="M1214 1577l138 25q35 -76 34.5 -154t-47.5 -125t-137 -49l-31 -2v-699q0 -303 -142 -449.5t-380 -146.5q-227 0 -361 142.5t-134 447.5v813h180v-819q0 -221 88 -329.5t233 -108.5q158 0 247 108.5t89 329.5v819h162q51 0 72.5 18.5t21.5 59.5q0 60 -33 119zM752 1694
h217l-262 -240h-146z" />
    <glyph glyph-name="uni1EE9" unicode="&#x1ee9;" horiz-adv-x="1128" 
d="M1001 1188l138 24q37 -70 37 -147q0 -74 -49.5 -121t-125.5 -51h-22v-623q0 -166 8 -270h-160l-10 162h-4q-41 -74 -125 -129.5t-203 -55.5q-63 0 -119.5 20.5t-108.5 67t-83 135.5t-31 212v579h181v-549q0 -315 221 -315q84 0 147.5 49t89.5 117q16 39 17 92v606h143
q96 0 96 80q0 60 -37 117zM678 1419h196l-249 -293h-127z" />
    <glyph glyph-name="uni1EEA" unicode="&#x1eea;" horiz-adv-x="1386" 
d="M1214 1577l138 25q35 -76 34.5 -154t-47.5 -125t-137 -49l-31 -2v-699q0 -303 -142 -449.5t-380 -146.5q-227 0 -361 142.5t-134 447.5v813h180v-819q0 -221 88 -329.5t233 -108.5q158 0 247 108.5t89 329.5v819h162q51 0 72.5 18.5t21.5 59.5q0 60 -33 119zM375 1694
h217l190 -238h-145z" />
    <glyph glyph-name="uni1EEB" unicode="&#x1eeb;" horiz-adv-x="1128" 
d="M1001 1188l138 24q37 -70 37 -147q0 -74 -49.5 -121t-125.5 -51h-22v-623q0 -166 8 -270h-160l-10 162h-4q-41 -74 -125 -129.5t-203 -55.5q-63 0 -119.5 20.5t-108.5 67t-83 135.5t-31 212v579h181v-549q0 -315 221 -315q84 0 147.5 49t89.5 117q16 39 17 92v606h143
q96 0 96 80q0 60 -37 117zM299 1419h197l180 -293h-127z" />
    <glyph glyph-name="uni1EEC" unicode="&#x1eec;" horiz-adv-x="1386" 
d="M1214 1577l138 25q35 -76 34.5 -154t-47.5 -125t-137 -49l-31 -2v-699q0 -303 -142 -449.5t-380 -146.5q-227 0 -361 142.5t-134 447.5v813h180v-819q0 -221 88 -329.5t233 -108.5q158 0 247 108.5t89 329.5v819h162q51 0 72.5 18.5t21.5 59.5q0 60 -33 119zM743 1452
l-96 27q16 41 61.5 88t45.5 82q0 66 -68 65q-53 0 -100 -72l-70 41q70 137 203 138q72 0 121 -43t49 -105q0 -45 -23.5 -78.5t-63 -70.5t-59.5 -72z" />
    <glyph glyph-name="uni1EED" unicode="&#x1eed;" horiz-adv-x="1128" 
d="M1001 1190l138 24q37 -70 37 -147q0 -76 -49.5 -123t-125.5 -51h-22v-623q0 -166 8 -270h-160l-10 162h-4q-41 -74 -125 -129.5t-203 -55.5q-63 0 -119.5 20.5t-108.5 67t-83 135.5t-31 212v579h181v-549q0 -315 221 -315q84 0 147.5 49t89.5 117q16 39 17 92v606h143
q96 0 96 82q0 58 -37 117zM610 1085l-98 25q12 43 64.5 99.5t52.5 95.5q0 31 -19.5 49t-48.5 18q-57 0 -100 -72l-70 43q68 135 201 136q74 0 123 -43t49 -111q0 -66 -70 -138.5t-84 -101.5z" />
    <glyph glyph-name="uni1EEE" unicode="&#x1eee;" horiz-adv-x="1386" 
d="M1214 1577l138 25q35 -76 34.5 -154t-47.5 -125t-137 -49l-31 -2v-699q0 -303 -142 -449.5t-380 -146.5q-227 0 -361 142.5t-134 447.5v813h180v-819q0 -221 88 -329.5t233 -108.5q158 0 247 108.5t89 329.5v819h162q51 0 72.5 18.5t21.5 61.5q0 58 -33 117zM535 1464
h-97q-2 94 36 151.5t104 57.5q41 0 122 -41q66 -37 99 -37q25 0 38 16.5t17 63.5h94q4 -199 -137 -198q-45 0 -127 39q-74 39 -96 38q-43 0 -53 -90z" />
    <glyph glyph-name="uni1EEF" unicode="&#x1eef;" horiz-adv-x="1128" 
d="M1001 1188l138 24q37 -68 37 -147q0 -74 -49.5 -121t-125.5 -51h-22v-623q0 -166 8 -270h-160l-10 162h-4q-43 -74 -126 -129.5t-202 -55.5q-63 0 -119.5 20.5t-108.5 67t-83 135.5t-31 212v579h181v-549q0 -315 221 -315q84 0 147.5 49t89.5 117q16 39 17 92v606h143
q96 0 96 80q0 60 -37 117zM412 1161h-99q-2 98 35 155.5t105 57.5q39 0 129 -45q61 -35 86 -35q49 0 55 86h96q4 -207 -139 -206q-49 0 -127 45q-63 35 -88 34q-47 0 -53 -92z" />
    <glyph glyph-name="uni1EF0" unicode="&#x1ef0;" horiz-adv-x="1386" 
d="M1214 1577l138 25q35 -76 34.5 -154t-47.5 -125t-137 -49l-31 -2v-699q0 -303 -142 -449.5t-380 -146.5q-227 0 -361 142.5t-134 447.5v813h180v-819q0 -221 88 -329.5t233 -108.5q158 0 247 108.5t89 329.5v819h162q51 0 72.5 18.5t21.5 59.5q0 60 -33 119zM692 -164
q43 0 72 -30.5t29 -75.5q0 -43 -29 -74t-74 -31q-43 0 -72.5 31t-29.5 74q0 45 30.5 75.5t73.5 30.5z" />
    <glyph glyph-name="uni1EF1" unicode="&#x1ef1;" horiz-adv-x="1128" 
d="M1001 1190l138 24q37 -70 37 -147q0 -76 -49.5 -123t-125.5 -51h-22v-623q0 -166 8 -270h-160l-10 162h-4q-41 -74 -125 -129.5t-203 -55.5q-63 0 -119.5 20.5t-108.5 67t-83 135.5t-31 212v579h181v-549q0 -315 221 -315q84 0 147.5 49t89.5 117q16 39 17 92v606h143
q96 0 96 82q0 58 -37 117zM559 -164q43 0 71.5 -30.5t28.5 -75.5q0 -43 -28.5 -74t-73.5 -31q-43 0 -72.5 31t-29.5 74q0 45 30.5 75.5t73.5 30.5z" />
    <glyph glyph-name="Ygrave" unicode="&#x1ef2;" horiz-adv-x="1107" 
d="M643 0h-180v586l-438 794h204l195 -381q113 -231 137 -284h4q25 57 140 284l198 381h201l-461 -792v-588zM268 1679h217l191 -237h-146z" />
    <glyph glyph-name="ygrave" unicode="&#x1ef3;" horiz-adv-x="964" 
d="M18 991h197l215 -585q37 -96 66 -203h4q2 6 25.5 85t37.5 122l197 581h190l-270 -706q-100 -262 -175 -401.5t-165 -219.5q-113 -94 -221 -115l-45 150q86 27 157 88q92 72 152 201q14 33 14 43q0 16 -14 47zM221 1419h197l180 -293h-127z" />
    <glyph glyph-name="uni1EF4" unicode="&#x1ef4;" horiz-adv-x="1107" 
d="M643 0h-180v586l-438 794h204l195 -381q113 -231 137 -284h4q25 57 140 284l198 381h201l-461 -792v-588zM553 -371q-43 0 -71.5 31t-28.5 74q0 41 29.5 71.5t72.5 30.5q41 0 69.5 -30.5t28.5 -71.5q0 -43 -28.5 -74t-71.5 -31z" />
    <glyph glyph-name="uni1EF5" unicode="&#x1ef5;" horiz-adv-x="964" 
d="M18 991h197l215 -585q37 -96 66 -203h4q2 6 25.5 85t37.5 122l197 581h190l-270 -706q-100 -264 -175 -403.5t-165 -217.5q-113 -96 -221 -117l-45 152q84 27 159 88q96 78 150 201q14 27 14 43q0 20 -12 47zM668 -164q43 0 71.5 -30.5t28.5 -75.5q0 -43 -28.5 -74
t-73.5 -31q-43 0 -73 31t-30 74q0 45 31 75.5t74 30.5z" />
    <glyph glyph-name="uni1EF6" unicode="&#x1ef6;" horiz-adv-x="1107" 
d="M643 0h-180v586l-438 794h204l195 -381q113 -231 137 -284h4q25 57 140 284l198 381h201l-461 -792v-588zM602 1452l-96 27q16 41 62 88t46 82q0 31 -19.5 48t-49.5 17q-53 0 -101 -72l-69 41q72 137 205 138q72 0 121 -43t49 -105q0 -45 -24 -78.5t-64 -70.5t-60 -72z
" />
    <glyph glyph-name="uni1EF7" unicode="&#x1ef7;" horiz-adv-x="964" 
d="M18 991h197l215 -585q37 -96 66 -203h4q2 6 25.5 85t37.5 122l197 581h190l-270 -706q-100 -262 -175 -401.5t-165 -219.5q-113 -94 -221 -115l-45 150q86 27 157 88q92 72 152 201q14 33 14 43q0 16 -14 47zM530 1085l-98 25q12 43 64.5 99.5t52.5 95.5q0 31 -19.5 49
t-50.5 18q-55 0 -98 -72l-70 43q63 135 201 136q74 0 123 -43t49 -111q0 -66 -70 -137.5t-84 -102.5z" />
    <glyph glyph-name="uni1EF8" unicode="&#x1ef8;" horiz-adv-x="1107" 
d="M643 0h-180v586l-438 794h204l195 -381q113 -231 137 -284h4q25 57 140 284l198 381h201l-461 -792v-588zM395 1464h-96q-2 94 36 151.5t103 57.5q45 0 123 -41q66 -37 98 -37q25 0 38.5 16.5t17.5 63.5h94q4 -199 -137 -198q-51 0 -125 39q-78 39 -98 38q-44 0 -54 -90z
" />
    <glyph glyph-name="uni1EF9" unicode="&#x1ef9;" horiz-adv-x="964" 
d="M18 991h197l215 -585q37 -96 66 -203h4q2 6 25.5 85t37.5 122l197 581h190l-270 -706q-100 -262 -175 -401.5t-165 -219.5q-113 -94 -221 -115l-45 150q86 27 157 88q92 72 152 201q14 33 14 43q0 16 -14 47zM340 1161h-98q-2 98 34.5 155.5t104.5 57.5q41 0 127 -45
q61 -35 88 -35q49 0 55 86h97q4 -207 -140 -206q-47 0 -127 45q-63 35 -88 34q-47 0 -53 -92z" />
    <glyph glyph-name="uni2010" unicode="&#x2010;" horiz-adv-x="628" 
d="M61 618h506v-131h-506v131z" />
    <glyph glyph-name="endash" unicode="&#x2013;" horiz-adv-x="1024" 
d="M61 582h902v-123h-902v123z" />
    <glyph glyph-name="emdash" unicode="&#x2014;" horiz-adv-x="2048" 
d="M61 582h1926v-123h-1926v123z" />
    <glyph glyph-name="quoteleft" unicode="&#x2018;" horiz-adv-x="423" 
d="M256 938l-184 -20q35 127 91 271t99 216l115 12q-84 -233 -121 -479z" />
    <glyph glyph-name="quoteright" unicode="&#x2019;" horiz-adv-x="423" 
d="M190 1397l185 20q-35 -127 -91.5 -271.5t-99.5 -215.5l-114 -12q83 233 120 479z" />
    <glyph glyph-name="quotesinglbase" unicode="&#x201a;" horiz-adv-x="423" 
d="M158 -229l-115 -13q84 233 121 480l184 20q-35 -127 -91 -271t-99 -216z" />
    <glyph glyph-name="quotedblleft" unicode="&#x201c;" horiz-adv-x="724" 
d="M256 938l-184 -20q35 127 91 271t99 216l115 12q-84 -233 -121 -479zM559 938l-184 -20q35 127 91 271t99 216l115 12q-80 -217 -121 -479z" />
    <glyph glyph-name="quotedblright" unicode="&#x201d;" horiz-adv-x="724" 
d="M190 1397l185 20q-35 -127 -91.5 -271.5t-99.5 -215.5l-114 -12q79 217 120 479zM494 1397l184 20q-35 -127 -91.5 -271.5t-99.5 -215.5l-114 -12q84 233 121 479z" />
    <glyph glyph-name="quotedblbase" unicode="&#x201e;" horiz-adv-x="729" 
d="M156 -229l-115 -13q80 217 121 480l184 20q-35 -127 -91 -271t-99 -216zM459 -229l-115 -13q84 233 121 480l184 20q-35 -127 -91 -271t-99 -216z" />
    <glyph glyph-name="dagger" unicode="&#x2020;" horiz-adv-x="1024" 
d="M428 1380h168l-16 -432l356 15v-148l-356 16l16 -933h-168l16 933l-356 -16v148l356 -15z" />
    <glyph glyph-name="daggerdbl" unicode="&#x2021;" horiz-adv-x="1024" 
d="M430 1380h166l-12 -411l352 14v-147l-352 16v-418l352 17v-148l-352 14l12 -419h-166l12 419l-352 -14v148l352 -17v418l-352 -16v147l352 -14z" />
    <glyph glyph-name="bullet" unicode="&#x2022;" horiz-adv-x="577" 
d="M287 322q-88 0 -150.5 62t-62.5 153q-2 88 61.5 151.5t153.5 63.5t152.5 -62.5t62.5 -153t-63.5 -152.5t-153.5 -62z" />
    <glyph glyph-name="ellipsis" unicode="&#x2026;" horiz-adv-x="2048" 
d="M338 -23q-51 0 -85 37t-34 92.5t35 92.5t88 37t87 -36t34 -94q0 -55 -35 -92t-90 -37zM1020 -23q-51 0 -85 37t-34 92.5t35 92.5t88 37t87 -36t34 -94q0 -55 -35 -92t-90 -37zM1702 -23q-51 0 -85 37t-34 92.5t35 92.5t88 37t87 -36t34 -94q0 -55 -35 -92t-90 -37z" />
    <glyph glyph-name="perthousand" unicode="&#x2030;" horiz-adv-x="2367" 
d="M385 1354q139 0 222 -104.5t83 -291.5q0 -201 -90 -310t-227 -109q-133 0 -221.5 104.5t-90.5 294.5q0 195 92.5 305.5t231.5 110.5zM375 1245q-80 0 -126 -85t-46 -214q-4 -131 44 -215t130 -84q86 0 129 82t43 219q0 133 -42 215t-132 82zM473 -25h-115l785 1381h114z
M1253.5 803q139.5 0 222.5 -104.5t83 -292.5q0 -201 -90.5 -310.5t-227.5 -109.5q-133 0 -221 104.5t-90 296.5q0 195 92 305.5t231.5 110.5zM1243 694q-80 0 -126 -85t-46 -216q-4 -131 44 -215t130 -84q86 0 129 82t43 221q0 133 -42 215t-132 82zM2001 803
q139 0 222 -104.5t83 -292.5q0 -201 -90 -310.5t-227 -109.5q-133 0 -221.5 104.5t-90.5 296.5q0 195 92.5 305.5t231.5 110.5zM1991 694q-80 0 -126 -85t-46 -216q-4 -131 44 -215t130 -84q86 0 129 82t43 221q0 133 -42 215t-132 82z" />
    <glyph glyph-name="guilsinglleft" unicode="&#x2039;" horiz-adv-x="522" 
d="M475 893l-272 -377l272 -377h-145l-271 377l271 377h145z" />
    <glyph glyph-name="guilsinglright" unicode="&#x203a;" horiz-adv-x="522" 
d="M322 516l-273 377h144l272 -377l-272 -377h-144z" />
    <glyph glyph-name="fraction" unicode="&#x2044;" horiz-adv-x="247" 
d="M-207 -23h-115l779 1377h114z" />
    <glyph glyph-name="uni2070" unicode="&#x2070;" horiz-adv-x="688" 
d="M338 895q-135 0 -213 109.5t-78 300t81 301t220 110.5t216 -107.5t77 -295.5q0 -195 -78 -306.5t-225 -111.5zM344 999q74 0 114 81t40 229q0 303 -154 303q-70 0 -112 -81t-42 -222q0 -145 41 -227.5t113 -82.5z" />
    </font>
</defs>
</svg>
